<svg width="500" height="500" viewBox="0 0 500 500" fill="none" xmlns="http://www.w3.org/2000/svg">
<path d="M124.15 435.32C124.15 435.32 176.3 462.43 235.9 433.85C295.5 405.27 314.9 349.85 345.78 308.27C361.98 286.48 388.48 274.34 408.7 256.02C473.34 197.43 450 99.4795 390.88 72.5995C339.67 49.3295 280.52 57.6695 207.23 97.0595C133.94 136.45 81.13 161.88 42.65 240.38C4.17003 318.88 59.31 397.33 124.15 435.32Z" fill="#FFCF23"/>
<path opacity="0.8" d="M124.15 435.32C124.15 435.32 176.3 462.43 235.9 433.85C295.5 405.27 314.9 349.85 345.78 308.27C361.98 286.48 388.48 274.34 408.7 256.02C473.34 197.43 450 99.4795 390.88 72.5995C339.67 49.3295 280.52 57.6695 207.23 97.0595C133.94 136.45 81.13 161.88 42.65 240.38C4.17003 318.88 59.31 397.33 124.15 435.32Z" fill="white"/>
<path d="M36.66 368.26H439.71" stroke="#263238" stroke-miterlimit="10"/>
<path d="M36.66 291.95H439.71" stroke="#263238" stroke-miterlimit="10"/>
<path d="M36.66 215.641H439.71" stroke="#263238" stroke-miterlimit="10"/>
<path d="M36.66 139.33H439.71" stroke="#263238" stroke-miterlimit="10"/>
<path d="M128.3 96V368.44" stroke="#263238" stroke-miterlimit="10"/>
<path d="M370.56 96V368.44" stroke="#263238" stroke-miterlimit="10"/>
<path d="M137.3 196.99L134.3 200.15" stroke="#263238" stroke-miterlimit="10"/>
<path d="M188.39 143.11L140.91 193.18" stroke="#263238" stroke-miterlimit="10"/>
<path d="M191.35 151.26L164.68 178.67" stroke="#263238" stroke-miterlimit="10"/>
<path d="M380.93 196.99L377.93 200.15" stroke="#263238" stroke-miterlimit="10"/>
<path d="M432.01 143.11L384.54 193.18" stroke="#263238" stroke-miterlimit="10"/>
<path d="M434.98 151.26L408.31 178.67" stroke="#263238" stroke-miterlimit="10"/>
<path d="M30.62 351.09L27.62 354.25" stroke="#263238" stroke-miterlimit="10"/>
<path d="M81.7 297.2L34.23 347.28" stroke="#263238" stroke-miterlimit="10"/>
<path d="M84.67 305.351L57.99 332.771" stroke="#263238" stroke-miterlimit="10"/>
<path d="M69.88 131.8L66.89 134.96" stroke="#263238" stroke-miterlimit="10"/>
<path d="M120.97 77.9102L73.5 127.98" stroke="#263238" stroke-miterlimit="10"/>
<path d="M123.93 86.0605L97.26 113.471" stroke="#263238" stroke-miterlimit="10"/>
<path d="M291.88 131.8L288.89 134.96" stroke="#263238" stroke-miterlimit="10"/>
<path d="M342.97 77.9102L295.5 127.98" stroke="#263238" stroke-miterlimit="10"/>
<path d="M345.93 86.0605L319.26 113.471" stroke="#263238" stroke-miterlimit="10"/>
<path d="M223.24 276.26L220.24 279.42" stroke="#263238" stroke-miterlimit="10"/>
<path d="M274.32 222.38L226.85 272.45" stroke="#263238" stroke-miterlimit="10"/>
<path d="M277.29 230.53L250.62 257.94" stroke="#263238" stroke-miterlimit="10"/>
<path d="M427.92 424.65C427.92 424.65 403.16 371.89 408.54 370.37C413.92 368.85 425.2 377.25 425.2 377.25C425.2 377.25 392.1 288.55 400.67 281.67C409.24 274.79 425.24 310 425.24 310C425.24 310 408.15 255.67 410.16 235C412.17 214.33 433.88 234.24 433.88 234.24C433.88 234.24 416.49 160.07 432.64 156.24C448.79 152.41 448.25 241.11 448.25 241.11C448.25 241.11 453.55 177.64 460.02 195.23C466.49 212.82 452.89 271.69 452.89 271.69C452.89 271.69 461.76 251.81 466.69 270.16C471.62 288.51 456.89 362.68 456.89 362.68C456.89 362.68 469.41 350.45 470.58 365.74C471.75 381.03 444.66 428.44 444.66 428.44L429.33 430L427.92 424.65Z" fill="#FFCF23"/>
<path opacity="0.6" d="M427.92 424.65C427.92 424.65 403.16 371.89 408.54 370.37C413.92 368.85 425.2 377.25 425.2 377.25C425.2 377.25 392.1 288.55 400.67 281.67C409.24 274.79 425.24 310 425.24 310C425.24 310 408.15 255.67 410.16 235C412.17 214.33 433.88 234.24 433.88 234.24C433.88 234.24 416.49 160.07 432.64 156.24C448.79 152.41 448.25 241.11 448.25 241.11C448.25 241.11 453.55 177.64 460.02 195.23C466.49 212.82 452.89 271.69 452.89 271.69C452.89 271.69 461.76 251.81 466.69 270.16C471.62 288.51 456.89 362.68 456.89 362.68C456.89 362.68 469.41 350.45 470.58 365.74C471.75 381.03 444.66 428.44 444.66 428.44L429.33 430L427.92 424.65Z" fill="white"/>
<path d="M433.21 426.999C433.21 426.999 412.57 390.299 416.39 383.409C420.21 376.519 431.68 392.589 431.68 392.589C431.68 392.589 405.68 327.589 409.51 321.479C413.34 315.369 425.57 342.129 425.57 342.129C425.57 342.129 420.98 252.669 428.62 255.719C436.26 258.769 437 301.549 437 301.549C437 301.549 432.42 199.859 439.3 202.919C446.18 205.979 445.42 319.139 445.42 319.139C445.42 319.139 459.18 275.549 461.47 295.429C463.76 315.309 443.89 368.839 443.89 368.839C443.89 368.839 463 326.779 465.33 348.999C467.66 371.219 450 412.419 450 412.419C450 412.419 456.88 395.599 456.88 404.769C456.88 413.939 451.53 425.419 451.53 425.419" stroke="#263238" stroke-linecap="round" stroke-linejoin="round"/>
<path d="M376.42 313.24L404.27 374.02L386.75 378.96L366.09 353.24L376.42 313.24Z" fill="#FFCF23"/>
<g opacity="0.1">
<path d="M371.39 332.7L370.21 337.29L393.34 377.1L396.66 376.17L371.39 332.7Z" fill="black"/>
<path d="M386.88 378.93L390.22 377.99L368.7 343.12L367.55 347.59L386.88 378.93Z" fill="black"/>
<path d="M374.25 321.63L373.03 326.37L399.59 375.34L402.87 374.41L374.25 321.63Z" fill="black"/>
</g>
<path d="M376.42 313.24L404.27 374.02L386.75 378.96L366.09 353.24L376.42 313.24Z" stroke="#263238" stroke-linecap="round" stroke-linejoin="round"/>
<path d="M321.03 296.31L284.76 313.02L304.1 391.49L297.94 424.5H366.75L359.94 388.63L376.64 313.24L338.61 297.63L321.03 296.31Z" fill="#FFCF23"/>
<g opacity="0.1">
<path d="M321.36 424.5L322.75 393.24C322.765 393.094 322.765 392.946 322.75 392.8L308.5 302.09L304.3 304.02L318.3 393.27L316.91 424.5H321.36Z" fill="black"/>
<path d="M329.7 385.76C329.7 385.76 329.7 385.68 329.7 385.64L318.4 297.52L314.17 299.52L325.27 386.19L328.13 424.55H332.59L329.7 385.76Z" fill="black"/>
<path d="M308.78 424.499L312.78 393.989C312.815 393.764 312.815 393.534 312.78 393.309L297.53 307.159L293.36 309.079L308.36 393.749L304.36 424.499H308.78Z" fill="black"/>
<path d="M375.06 312.589L370.87 310.869L355.58 389.939C355.535 390.197 355.535 390.461 355.58 390.719L361.08 424.499H365.59L360 390.399L360.13 389.749L359.91 388.629L363.26 373.539L375.06 312.589Z" fill="black"/>
<path d="M334.98 305.289L330.54 305.419L334.23 424.499H338.67L334.98 305.289Z" fill="black"/>
<path d="M350.57 389.819L365.34 308.599L361.14 306.869L346.14 389.409C346.09 389.663 346.09 389.925 346.14 390.179L352 424.499H356.51L350.57 389.819Z" fill="black"/>
<path d="M342.5 387.06L353.73 303.83L349.48 302.09L338.06 386.74C338.036 386.919 338.036 387.101 338.06 387.28L342.2 424.5H346.67L342.5 387.06Z" fill="black"/>
</g>
<path d="M321.03 296.31L284.76 313.02L304.1 391.49L297.94 424.5H366.75L359.94 388.63L376.64 313.24L338.61 297.63L321.03 296.31Z" stroke="#263238" stroke-linecap="round" stroke-linejoin="round"/>
<path d="M284.76 313.02L256.19 374.89L274.43 378.74L295.09 353.02L284.76 313.02Z" fill="#FFCF23"/>
<g opacity="0.1">
<path d="M292.27 342.1L272.37 378.31L274.43 378.74L279.19 372.81L293.48 346.81L292.27 342.1Z" fill="black"/>
<path d="M290.48 335.179L289.18 330.139L266.97 377.169L270.32 377.879L290.48 335.179Z" fill="black"/>
<path d="M259.72 375.629L263.07 376.339L287.64 324.169L286.33 319.109L259.72 375.629Z" fill="black"/>
</g>
<path d="M284.01 323.319L294.09 350.369L283.97 334.879" stroke="#263238" stroke-miterlimit="10"/>
<path d="M284.76 313.02L256.19 374.89L274.43 378.74L295.09 353.02L284.76 313.02Z" stroke="#263238" stroke-linecap="round" stroke-linejoin="round"/>
<path d="M275.74 369.51L311.79 410.62L304.79 418.53L259.36 382.35C259.36 382.35 253.13 379.35 256.87 373.25" fill="#FFCF23"/>
<g opacity="0.1">
<path d="M308.01 413.48L311.39 410.59L293.21 389.43L275.74 369.51L271.04 370.44L308.01 413.48Z" fill="black"/>
<path d="M300.81 415.38L303.82 417.78L306.65 415.29L267.77 371.09L262.73 372.08L300.81 415.38Z" fill="black"/>
</g>
<path d="M275.74 369.51L311.79 410.62L304.79 418.53L259.36 382.35C259.36 382.35 253.13 379.35 256.87 373.25" stroke="#263238" stroke-linecap="round" stroke-linejoin="round"/>
<path d="M306 409.07C307 408.51 324.39 404.35 324.63 406.48C324.87 408.61 330.05 410.96 332.41 410.96C334.77 410.96 337.13 409.07 337.6 411.9C338.07 414.73 335.48 414.97 333.36 415.2C331.24 415.43 323.92 413.08 323.92 413.08C323.92 413.08 317.08 418.74 314.25 420.15C311.42 421.56 306.25 421.15 304.35 419.68C302.45 418.21 299.88 412.37 306 409.07Z" fill="white" stroke="#263238" stroke-linecap="round" stroke-linejoin="round"/>
<path d="M322.05 406.24C322.05 406.24 328.65 404.35 330.05 405.06C331.45 405.77 332.18 419.92 332.18 419.92C332.18 419.92 331.47 421.33 330.05 419.92C328.63 418.51 323.92 407.92 323.92 407.92" fill="white"/>
<path d="M322.05 406.24C322.05 406.24 328.65 404.35 330.05 405.06C331.45 405.77 332.18 419.92 332.18 419.92C332.18 419.92 331.47 421.33 330.05 419.92C328.63 418.51 323.92 407.92 323.92 407.92" stroke="#263238" stroke-linecap="round" stroke-linejoin="round"/>
<path d="M318.74 406.709C318.74 406.709 325.58 405.059 327 407.649C328.42 410.239 331.95 421.799 329.12 422.279C326.29 422.759 325.35 418.969 325.35 418.969L320.87 410.719L317.8 410.249" fill="white"/>
<path d="M318.74 406.709C318.74 406.709 325.58 405.059 327 407.649C328.42 410.239 331.95 421.799 329.12 422.279C326.29 422.759 325.35 418.969 325.35 418.969L320.87 410.719L317.8 410.249" stroke="#263238" stroke-linecap="round" stroke-linejoin="round"/>
<path d="M316.39 408.83C316.39 408.83 319.69 407.42 321.34 408.6C322.99 409.78 330.54 421.8 329.12 422.28C327.7 422.76 324.4 422.51 323.93 421.57C323.46 420.63 317.33 412.57 317.33 412.57" fill="white"/>
<path d="M316.39 408.83C316.39 408.83 319.69 407.42 321.34 408.6C322.99 409.78 330.54 421.8 329.12 422.28C327.7 422.76 324.4 422.51 323.93 421.57C323.46 420.63 317.33 412.57 317.33 412.57" stroke="#263238" stroke-linecap="round" stroke-linejoin="round"/>
<path d="M314 412.84C314 412.84 317.06 410.01 318.71 410.96C320.36 411.91 327.2 420.86 325.79 421.8C324.38 422.74 323.43 421.8 322.02 419.92C321.009 418.652 319.816 417.54 318.48 416.62L315.65 417.56" fill="white"/>
<path d="M314 412.84C314 412.84 317.06 410.01 318.71 410.96C320.36 411.91 327.2 420.86 325.79 421.8C324.38 422.74 323.43 421.8 322.02 419.92C321.009 418.652 319.816 417.54 318.48 416.62L315.65 417.56" stroke="#263238" stroke-linecap="round" stroke-linejoin="round"/>
<path d="M383.68 370.83L371.68 411.66L380.36 417.72L399.97 386.2C399.97 386.2 408.03 377.1 402.97 371.98" fill="#FFCF23"/>
<g opacity="0.1">
<path d="M380.63 417.23L380.78 416.98L397.39 371.65L392.75 371.37L376.7 415.19L378.5 416.44L380.63 417.23Z" fill="black"/>
<path d="M371.7 411.69L375.47 414.33L390.97 371.39L390.54 371.24L386.39 370.99L371.7 411.69Z" fill="black"/>
<path d="M404.34 374.37C404.074 373.467 403.586 372.645 402.92 371.98L400.54 371.84L388 405.43L399.92 386.25L404.34 374.37Z" fill="black"/>
</g>
<path d="M383.68 370.83L371.68 411.66L380.36 417.72L399.97 386.2C399.97 386.2 408.03 377.1 402.97 371.98" stroke="#263238" stroke-linecap="round" stroke-linejoin="round"/>
<path d="M377.72 409.07C376.72 408.51 359.32 404.35 359.09 406.48C358.86 408.61 353.66 410.96 351.31 410.96C348.96 410.96 346.59 409.07 346.12 411.9C345.65 414.73 348.24 414.97 350.36 415.2C352.48 415.43 359.8 413.08 359.8 413.08C359.8 413.08 366.64 418.74 369.47 420.15C372.3 421.56 377.47 421.15 379.37 419.68C381.27 418.21 383.85 412.37 377.72 409.07Z" fill="white" stroke="#263238" stroke-linecap="round" stroke-linejoin="round"/>
<path d="M361.68 406.24C361.68 406.24 355.08 404.35 353.68 405.06C352.28 405.77 351.56 419.92 351.56 419.92C351.56 419.92 352.27 421.33 353.68 419.92C355.09 418.51 359.82 407.92 359.82 407.92" fill="white"/>
<path d="M361.68 406.24C361.68 406.24 355.08 404.35 353.68 405.06C352.28 405.77 351.56 419.92 351.56 419.92C351.56 419.92 352.27 421.33 353.68 419.92C355.09 418.51 359.82 407.92 359.82 407.92" stroke="#263238" stroke-linecap="round" stroke-linejoin="round"/>
<path d="M365 406.709C365 406.709 358.17 405.059 356.75 407.649C355.33 410.239 351.75 421.799 354.63 422.279C357.51 422.759 358.4 418.969 358.4 418.969L362.88 410.719L365.95 410.249" fill="white"/>
<path d="M365 406.709C365 406.709 358.17 405.059 356.75 407.649C355.33 410.239 351.75 421.799 354.63 422.279C357.51 422.759 358.4 418.969 358.4 418.969L362.88 410.719L365.95 410.249" stroke="#263238" stroke-linecap="round" stroke-linejoin="round"/>
<path d="M367.34 408.83C367.34 408.83 364.04 407.42 362.39 408.6C360.74 409.78 353.19 421.8 354.61 422.28C356.03 422.76 359.32 422.51 359.8 421.57C360.28 420.63 366.4 412.57 366.4 412.57" fill="white"/>
<path d="M367.34 408.83C367.34 408.83 364.04 407.42 362.39 408.6C360.74 409.78 353.19 421.8 354.61 422.28C356.03 422.76 359.32 422.51 359.8 421.57C360.28 420.63 366.4 412.57 366.4 412.57" stroke="#263238" stroke-linecap="round" stroke-linejoin="round"/>
<path d="M369.7 412.839C369.7 412.839 366.64 409.999 365 410.999C363.36 411.999 356.51 420.899 357.93 421.839C359.35 422.779 360.29 421.839 361.7 419.959C362.711 418.691 363.904 417.58 365.24 416.659L368.07 417.599" fill="white"/>
<path d="M369.7 412.839C369.7 412.839 366.64 409.999 365 410.999C363.36 411.999 356.51 420.899 357.93 421.839C359.35 422.779 360.29 421.839 361.7 419.959C362.711 418.691 363.904 417.58 365.24 416.659L368.07 417.599" stroke="#263238" stroke-linecap="round" stroke-linejoin="round"/>
<path d="M323.66 292.13C323.66 292.13 317.95 293.89 315.53 297.41C313.11 300.93 315.97 328.18 315.97 328.18L334.22 318.07L353.34 330.16C353.34 330.16 351.58 302.25 350.04 298.29C348.5 294.33 338.83 289.72 335.53 290.16C332.23 290.6 323.66 292.13 323.66 292.13Z" fill="#FFCF23" stroke="#263238" stroke-linecap="round" stroke-linejoin="round"/>
<path d="M321.03 276.97V302.25L333.12 334.78L343.45 301.59V276.75L321.03 276.97Z" fill="white" stroke="#263238" stroke-linecap="round" stroke-linejoin="round"/>
<path d="M321 286.05C324.412 288.444 328.481 289.726 332.65 289.72C336.461 289.723 340.194 288.648 343.42 286.62V276.75L321 277V286.05Z" fill="#263238" stroke="#263238" stroke-linecap="round" stroke-linejoin="round"/>
<path d="M332.68 284C327.279 284 322.1 281.855 318.28 278.037C314.46 274.219 312.313 269.041 312.31 263.64L308.72 235C308.72 228.635 311.249 222.53 315.75 218.029C320.25 213.529 326.355 211 332.72 211C339.085 211 345.19 213.529 349.691 218.029C354.192 222.53 356.72 228.635 356.72 235L353 263.6C353.005 266.274 352.484 268.922 351.466 271.395C350.447 273.867 348.952 276.114 347.065 278.008C345.178 279.903 342.937 281.407 340.468 282.435C338 283.463 335.354 283.995 332.68 284Z" fill="white" stroke="#263238" stroke-linecap="round" stroke-linejoin="round"/>
<path d="M337.91 255.8C337.91 255.8 343.1 251.45 349.3 256.14" stroke="#263238" stroke-linecap="round" stroke-linejoin="round"/>
<path d="M328.53 255.3C326.989 254.319 325.153 253.905 323.34 254.13" stroke="#263238" stroke-linecap="round" stroke-linejoin="round"/>
<path d="M339.92 245.42C339.92 245.42 345.45 242.74 348.8 247.93" stroke="#263238" stroke-linecap="round" stroke-linejoin="round"/>
<path d="M331 267.359C331 267.359 333.35 269.199 335.36 267.359" stroke="#263238" stroke-linecap="round" stroke-linejoin="round"/>
<path d="M328.7 271.38C328.7 271.38 333.56 274.38 336.4 271.38" stroke="#263238" stroke-linecap="round" stroke-linejoin="round"/>
<path d="M342.92 231.999C342.92 231.999 322.84 250.539 317.24 264.049C311.64 277.559 316.66 291.67 319.75 295.729C322.84 299.789 324.75 300.359 324.75 300.359C324.75 300.359 314.13 304.419 307.18 293.799C300.23 283.179 301.96 271.199 304.09 262.899C306.22 254.599 305.63 230.259 310.46 222.149C315.29 214.039 322.24 208.049 333.83 209.399C345.42 210.749 351.59 216.739 355.26 224.269C358.93 231.799 357.19 244.549 358.35 250.149C359.51 255.749 364.53 272.549 365.69 282.589C366.85 292.629 353.16 299.779 351 300.749C349.532 301.367 347.962 301.706 346.37 301.749C346.37 301.749 351 278.579 351.97 265.249C352.94 251.919 353 243.999 353 243.999C353 243.999 343.89 232.579 342.92 231.999Z" fill="#263238"/>
<path d="M340.57 219C340.57 219 338.2 225.53 321.15 244.24C304.1 262.95 299.47 280.8 304.65 298.24" stroke="#707070" stroke-miterlimit="10"/>
<path d="M336.36 212.479C336.36 212.479 326.98 220.249 315.36 231.889C308.218 239.095 302.119 247.264 297.24 256.16" stroke="#707070" stroke-miterlimit="10"/>
<path d="M344.77 220.569C344.77 220.569 351.89 233.509 355.77 241.279C359.65 249.049 364.19 292.719 350.6 308.279" stroke="#707070" stroke-miterlimit="10"/>
<path d="M339.92 209.89L342.92 232" stroke="#707070" stroke-miterlimit="10"/>
<path d="M342.92 231.999C342.92 231.999 322.84 250.539 317.24 264.049C311.64 277.559 316.66 291.669 319.75 295.729C322.84 299.789 324.75 300.359 324.75 300.359C324.75 300.359 314.13 304.419 307.18 293.799C300.23 283.179 301.96 271.199 304.09 262.899C306.22 254.599 305.63 230.259 310.46 222.149C315.29 214.039 322.24 208.049 333.83 209.399C345.42 210.749 351.59 216.739 355.26 224.269C358.93 231.799 357.19 244.549 358.35 250.149C359.51 255.749 364.53 272.549 365.69 282.589C366.85 292.629 353.16 299.779 351 300.749C349.532 301.367 347.962 301.706 346.37 301.749C346.37 301.749 351 278.579 351.97 265.249C352.94 251.919 353 243.999 353 243.999C353 243.999 343.89 232.579 342.92 231.999Z" stroke="#263238" stroke-linecap="round" stroke-linejoin="round"/>
<path d="M306.74 244.939H303.78C302.145 244.939 300.82 246.265 300.82 247.899V259.749C300.82 261.384 302.145 262.709 303.78 262.709H306.74C308.375 262.709 309.7 261.384 309.7 259.749V247.899C309.7 246.265 308.375 244.939 306.74 244.939Z" fill="white" stroke="#263238" stroke-linecap="round" stroke-linejoin="round"/>
<path d="M361.01 244.939H358.05C356.415 244.939 355.09 246.265 355.09 247.899V259.749C355.09 261.384 356.415 262.709 358.05 262.709H361.01C362.645 262.709 363.97 261.384 363.97 259.749V247.899C363.97 246.265 362.645 244.939 361.01 244.939Z" fill="white" stroke="#263238" stroke-linecap="round" stroke-linejoin="round"/>
<path d="M360.3 244.94V235.28C360.3 227.803 357.33 220.633 352.043 215.347C346.757 210.06 339.586 207.09 332.11 207.09C324.633 207.09 317.461 210.06 312.173 215.346C306.885 220.632 303.913 227.802 303.91 235.28V244.94" stroke="#263238" stroke-width="2" stroke-linejoin="round"/>
<path d="M359.53 262.62C359.53 262.62 358.28 272.29 346.45 276.23" stroke="#263238" stroke-linecap="round" stroke-linejoin="round"/>
<path d="M346 275.81C346.5 277.26 345.09 279.06 342.84 279.81C340.59 280.56 338.38 280.05 337.84 278.6C337.3 277.15 338.75 275.35 340.99 274.6C343.23 273.85 345.53 274.36 346 275.81Z" stroke="#263238" stroke-linecap="round" stroke-linejoin="round"/>
<path d="M143.6 288.28L102.28 307.97L114.2 424.74H196.57L208.22 306.03L169.39 288L143.6 288.28Z" fill="#FFCF23" stroke="#263238" stroke-linecap="round" stroke-linejoin="round"/>
<path d="M160.16 323.909C160.933 323.909 161.56 323.283 161.56 322.509C161.56 321.736 160.933 321.109 160.16 321.109C159.387 321.109 158.76 321.736 158.76 322.509C158.76 323.283 159.387 323.909 160.16 323.909Z" fill="#263238"/>
<path d="M161.56 330.91C161.56 331.187 161.478 331.457 161.324 331.688C161.17 331.918 160.952 332.097 160.696 332.203C160.44 332.309 160.158 332.337 159.887 332.283C159.615 332.229 159.366 332.096 159.17 331.9C158.974 331.704 158.841 331.454 158.787 331.183C158.733 330.911 158.761 330.63 158.867 330.374C158.973 330.118 159.152 329.9 159.382 329.746C159.612 329.592 159.883 329.51 160.16 329.51C160.531 329.51 160.887 329.657 161.15 329.92C161.413 330.182 161.56 330.538 161.56 330.91Z" fill="#263238"/>
<path d="M174.49 294.239L163.2 306.829L158.38 319.059L153.19 306.649L142.27 294.239V272.199H174.49V294.239Z" fill="white" stroke="#263238" stroke-linecap="round" stroke-linejoin="round"/>
<path d="M142.27 281.999C144.395 284.583 147.067 286.663 150.093 288.09C153.12 289.516 156.424 290.254 159.77 290.249C165.17 290.256 170.392 288.326 174.49 284.809V272.199H142.27V281.999Z" fill="#263238" stroke="#263238" stroke-linecap="round" stroke-linejoin="round"/>
<path d="M162.04 210.52H157.5C146.222 210.52 137.08 219.662 137.08 230.94V263.63C137.08 274.907 146.222 284.05 157.5 284.05H162.04C173.318 284.05 182.46 274.907 182.46 263.63V230.94C182.46 219.662 173.318 210.52 162.04 210.52Z" fill="white" stroke="#263238" stroke-linecap="round" stroke-linejoin="round"/>
<path d="M164.12 243.12L163.45 259.19C163.437 259.887 163.21 260.562 162.801 261.125C162.391 261.689 161.818 262.113 161.16 262.34C159.95 262.71 158.57 262.34 157.82 259.61" stroke="#263238" stroke-linecap="round" stroke-linejoin="round"/>
<path d="M151 265.529H169C169 265.529 165.85 272.389 159.74 272.389C153.63 272.389 151 265.529 151 265.529Z" fill="#263238" stroke="#263238" stroke-linecap="round" stroke-linejoin="round"/>
<path d="M152.28 267.939H167.44C168.016 267.186 168.519 266.379 168.94 265.529H151C151.342 266.375 151.771 267.183 152.28 267.939Z" fill="white" stroke="#263238" stroke-linecap="round" stroke-linejoin="round"/>
<path d="M150.79 250.35C151.508 250.35 152.09 248.979 152.09 247.289C152.09 245.599 151.508 244.229 150.79 244.229C150.072 244.229 149.49 245.599 149.49 247.289C149.49 248.979 150.072 250.35 150.79 250.35Z" fill="#263238"/>
<path d="M170.23 250.35C170.948 250.35 171.53 248.979 171.53 247.289C171.53 245.599 170.948 244.229 170.23 244.229C169.512 244.229 168.93 245.599 168.93 247.289C168.93 248.979 169.512 250.35 170.23 250.35Z" fill="#263238"/>
<path d="M166.16 239.23C166.16 239.23 170.6 236.45 175.61 240.9" stroke="#263238" stroke-linecap="round" stroke-linejoin="round"/>
<path d="M159.77 210.52C153.752 210.52 147.981 212.91 143.726 217.165C139.471 221.42 137.08 227.192 137.08 233.21V253.88H137.27H139.12V245.36C139.12 245.36 148.38 245.36 159.31 239.44C170.24 233.52 173 223.86 173 223.86C173 223.86 175.41 235.53 178 237.75L180.6 239.97V254.05H182.45V233.21C182.45 227.194 180.061 221.424 175.808 217.169C171.555 212.914 165.786 210.522 159.77 210.52Z" fill="#263238" stroke="#263238" stroke-linecap="round" stroke-linejoin="round"/>
<path d="M132.83 242.939H137.08V259.789H132.83C131.748 259.789 130.71 259.36 129.945 258.594C129.18 257.829 128.75 256.792 128.75 255.709V246.999C128.755 245.921 129.187 244.888 129.952 244.127C130.717 243.367 131.751 242.939 132.83 242.939Z" fill="white" stroke="#263238" stroke-linecap="round" stroke-linejoin="round"/>
<path d="M186.44 259.79H182.19V242.94H186.44C186.976 242.94 187.506 243.046 188.001 243.251C188.496 243.456 188.946 243.756 189.325 244.135C189.704 244.514 190.004 244.964 190.209 245.459C190.414 245.954 190.52 246.484 190.52 247.02V255.73C190.515 256.809 190.083 257.841 189.318 258.602C188.553 259.363 187.519 259.79 186.44 259.79Z" fill="white" stroke="#263238" stroke-linecap="round" stroke-linejoin="round"/>
<path d="M133.38 242.94V232.19C133.38 225.214 136.151 218.525 141.083 213.593C146.015 208.661 152.705 205.89 159.68 205.89V205.89C166.654 205.892 173.342 208.664 178.274 213.596C183.206 218.527 185.977 225.215 185.98 232.19V242.94" stroke="#263238" stroke-width="2" stroke-linejoin="round"/>
<path d="M186 259.79C186 259.79 184.7 269.79 172.48 273.87" stroke="#263238" stroke-linecap="round" stroke-linejoin="round"/>
<path d="M172 273.43C172.52 274.93 171.06 276.79 168.74 277.6C166.42 278.41 164.12 277.84 163.6 276.34C163.08 274.84 164.54 272.98 166.86 272.17C169.18 271.36 171.51 271.93 172 273.43Z" stroke="#263238" stroke-linecap="round" stroke-linejoin="round"/>
<path d="M102.28 307.97L67.3301 381.92L81.7501 394.5L107.82 361.78L102.28 307.97Z" fill="#FFCF23" stroke="#263238" stroke-linecap="round" stroke-linejoin="round"/>
<path d="M99.4101 330.64L107.9 359.28L97.8201 342.83" stroke="#263238" stroke-miterlimit="10"/>
<path d="M208.22 306.029L241.5 380.359L220.98 389.239L202.67 359.839L208.22 306.029Z" fill="#FFCF23" stroke="#263238" stroke-linecap="round" stroke-linejoin="round"/>
<path d="M86.19 380.079L116.14 408.089L107.82 417.799L64.28 390.789L69.28 377.479" fill="#FFCF23"/>
<path d="M86.19 380.079L116.14 408.089L107.82 417.799L64.28 390.789L69.28 377.479" stroke="#263238" stroke-linecap="round" stroke-linejoin="round"/>
<path d="M111.15 406.43C112.37 405.77 132.78 400.88 133.06 403.38C133.34 405.88 139.44 408.65 142.21 408.65C144.98 408.65 147.76 406.43 148.31 409.76C148.86 413.09 145.82 413.36 143.31 413.64C140.8 413.92 132.22 411.14 132.22 411.14C132.22 411.14 124.22 417.8 120.85 419.47C117.48 421.14 111.42 420.57 109.2 418.91C106.98 417.25 103.94 410.31 111.15 406.43Z" fill="white" stroke="#263238" stroke-linecap="round" stroke-linejoin="round"/>
<path d="M130 403.1C130 403.1 137.77 400.88 139.43 401.72C141.09 402.56 141.93 419.19 141.93 419.19C141.93 419.19 141.09 420.85 139.43 419.19C137.77 417.53 132.23 405 132.23 405" fill="white"/>
<path d="M130 403.1C130 403.1 137.77 400.88 139.43 401.72C141.09 402.56 141.93 419.19 141.93 419.19C141.93 419.19 141.09 420.85 139.43 419.19C137.77 417.53 132.23 405 132.23 405" stroke="#263238" stroke-linecap="round" stroke-linejoin="round"/>
<path d="M126.13 403.66C126.13 403.66 134.13 401.72 135.83 404.77C137.53 407.82 141.66 421.41 138.33 421.96C135 422.51 133.89 418.08 133.89 418.08L128.62 408.37L125.02 407.82" fill="white"/>
<path d="M126.13 403.66C126.13 403.66 134.13 401.72 135.83 404.77C137.53 407.82 141.66 421.41 138.33 421.96C135 422.51 133.89 418.08 133.89 418.08L128.62 408.37L125.02 407.82" stroke="#263238" stroke-linecap="round" stroke-linejoin="round"/>
<path d="M123.35 406.15C123.35 406.15 127.24 404.49 129.18 405.88C131.12 407.27 140 421.41 138.33 422C136.66 422.59 132.78 422.28 132.23 421.17C131.68 420.06 124.46 410.63 124.46 410.63" fill="white"/>
<path d="M123.35 406.15C123.35 406.15 127.24 404.49 129.18 405.88C131.12 407.27 140 421.41 138.33 422C136.66 422.59 132.78 422.28 132.23 421.17C131.68 420.06 124.46 410.63 124.46 410.63" stroke="#263238" stroke-linecap="round" stroke-linejoin="round"/>
<path d="M120.58 410.869C120.58 410.869 124.19 407.539 126.13 408.649C128.07 409.759 136.13 420.299 134.45 421.409C132.77 422.519 131.67 421.409 130.01 419.189C128.822 417.695 127.42 416.385 125.85 415.299L122.52 416.409" fill="white"/>
<path d="M120.58 410.869C120.58 410.869 124.19 407.539 126.13 408.649C128.07 409.759 136.13 420.299 134.45 421.409C132.77 422.519 131.67 421.409 130.01 419.189C128.822 417.695 127.42 416.385 125.85 415.299L122.52 416.409" stroke="#263238" stroke-linecap="round" stroke-linejoin="round"/>
<path d="M215.95 373L198.39 410.06L209.69 416.03L242.9 380.84L233.37 370.29" fill="#FFCF23"/>
<path d="M215.95 373L198.39 410.06L209.69 416.03L242.9 380.84L233.37 370.29" stroke="#263238" stroke-linecap="round" stroke-linejoin="round"/>
<path d="M207.18 406.43C205.96 405.77 185.54 400.88 185.27 403.38C185 405.88 178.89 408.65 176.11 408.65C173.33 408.65 170.57 406.43 170.01 409.76C169.45 413.09 172.51 413.36 175.01 413.64C177.51 413.92 186.1 411.14 186.1 411.14C186.1 411.14 194.1 417.8 197.47 419.47C200.84 421.14 206.9 420.57 209.12 418.91C211.34 417.25 214.39 410.31 207.18 406.43Z" fill="white" stroke="#263238" stroke-linecap="round" stroke-linejoin="round"/>
<path d="M188.32 403.1C188.32 403.1 180.55 400.88 178.89 401.72C177.23 402.56 176.39 419.19 176.39 419.19C176.39 419.19 177.22 420.85 178.89 419.19C180.56 417.53 186.1 405 186.1 405" fill="white"/>
<path d="M188.32 403.1C188.32 403.1 180.55 400.88 178.89 401.72C177.23 402.56 176.39 419.19 176.39 419.19C176.39 419.19 177.22 420.85 178.89 419.19C180.56 417.53 186.1 405 186.1 405" stroke="#263238" stroke-linecap="round" stroke-linejoin="round"/>
<path d="M192.2 403.66C192.2 403.66 184.2 401.72 182.49 404.77C180.78 407.82 176.67 421.41 180 422C183.33 422.59 184.43 418.12 184.43 418.12L189.7 408.41L193.31 407.86" fill="white"/>
<path d="M192.2 403.66C192.2 403.66 184.2 401.72 182.49 404.77C180.78 407.82 176.67 421.41 180 422C183.33 422.59 184.43 418.12 184.43 418.12L189.7 408.41L193.31 407.86" stroke="#263238" stroke-linecap="round" stroke-linejoin="round"/>
<path d="M195 406.15C195 406.15 191.12 404.49 189.18 405.88C187.24 407.27 178.33 421.41 180 422C181.67 422.59 185.54 422.28 186.1 421.17C186.66 420.06 193.86 410.63 193.86 410.63" fill="white"/>
<path d="M195 406.15C195 406.15 191.12 404.49 189.18 405.88C187.24 407.27 178.33 421.41 180 422C181.67 422.59 185.54 422.28 186.1 421.17C186.66 420.06 193.86 410.63 193.86 410.63" stroke="#263238" stroke-linecap="round" stroke-linejoin="round"/>
<path d="M197.75 410.869C197.75 410.869 194.14 407.539 192.2 408.649C190.26 409.759 182.2 420.299 183.88 421.409C185.56 422.519 186.65 421.409 188.32 419.189C189.508 417.695 190.91 416.385 192.48 415.299L195.81 416.409" fill="white"/>
<path d="M197.75 410.869C197.75 410.869 194.14 407.539 192.2 408.649C190.26 409.759 182.2 420.299 183.88 421.409C185.56 422.519 186.65 421.409 188.32 419.189C189.508 417.695 190.91 416.385 192.48 415.299L195.81 416.409" stroke="#263238" stroke-linecap="round" stroke-linejoin="round"/>
<path d="M259.66 168.21H194.66C191.646 168.21 188.756 169.406 186.624 171.537C184.492 173.667 183.293 176.556 183.29 179.57V198.57C183.282 200.066 183.57 201.55 184.136 202.935C184.703 204.32 185.537 205.58 186.592 206.641C187.646 207.703 188.9 208.547 190.281 209.123C191.662 209.699 193.143 209.997 194.64 210H202.64L191.73 224.27L216.26 210H259.66C261.153 209.996 262.631 209.698 264.009 209.123C265.387 208.548 266.638 207.707 267.691 206.649C268.744 205.59 269.578 204.334 270.146 202.953C270.714 201.572 271.004 200.093 271 198.6V179.6C271.005 176.586 269.814 173.694 267.687 171.558C265.561 169.422 262.674 168.218 259.66 168.21Z" fill="white" stroke="#263238" stroke-miterlimit="10"/>
<path d="M218.23 190.41C218.232 190.934 218.078 191.447 217.788 191.885C217.498 192.322 217.085 192.663 216.601 192.865C216.117 193.067 215.584 193.121 215.069 193.02C214.554 192.919 214.081 192.667 213.71 192.297C213.338 191.927 213.085 191.455 212.982 190.94C212.879 190.426 212.93 189.893 213.131 189.408C213.331 188.923 213.671 188.508 214.107 188.217C214.543 187.925 215.055 187.77 215.58 187.77C216.281 187.77 216.954 188.047 217.45 188.542C217.947 189.037 218.227 189.708 218.23 190.41Z" fill="#263238"/>
<path d="M229.79 190.41C229.792 190.935 229.638 191.448 229.348 191.886C229.057 192.323 228.643 192.664 228.159 192.866C227.674 193.068 227.14 193.121 226.625 193.019C226.11 192.917 225.637 192.665 225.266 192.293C224.895 191.922 224.642 191.449 224.54 190.934C224.438 190.419 224.492 189.885 224.694 189.401C224.895 188.916 225.237 188.502 225.674 188.212C226.111 187.922 226.625 187.768 227.15 187.77C227.85 187.77 228.522 188.048 229.017 188.543C229.512 189.038 229.79 189.709 229.79 190.41Z" fill="#263238"/>
<path d="M241.35 190.41C241.35 190.932 241.195 191.442 240.905 191.876C240.615 192.31 240.203 192.649 239.72 192.849C239.238 193.048 238.707 193.101 238.195 192.999C237.683 192.897 237.212 192.646 236.843 192.276C236.474 191.907 236.223 191.437 236.121 190.925C236.019 190.412 236.071 189.882 236.271 189.399C236.471 188.917 236.809 188.505 237.243 188.214C237.677 187.924 238.188 187.77 238.71 187.77C239.41 187.77 240.082 188.048 240.577 188.543C241.072 189.038 241.35 189.709 241.35 190.41Z" fill="#263238"/>
<path d="M392.45 421.73H271.31V426.62H392.45V421.73Z" fill="white" stroke="#263238" stroke-linecap="round" stroke-linejoin="round"/>
<path d="M411.06 421.73H305.47V426.62H411.06V421.73Z" fill="white" stroke="#263238" stroke-linecap="round" stroke-linejoin="round"/>
<path d="M413.11 413.04H312.09L322.98 335.91H424L413.11 413.04Z" fill="white" stroke="#263238" stroke-linecap="round" stroke-linejoin="round"/>
<path d="M417.29 413.04H316.27L327.16 335.91H428.18L417.29 413.04Z" fill="#263238" stroke="#263238" stroke-linecap="round" stroke-linejoin="round"/>
<path d="M386.33 377.19L396.47 426.61H370.4L360.27 377.19H386.33ZM368.65 391.86C368.699 392.061 368.815 392.24 368.979 392.367C369.142 392.494 369.343 392.562 369.55 392.56L384.32 392.42C384.458 392.418 384.595 392.385 384.718 392.323C384.842 392.261 384.95 392.172 385.035 392.063C385.12 391.953 385.178 391.826 385.207 391.69C385.236 391.555 385.233 391.415 385.2 391.28L383.87 385.74C383.821 385.539 383.706 385.359 383.542 385.23C383.379 385.102 383.178 385.031 382.97 385.03L368.2 385.17C368.061 385.173 367.925 385.206 367.801 385.268C367.677 385.33 367.568 385.419 367.483 385.528C367.398 385.637 367.338 385.764 367.308 385.9C367.278 386.035 367.279 386.175 367.31 386.31L368.65 391.86Z" fill="white" stroke="#263238" stroke-linecap="round" stroke-linejoin="round"/>
<path d="M213.27 421.73H92.13V426.62H213.27V421.73Z" fill="white" stroke="#263238" stroke-linecap="round" stroke-linejoin="round"/>
<path d="M231.88 421.73H126.29V426.62H231.88V421.73Z" fill="white" stroke="#263238" stroke-linecap="round" stroke-linejoin="round"/>
<path d="M233.93 413.04H132.91L143.8 335.91H244.82L233.93 413.04Z" fill="white" stroke="#263238" stroke-linecap="round" stroke-linejoin="round"/>
<path d="M238.11 413.04H137.09L147.98 335.91H249L238.11 413.04Z" fill="#263238" stroke="#263238" stroke-linecap="round" stroke-linejoin="round"/>
<path d="M207.16 377.19L217.29 426.61H191.22L181.09 377.19H207.16ZM189.47 391.86C189.521 392.06 189.637 392.238 189.8 392.365C189.963 392.491 190.164 392.56 190.37 392.56L205.14 392.42C205.279 392.418 205.415 392.385 205.539 392.323C205.663 392.261 205.772 392.172 205.857 392.063C205.942 391.954 206.002 391.827 206.032 391.691C206.062 391.556 206.061 391.415 206.03 391.28L204.69 385.74C204.642 385.538 204.528 385.357 204.364 385.228C204.201 385.099 203.998 385.029 203.79 385.03L189.02 385.17C188.882 385.172 188.745 385.206 188.622 385.268C188.498 385.33 188.39 385.419 188.305 385.528C188.22 385.638 188.162 385.765 188.133 385.9C188.104 386.036 188.107 386.176 188.14 386.31L189.47 391.86Z" fill="white" stroke="#263238" stroke-linecap="round" stroke-linejoin="round"/>
<path d="M460.75 426.61H29.83V431.45H460.75V426.61Z" fill="#263238" stroke="#263238" stroke-linecap="round" stroke-linejoin="round"/>
</svg>
