<svg width="154" height="60" viewBox="0 0 154 60" fill="none" xmlns="http://www.w3.org/2000/svg">
<rect width="153.123" height="59.5481" transform="translate(0.453857)" fill="white" fill-opacity="0.8"/>
<path fill-rule="evenodd" clip-rule="evenodd" d="M92.5046 7.26422C90.4 9.03659 87.5624 9.16462 86.1666 7.55017C84.7708 5.93572 85.3454 3.19015 87.4499 1.41778C89.5544 -0.3546 92.392 -0.482624 93.7878 1.13183C95.1836 2.74628 94.6091 5.49184 92.5046 7.26422ZM102.466 8.66786C101.625 8.60745 100.867 8.23771 100.341 7.55091C99.1113 5.94362 99.6195 3.20848 101.477 1.44182C102.608 0.36521 103.98 -0.103291 105.157 0.0587238H112.413C113.518 -0.0674963 114.554 0.296554 115.22 1.16621C116.455 2.78067 115.947 5.52624 114.084 7.29862C113.071 8.26201 111.866 8.73957 110.779 8.71553L110.772 8.74787L102.462 8.68303L102.466 8.66786ZM62.67 18.4435C64.0658 20.0579 66.9034 19.9299 69.008 18.1575C71.1125 16.3852 71.687 13.6396 70.2912 12.0251C68.8954 10.4107 66.0578 10.5387 63.9533 12.3111C61.8488 14.0835 61.2742 16.829 62.67 18.4435ZM27.0047 21.4193H34.1005L34.5604 25.0506C34.5604 25.0506 43.0358 15.3888 51.6427 25.0506C51.6427 25.0506 58.5413 33.4155 51.6427 43.7906C44.6647 51.6239 37.7731 46.7556 35.4145 44.6323V58.2509H27.0047V21.4193ZM16.2297 30.3678L8.78051 30.9357C3.92557 31.3057 0.242606 35.4654 0.463276 40.3294L0.522119 41.6265C0.607704 43.5129 1.60158 45.2411 3.18905 46.2639L4.41901 47.0563C5.06078 47.4698 5.7697 47.7682 6.51396 47.9383L7.41795 48.1448C10.5271 48.8551 13.772 47.7612 15.8165 45.3134L16.4925 44.5039L17.0838 47.6813H24.5738L24.1139 44.2445V31.1459C24.4153 25.7913 20.6458 23.2425 19.9002 22.7384C19.8332 22.693 19.7906 22.6642 19.7776 22.6514C17.7199 21.3362 15.3115 20.8517 12.9447 20.8194C7.37643 20.7434 2.03827 23.1702 2.03827 23.1702L3.6808 28.4874C5.45473 26.9311 10.3166 26.4123 10.3166 26.4123C15.9012 25.5046 16.2297 30.3678 16.2297 30.3678ZM63.3125 30.9357L70.7617 30.3678C70.7617 30.3678 70.4332 25.5046 64.8486 26.4123C64.8486 26.4123 59.9867 26.9311 58.2128 28.4874L56.5703 23.1702C56.5703 23.1702 61.9084 20.7434 67.4767 20.8194C69.8435 20.8517 72.2519 21.3362 74.3096 22.6514C74.3226 22.6642 74.3652 22.693 74.4322 22.7384C75.1778 23.2425 78.9473 25.7913 78.6459 31.146V44.2445L79.1058 47.6813H71.6158L71.0245 44.5039L70.3485 45.3134C68.304 47.7612 65.0591 48.8551 61.9499 48.1448L61.046 47.9383C60.3017 47.7682 59.5928 47.4698 58.951 47.0563L57.721 46.2639C56.1336 45.2411 55.1397 43.5129 55.0541 41.6265L54.9953 40.3294C54.7746 35.4654 58.4576 31.3058 63.3125 30.9357ZM120.826 30.3679L113.377 30.9357C108.522 31.3058 104.839 35.4654 105.06 40.3294L105.118 41.6265C105.204 43.5129 106.198 45.2412 107.785 46.2639L109.015 47.0563C109.657 47.4698 110.366 47.7683 111.11 47.9383L112.014 48.1448C115.123 48.8551 118.368 47.7612 120.413 45.3134L121.089 44.5039L121.68 47.6813H129.17L128.71 44.2445V31.146C128.729 30.8095 128.732 30.4841 128.721 30.1696C134.405 32.8724 142.368 30.9404 147.987 25.0475C154.612 18.0991 155.471 8.27505 149.905 3.10493C147.403 0.781694 144.03 -0.20649 140.473 0.0401245H123.268C121.956 -0.09495 120.441 0.376014 119.188 1.43188C117.09 3.19854 116.516 5.93367 117.905 7.54096C118.499 8.22716 119.354 8.59685 120.303 8.65774L120.301 8.66443L120.459 8.66497C120.533 8.66706 120.608 8.66732 120.683 8.66573L125.874 8.68346C125.348 9.41769 124.878 10.1717 124.464 10.9384H116.565C115.253 10.804 113.739 11.275 112.486 12.3304C110.389 14.097 109.814 16.8321 111.204 18.4394C111.797 19.1256 112.653 19.4953 113.601 19.5562L113.6 19.5627L113.777 19.5639C113.828 19.5652 113.879 19.5655 113.93 19.565L122.243 19.6224C122.258 20.3221 122.322 21.0103 122.437 21.6816C120.875 21.0861 119.198 20.842 117.541 20.8194C111.973 20.7434 106.635 23.1702 106.635 23.1702L108.277 28.4874C110.051 26.9312 114.913 26.4124 114.913 26.4124C120.498 25.5046 120.826 30.3679 120.826 30.3679ZM87.7126 21.3547H78.6459L88.8296 46.6441C87.1213 51.5074 81.1425 52.6746 81.1425 52.6746L83.1136 59.5481C93.7571 58.5754 98.4876 43.6612 98.4876 43.6612L106.635 21.3547H97.5021L93.0344 39.3166L87.7126 21.3547ZM67.4575 35.1662H70.6955V38.2889C70.6955 40.6111 68.813 42.4936 66.4908 42.4936H65.8874C64.2976 42.4936 63.0088 41.2048 63.0088 39.615C63.0088 37.158 65.0005 35.1662 67.4575 35.1662ZM120.628 35.1662H117.39C114.933 35.1662 112.942 37.158 112.942 39.615C112.942 41.2048 114.23 42.4936 115.82 42.4936H116.424C118.746 42.4936 120.628 40.6111 120.628 38.2889V35.1662ZM12.8599 35.1662H16.0979V38.2889C16.0979 40.6111 14.2154 42.4936 11.8932 42.4936H11.2898C9.69994 42.4936 8.41113 41.2048 8.41113 39.615C8.41113 37.158 10.4029 35.1662 12.8599 35.1662ZM74.6162 18.4401C75.294 19.224 76.3138 19.5949 77.4241 19.5641L91.1281 19.6279L91.1345 19.6046C92.3629 19.6294 93.7245 19.1518 94.8693 18.1878C96.9738 16.4154 97.5484 13.6698 96.1525 12.0554C95.421 11.2092 94.2933 10.8417 93.0827 10.9387H79.9739C78.6628 10.8053 77.1506 11.2764 75.8984 12.331C73.8006 14.0976 73.2266 16.8328 74.6162 18.4401ZM100.358 18.4435C101.754 20.0579 104.592 19.9299 106.696 18.1575C108.801 16.3852 109.375 13.6396 107.979 12.0251C106.584 10.4107 103.746 10.5387 101.642 12.3111C99.537 14.0835 98.9625 16.829 100.358 18.4435ZM35.2695 31.9531V37.9191C35.2695 39.657 41.0808 46.902 45.333 38.625C45.5033 38.2933 45.6342 37.9329 45.7335 37.5735L45.8077 37.3049C45.9212 36.8938 45.9945 36.4725 46.0264 36.0471L46.0715 35.4473C46.097 35.1069 46.096 34.765 46.0684 34.4248L46.0229 33.8635C45.9933 33.4984 45.9332 33.1363 45.8433 32.7811L45.7393 32.3706C45.6362 31.9635 45.4944 31.5576 45.3008 31.185C41.0516 23.0066 35.2695 30.2195 35.2695 31.9531Z" fill="#5C5C5C" fill-opacity="0.8"/>
</svg>
