<svg width="145" height="62" viewBox="0 0 145 62" fill="none" xmlns="http://www.w3.org/2000/svg">
<path d="M0.991245 48.6463C0.991245 47.5094 1.22257 46.518 1.68523 45.672C2.14789 44.8128 2.789 44.1519 3.60857 43.6892C4.42813 43.2133 5.36667 42.9754 6.42417 42.9754C7.78571 42.9754 8.90931 43.3191 9.79497 44.0065C10.6938 44.6806 11.2953 45.6324 11.5993 46.8617H8.60528C8.44665 46.3858 8.17566 46.0157 7.79232 45.7513C7.42219 45.4737 6.95953 45.3349 6.40434 45.3349C5.61122 45.3349 4.98332 45.6258 4.52067 46.2074C4.05801 46.7758 3.82668 47.5888 3.82668 48.6463C3.82668 49.6905 4.05801 50.5035 4.52067 51.0851C4.98332 51.6535 5.61122 51.9377 6.40434 51.9377C7.52794 51.9377 8.26159 51.4354 8.60528 50.4308H11.5993C11.2953 51.6205 10.6938 52.5656 9.79497 53.2662C8.89609 53.9668 7.77249 54.3171 6.42417 54.3171C5.36667 54.3171 4.42813 54.0858 3.60857 53.6231C2.789 53.1473 2.14789 52.4863 1.68523 51.6403C1.22257 50.7811 0.991245 49.7831 0.991245 48.6463ZM19.8194 42.9952C20.6521 42.9952 21.3924 43.1803 22.0401 43.5504C22.6878 43.9073 23.1902 44.4427 23.5471 45.1565C23.9172 45.8571 24.1023 46.7031 24.1023 47.6945V54.1387H21.3263V48.0712C21.3263 47.1988 21.1082 46.5313 20.672 46.0686C20.2358 45.5927 19.6409 45.3548 18.8874 45.3548C18.1207 45.3548 17.5127 45.5927 17.0632 46.0686C16.627 46.5313 16.4089 47.1988 16.4089 48.0712V54.1387H13.633V39.4658H16.4089V44.522C16.7658 44.0461 17.2417 43.676 17.8365 43.4116C18.4314 43.134 19.0923 42.9952 19.8194 42.9952ZM36.9536 48.4083C36.9536 48.8049 36.9271 49.1618 36.8743 49.479H28.8438C28.9099 50.2722 29.1875 50.8935 29.6766 51.3429C30.1657 51.7923 30.7672 52.0171 31.481 52.0171C32.512 52.0171 33.2457 51.5742 33.6819 50.6886H36.676C36.3587 51.7461 35.7507 52.6185 34.8518 53.3059C33.9529 53.98 32.8491 54.3171 31.5405 54.3171C30.483 54.3171 29.5312 54.0858 28.6852 53.6231C27.8524 53.1473 27.1981 52.4797 26.7222 51.6205C26.2596 50.7613 26.0282 49.7699 26.0282 48.6463C26.0282 47.5094 26.2596 46.5114 26.7222 45.6522C27.1849 44.793 27.8326 44.132 28.6654 43.6694C29.4982 43.2067 30.4565 42.9754 31.5405 42.9754C32.5848 42.9754 33.5167 43.2001 34.3362 43.6496C35.169 44.099 35.8101 44.7401 36.2596 45.5729C36.7222 46.3925 36.9536 47.3376 36.9536 48.4083ZM34.0785 47.6152C34.0653 46.9014 33.8075 46.333 33.3052 45.91C32.8029 45.4737 32.1882 45.2556 31.4612 45.2556C30.7738 45.2556 30.1921 45.4671 29.7163 45.8901C29.2536 46.2999 28.9694 46.8749 28.8637 47.6152H34.0785ZM38.2659 48.6463C38.2659 47.5094 38.4973 46.518 38.9599 45.672C39.4226 44.8128 40.0637 44.1519 40.8833 43.6892C41.7028 43.2133 42.6414 42.9754 43.6989 42.9754C45.0604 42.9754 46.184 43.3191 47.0697 44.0065C47.9685 44.6806 48.57 45.6324 48.874 46.8617H45.88C45.7213 46.3858 45.4504 46.0157 45.067 45.7513C44.6969 45.4737 44.2342 45.3349 43.679 45.3349C42.8859 45.3349 42.258 45.6258 41.7954 46.2074C41.3327 46.7758 41.1014 47.5888 41.1014 48.6463C41.1014 49.6905 41.3327 50.5035 41.7954 51.0851C42.258 51.6535 42.8859 51.9377 43.679 51.9377C44.8026 51.9377 45.5363 51.4354 45.88 50.4308H48.874C48.57 51.6205 47.9685 52.5656 47.0697 53.2662C46.1708 53.9668 45.0472 54.3171 43.6989 54.3171C42.6414 54.3171 41.7028 54.0858 40.8833 53.6231C40.0637 53.1473 39.4226 52.4863 38.9599 51.6403C38.4973 50.7811 38.2659 49.7831 38.2659 48.6463ZM57.4113 54.1387L53.6836 49.4592V54.1387H50.9077V39.4658H53.6836V47.8135L57.3717 43.1538H60.9804L56.1423 48.6661L61.02 54.1387H57.4113ZM67.3648 54.3171C66.3073 54.3171 65.3555 54.0858 64.5095 53.6231C63.6635 53.1473 62.9959 52.4797 62.5069 51.6205C62.031 50.7613 61.793 49.7699 61.793 48.6463C61.793 47.5227 62.0376 46.5313 62.5267 45.672C63.029 44.8128 63.7098 44.1519 64.569 43.6892C65.4282 43.2133 66.3866 42.9754 67.4441 42.9754C68.5016 42.9754 69.4599 43.2133 70.3192 43.6892C71.1784 44.1519 71.8525 44.8128 72.3416 45.672C72.844 46.5313 73.0951 47.5227 73.0951 48.6463C73.0951 49.7699 72.8373 50.7613 72.3218 51.6205C71.8195 52.4797 71.1321 53.1473 70.2597 53.6231C69.4005 54.0858 68.4355 54.3171 67.3648 54.3171ZM67.3648 51.8981C67.8671 51.8981 68.3363 51.7791 68.7726 51.5412C69.222 51.29 69.5789 50.9199 69.8433 50.4308C70.1077 49.9417 70.2399 49.3469 70.2399 48.6463C70.2399 47.602 69.9623 46.8022 69.4071 46.247C68.8651 45.6786 68.1975 45.3944 67.4044 45.3944C66.6113 45.3944 65.9437 45.6786 65.4018 46.247C64.873 46.8022 64.6086 47.602 64.6086 48.6463C64.6086 49.6905 64.8664 50.4969 65.3819 51.0653C65.9107 51.6205 66.5716 51.8981 67.3648 51.8981ZM85.5015 43.1538V54.1387H82.7057V52.7507C82.3488 53.2266 81.8796 53.6033 81.2979 53.8809C80.7295 54.1453 80.1083 54.2775 79.4341 54.2775C78.5749 54.2775 77.8148 54.099 77.1539 53.7421C76.4929 53.372 75.9708 52.8366 75.5874 52.136C75.2173 51.4222 75.0322 50.5762 75.0322 49.598V43.1538H77.8082V49.2014C77.8082 50.0739 78.0263 50.748 78.4625 51.2239C78.8987 51.6866 79.4936 51.9179 80.2471 51.9179C81.0137 51.9179 81.6152 51.6866 82.0514 51.2239C82.4876 50.748 82.7057 50.0739 82.7057 49.2014V43.1538H85.5015ZM91.4725 45.4341V50.748C91.4725 51.1182 91.5584 51.3892 91.7302 51.561C91.9153 51.7196 92.2193 51.7989 92.6423 51.7989H93.9311V54.1387H92.1863C89.8465 54.1387 88.6767 53.0019 88.6767 50.7282V45.4341H87.368V43.1538H88.6767V40.4374H91.4725V43.1538H93.9311V45.4341H91.4725ZM97.1571 54.2775C96.6548 54.2775 96.2384 54.1255 95.9079 53.8214C95.5907 53.5042 95.432 53.1142 95.432 52.6516C95.432 52.1889 95.5907 51.8056 95.9079 51.5015C96.2384 51.1843 96.6548 51.0256 97.1571 51.0256C97.6462 51.0256 98.0494 51.1843 98.3666 51.5015C98.6839 51.8056 98.8425 52.1889 98.8425 52.6516C98.8425 53.1142 98.6839 53.5042 98.3666 53.8214C98.0494 54.1255 97.6462 54.2775 97.1571 54.2775ZM100.662 48.7256C100.662 47.602 100.887 46.6238 101.336 45.791C101.786 44.945 102.407 44.2973 103.2 43.8478C103.993 43.3852 104.899 43.1538 105.917 43.1538C107.252 43.1538 108.349 43.4843 109.208 44.1453C110.08 44.8062 110.642 45.7051 110.893 46.8419H109.406C109.221 46.062 108.818 45.4539 108.197 45.0177C107.589 44.5683 106.829 44.3435 105.917 44.3435C105.189 44.3435 104.535 44.5088 103.954 44.8392C103.372 45.1697 102.909 45.6654 102.566 46.3264C102.235 46.9741 102.07 47.7738 102.07 48.7256C102.07 49.6773 102.235 50.4837 102.566 51.1446C102.909 51.8056 103.372 52.3013 103.954 52.6317C104.535 52.9622 105.189 53.1274 105.917 53.1274C106.829 53.1274 107.589 52.9093 108.197 52.4731C108.818 52.0237 109.221 51.4024 109.406 50.6093H110.893C110.642 51.7196 110.08 52.6119 109.208 53.2861C108.336 53.9602 107.238 54.2973 105.917 54.2973C104.899 54.2973 103.993 54.0726 103.2 53.6231C102.407 53.1605 101.786 52.5128 101.336 51.68C100.887 50.834 100.662 49.8492 100.662 48.7256ZM118.196 54.2973C117.178 54.2973 116.259 54.0726 115.44 53.6231C114.633 53.1605 113.992 52.5128 113.516 51.68C113.054 50.834 112.822 49.8492 112.822 48.7256C112.822 47.602 113.06 46.6238 113.536 45.791C114.012 44.945 114.66 44.2973 115.479 43.8478C116.299 43.3852 117.218 43.1538 118.235 43.1538C119.253 43.1538 120.172 43.3852 120.992 43.8478C121.824 44.2973 122.472 44.945 122.935 45.791C123.411 46.6238 123.649 47.602 123.649 48.7256C123.649 49.836 123.411 50.8141 122.935 51.6601C122.459 52.5061 121.804 53.1605 120.972 53.6231C120.139 54.0726 119.214 54.2973 118.196 54.2973ZM118.196 53.0878C118.91 53.0878 119.571 52.9292 120.179 52.6119C120.787 52.2814 121.276 51.7923 121.646 51.1446C122.029 50.4837 122.221 49.6773 122.221 48.7256C122.221 47.7738 122.036 46.9741 121.666 46.3264C121.296 45.6654 120.806 45.1763 120.198 44.8591C119.59 44.5286 118.929 44.3634 118.216 44.3634C117.502 44.3634 116.841 44.5286 116.233 44.8591C115.625 45.1763 115.136 45.6654 114.765 46.3264C114.409 46.9741 114.23 47.7738 114.23 48.7256C114.23 49.6773 114.409 50.4837 114.765 51.1446C115.136 51.7923 115.618 52.2814 116.213 52.6119C116.821 52.9292 117.482 53.0878 118.196 53.0878ZM139.067 43.1142C140.336 43.1142 141.367 43.5174 142.16 44.3237C142.966 45.1168 143.37 46.2735 143.37 47.7936V54.1387H142.002V47.9523C142.002 46.7758 141.717 45.8769 141.149 45.2556C140.581 44.6344 139.807 44.3237 138.829 44.3237C137.811 44.3237 136.998 44.6608 136.39 45.3349C135.782 46.0091 135.478 46.9873 135.478 48.2695V54.1387H134.11V47.9523C134.11 46.7758 133.826 45.8769 133.257 45.2556C132.689 44.6344 131.909 44.3237 130.918 44.3237C129.9 44.3237 129.087 44.6608 128.479 45.3349C127.871 46.0091 127.567 46.9873 127.567 48.2695V54.1387H126.179V43.3125H127.567V45.1763C127.91 44.5022 128.399 43.9932 129.034 43.6496C129.668 43.2926 130.376 43.1142 131.155 43.1142C132.094 43.1142 132.914 43.3389 133.614 43.7883C134.328 44.2378 134.844 44.8987 135.161 45.7712C135.452 44.9119 135.947 44.2576 136.648 43.8082C137.362 43.3455 138.168 43.1142 139.067 43.1142Z" fill="#5C5C5C" fill-opacity="0.8"/>
<path d="M68.6171 2H85.8356C85.5828 2.50231 74.2513 22.3018 68.6171 32.1387M68.6171 2L59.455 17.0693L68.6171 32.1387M68.6171 2L85.8356 32.1387H68.6171" stroke="#5C5C5C" stroke-opacity="0.8" stroke-width="2.54271"/>
</svg>
