<svg width="179" height="60" viewBox="0 0 179 60" fill="none" xmlns="http://www.w3.org/2000/svg">
<path fill-rule="evenodd" clip-rule="evenodd" d="M0.336914 8.41637V0H38.2106V8.41637H17.6957C17.1146 8.41637 16.6436 8.88739 16.6436 9.46842V22.882H27.4271V30.2463H16.6436V52.3393H6.9122V8.41637H0.336914ZM38.2106 13.9396H32.4243V45.238H41.3667V24.9861C41.3667 22.662 43.2508 20.7779 45.5749 20.7779H47.679V25.7751H56.8844V16.0437H38.2106V13.9396ZM79.7664 46.027H64.7747C61.8696 46.027 59.5145 43.6719 59.5145 40.7668V19.9889C59.5145 17.0837 61.8696 14.7286 64.7747 14.7286H79.7664C82.6716 14.7286 85.0266 17.0837 85.0266 19.9889V33.1395H68.4569V40.5038C68.4569 41.0848 68.9279 41.5558 69.509 41.5558H74.5062C75.0872 41.5558 75.5582 41.0848 75.5582 40.5038V36.0326H85.0266V40.7668C85.0266 43.6719 82.6716 46.027 79.7664 46.027ZM93.706 46.027H108.698C111.603 46.027 113.958 43.6719 113.958 40.7668V36.0326H104.489V40.5038C104.489 41.0848 104.018 41.5558 103.437 41.5558H98.4402C97.8592 41.5558 97.3882 41.0848 97.3882 40.5038V33.1395H113.958V19.9889C113.958 17.0837 111.603 14.7286 108.698 14.7286H93.706C90.8009 14.7286 88.4458 17.0837 88.4458 19.9889V40.7668C88.4458 43.6719 90.8009 46.027 93.706 46.027ZM145.782 14.7286V20.5149H143.415V54.1804C143.415 57.0855 141.06 59.4406 138.155 59.4406H122.9C119.995 59.4406 117.64 57.0855 117.64 54.1804V48.3941H126.582V53.6544C126.582 54.2354 127.053 54.7064 127.635 54.7064H132.895C133.476 54.7064 133.947 54.2354 133.947 53.6544V46.027H122.9C119.995 46.027 117.64 43.6719 117.64 40.7668V19.9889C117.64 17.0837 119.995 14.7286 122.9 14.7286H145.782ZM162.28 16.5733L165.508 7.62734L164.35 16.6641C172.249 17.5277 178.396 24.2212 178.396 32.3505C178.396 41.066 171.331 48.1312 162.615 48.1312C162.432 48.1312 162.25 48.1281 162.068 48.1219L158.933 56.8105L160.168 47.9426C152.615 46.7665 146.834 40.2335 146.834 32.3505C146.834 23.747 153.719 16.7515 162.28 16.5733ZM160.184 22.3829C155.692 23.4746 152.358 27.5231 152.358 32.3505C152.358 37.4415 156.067 41.6662 160.93 42.4702L161.826 36.0326L156.303 33.1395L160.184 22.3829ZM164.096 42.5019C169.059 41.7843 172.873 37.5127 172.873 32.3505C172.873 27.0338 168.828 22.6618 163.647 22.1443L162.878 28.1422L168.138 31.2984L164.096 42.5019ZM69.5091 19.989H74.5063C75.0873 19.989 75.5584 20.46 75.5584 21.041V28.4054C75.5584 28.9864 75.0873 29.4574 74.5063 29.4574H69.5091C68.9281 29.4574 68.4571 28.9864 68.4571 28.4054V21.041C68.4571 20.46 68.9281 19.989 69.5091 19.989ZM98.4404 19.989H103.438C104.019 19.989 104.49 20.46 104.49 21.041V28.4054C104.49 28.9864 104.019 29.4574 103.438 29.4574H98.4404C97.8593 29.4574 97.3883 28.9864 97.3883 28.4054V21.041C97.3883 20.46 97.8593 19.989 98.4404 19.989ZM127.635 19.989H132.895C133.476 19.989 133.947 20.46 133.947 21.041V40.5039C133.947 41.0849 133.476 41.5559 132.895 41.5559H127.635C127.054 41.5559 126.583 41.0849 126.583 40.5039V21.041C126.583 20.46 127.054 19.989 127.635 19.989Z" fill="#5C5C5C" fill-opacity="0.8"/>
</svg>
