<svg width="166" height="61" viewBox="0 0 166 61" fill="none" xmlns="http://www.w3.org/2000/svg">
<path fill-rule="evenodd" clip-rule="evenodd" d="M165.979 4.86983C165.979 7.55936 163.799 9.73965 161.11 9.73965C158.42 9.73965 156.24 7.55936 156.24 4.86983C156.24 2.1803 158.42 0 161.11 0C163.799 0 165.979 2.1803 165.979 4.86983ZM159.405 4.86983C159.405 5.81116 160.168 6.57426 161.11 6.57426C162.051 6.57426 162.814 5.81116 162.814 4.86983C162.814 3.92849 162.051 3.16539 161.11 3.16539C160.168 3.16539 159.405 3.92849 159.405 4.86983ZM84.4243 37.3361V24.8901C84.4243 20.4075 80.7156 16.7737 76.2331 16.7737C71.7505 16.7737 68.0419 20.4075 68.0419 24.8901V47.8865H60.1961L60.5253 24.6752C60.6428 16.3924 67.3907 9.73951 75.6744 9.73951H76.2653C80.9999 9.73951 85.23 11.9121 88.0091 15.3173C90.7891 11.911 95.0204 9.73952 99.7529 9.73952H100.344C108.669 9.73952 115.435 16.4573 115.494 24.7826L115.658 47.8865H108.503V24.8901C108.503 20.4075 104.794 16.7737 100.312 16.7737C95.8291 16.7737 92.1205 20.4075 92.1205 24.8901V47.8865L91.5794 47.8865H84.4243L84.2746 47.8865L84.4243 37.3361ZM152.993 47.8865V24.8901C152.993 16.5227 146.21 9.73952 137.843 9.73952H135.678C127.311 9.73952 120.528 16.5227 120.528 24.8901V47.8865H127.832V25.7017C127.832 21.2192 131.466 17.5853 135.949 17.5853H137.031C141.514 17.5853 145.147 21.2192 145.147 25.7017V47.8865H152.993ZM164.897 47.8865V11.9039H157.051V47.8865H164.897ZM120.528 49.7803H127.832V50.3962C127.832 55.734 123.505 60.061 118.168 60.061C112.83 60.061 108.503 55.734 108.503 50.3962V49.7803H115.658C115.658 50.9757 116.627 51.9447 117.822 51.9447H118.363C119.559 51.9447 120.528 50.9757 120.528 49.7803ZM55.0557 29.2189C55.0557 32.0205 54.6299 34.7227 53.8394 37.2641L53.8171 37.3353L40.1757 37.7765C41.8802 35.356 42.8811 32.4044 42.8811 29.2189L53.1434 19.2087C54.3773 22.305 55.0557 25.6827 55.0557 29.2189ZM38.2141 40.0408H52.8045C50.3868 45.5743 46.1716 50.1428 40.8969 53.0082C40.837 53.0407 40.777 53.073 40.7168 53.1052L31.2477 43.7437C33.9084 43.1516 36.3007 41.8471 38.2141 40.0408ZM28.0011 44.0989L38.0113 54.3613C34.9151 55.5951 31.5373 56.2735 28.0011 56.2735C25.1037 56.2735 22.3127 55.8181 19.6957 54.9748V41.5672L19.6898 41.5632C22.063 43.1643 24.9229 44.0989 28.0011 44.0989ZM17.1793 39.4319V54.0223C11.6457 51.6046 7.07724 47.3894 4.21188 42.1147C4.11341 41.9335 4.01695 41.751 3.92254 41.5672C6.628 38.894 12.3149 33.2771 13.4188 32.1949C13.408 32.142 13.3975 32.0889 13.3873 32.0357C13.9301 34.8686 15.2762 37.416 17.1793 39.4319ZM0.946533 29.2189C0.946533 32.6524 1.58613 35.9365 2.75267 38.9586C5.93827 35.9826 12.4728 29.9452 13.126 29.6038C13.1227 29.4759 13.1211 29.3476 13.1211 29.2189C13.1211 26.2059 14.0166 23.4021 15.556 21.059H2.19882L2.18768 21.0943C2.13297 21.2683 2.07998 21.4431 2.02872 21.6185C2.00986 21.6831 1.99125 21.7477 1.97287 21.8124C1.30436 24.1662 0.946533 26.6508 0.946533 29.2189ZM25.2957 14.5843C22.2569 15.1424 19.5411 16.6238 17.4498 18.7268H3.05628C5.44899 13.045 9.72624 8.35176 15.1053 5.42968C15.2547 5.34852 15.4049 5.26873 15.556 5.19033L25.2957 14.5843ZM36.1175 16.7453C33.7833 15.2234 30.9955 14.3389 28.0011 14.3389L17.8354 4.13911C20.974 2.86571 24.4056 2.16434 28.0011 2.16434C30.8027 2.16434 33.5049 2.59017 36.0463 3.38066L36.1175 3.4029V16.7453ZM38.5524 18.7268V4.29907C44.2076 6.6965 48.8784 10.9627 51.7904 16.3231C51.8664 16.4631 51.9413 16.6038 52.0149 16.7453C51.201 17.6339 45.3498 23.2669 42.5259 25.9724C41.9047 23.1806 40.4991 20.6844 38.5524 18.7268Z" fill="#5C5C5C" fill-opacity="0.8"/>
</svg>
