<svg width="165" height="59" viewBox="0 0 165 59" fill="none" xmlns="http://www.w3.org/2000/svg">
<path fill-rule="evenodd" clip-rule="evenodd" d="M29.6475 11.2395L38.6324 1.38102C35.823 0.484113 32.8291 0 29.7221 0C13.5577 0 0.453857 13.1039 0.453857 29.2683C0.453857 45.4327 13.5577 58.5365 29.7221 58.5365C45.8865 58.5365 58.9904 45.4327 58.9904 29.2683C58.9904 21.2618 55.7755 14.0062 50.5663 8.7219L43.0754 17.2984C45.9824 20.5329 47.7512 24.811 47.7512 29.5022C47.7512 39.5888 39.5744 47.7656 29.4878 47.7656C19.4012 47.7656 11.2244 39.5888 11.2244 29.5022C11.2244 19.4156 19.4012 11.2388 29.4878 11.2388C29.5411 11.2388 29.5943 11.239 29.6475 11.2395ZM37.9172 20.6049H24.3368L41.1953 2.10739H54.0733L37.9172 20.6049ZM100.424 28.736C103.532 29.3156 106.088 30.8699 108.09 33.3989C110.092 35.9279 111.093 38.8258 111.093 42.0924C111.093 45.043 110.355 47.651 108.88 49.9166C107.457 52.1295 105.376 53.8683 102.636 55.1328C99.8967 56.3973 96.6564 57.0295 92.9155 57.0295H69.1268V1.86501H91.8881C95.629 1.86501 98.8429 2.47093 101.53 3.68276C104.27 4.89458 106.325 6.58061 107.695 8.74082C109.117 10.901 109.828 13.351 109.828 16.0908C109.828 19.3048 108.959 21.9919 107.22 24.1521C105.534 26.3123 103.269 27.8403 100.424 28.736ZM80.1913 24.6263H90.3075C92.9419 24.6263 94.9704 24.0467 96.3929 22.8876C97.8155 21.6758 98.5268 19.9634 98.5268 17.7505C98.5268 15.5376 97.8155 13.8252 96.3929 12.6134C94.9704 11.4016 92.9419 10.7957 90.3075 10.7957H80.1913V24.6263ZM91.3349 48.0199C94.022 48.0199 96.1032 47.3876 97.5784 46.1231C99.1064 44.8586 99.8704 43.0672 99.8704 40.7489C99.8704 38.3779 99.08 36.5338 97.4994 35.2166C95.9188 33.8467 93.7849 33.1618 91.0978 33.1618H80.1913V48.0199H91.3349ZM154.277 28.736C157.386 29.3156 159.941 30.8699 161.943 33.3989C163.945 35.9279 164.946 38.8258 164.946 42.0924C164.946 45.043 164.209 47.651 162.734 49.9166C161.311 52.1295 159.23 53.8683 156.49 55.1328C153.75 56.3973 150.51 57.0295 146.769 57.0295H122.98V1.86501H145.742C149.482 1.86501 152.696 2.47093 155.384 3.68276C158.123 4.89458 160.178 6.58061 161.548 8.74082C162.971 10.901 163.682 13.351 163.682 16.0908C163.682 19.3048 162.813 21.9919 161.074 24.1521C159.388 26.3123 157.122 27.8403 154.277 28.736ZM134.045 24.6263H144.161C146.795 24.6263 148.824 24.0467 150.246 22.8876C151.669 21.6758 152.38 19.9634 152.38 17.7505C152.38 15.5376 151.669 13.8252 150.246 12.6134C148.824 11.4016 146.795 10.7957 144.161 10.7957H134.045V24.6263ZM145.188 48.0199C147.875 48.0199 149.957 47.3876 151.432 46.1231C152.96 44.8586 153.724 43.0672 153.724 40.7489C153.724 38.3779 152.934 36.5338 151.353 35.2166C149.772 33.8467 147.638 33.1618 144.951 33.1618H134.045V48.0199H145.188Z" fill="#5C5C5C" fill-opacity="0.8"/>
</svg>
