<svg width="166" height="49" viewBox="0 0 166 49" fill="none" xmlns="http://www.w3.org/2000/svg">
<path fill-rule="evenodd" clip-rule="evenodd" d="M63.5164 4.68997C64.1354 2.82128 63.1236 0.803999 61.2551 0.183022C59.3854 -0.438333 57.3661 0.573611 56.7447 2.44326L60.13 3.56832C56.7447 2.44326 56.7443 2.44441 56.7439 2.44563L56.743 2.44843L56.7407 2.45531L56.7345 2.47419L56.7157 2.53223C56.7005 2.57989 56.6797 2.64541 56.6541 2.72833C56.6028 2.89414 56.532 3.12961 56.4462 3.43099C56.2747 4.03362 56.0431 4.90063 55.7882 6.00199C55.2786 8.2033 54.674 11.3494 54.2716 15.1987C53.4681 22.8847 53.4623 33.4577 56.6964 44.9317C57.231 46.828 59.2015 47.9319 61.0978 47.3974C62.9941 46.8629 64.0981 44.8923 63.5636 42.996C60.6368 32.6126 60.6309 22.9879 61.3677 15.9405C61.7354 12.423 62.286 9.56852 62.7391 7.61088C62.9655 6.63277 63.1671 5.88072 63.3084 5.38416C63.379 5.13595 63.4346 4.95179 63.4706 4.83538C63.4886 4.77718 63.5016 4.73594 63.5093 4.71211L63.5153 4.69339L60.16 3.57829C63.5153 4.69338 63.5156 4.69238 63.516 4.69144L63.5164 4.68997ZM101.818 8.35076C103.727 7.8699 104.886 5.93253 104.406 4.0224C103.926 2.11156 101.988 0.951579 100.077 1.43152C99.5027 1.57585 98.743 1.90812 98.1758 2.16115C97.4793 2.47196 96.594 2.88692 95.5755 3.376C93.5339 4.35636 90.8765 5.67318 87.9586 7.13879C82.1186 10.0722 75.1774 13.6307 69.9065 16.3534C67.0217 17.8436 65.2265 20.8149 65.2265 24.0474C65.2265 27.2733 67.0177 30.2324 69.8757 31.7283L99.2921 47.1245C101.038 48.0381 103.193 47.3636 104.107 45.6181C105.021 43.8725 104.346 41.7168 102.601 40.8032L73.1842 25.407C72.6783 25.1422 72.3613 24.6184 72.3613 24.0474C72.3613 23.4691 72.6799 22.9512 73.1809 22.6924C78.4404 19.9756 85.355 16.4307 91.161 13.5144C94.0662 12.0552 96.6794 10.7606 98.6639 9.80764C99.6584 9.33007 100.475 8.94792 101.083 8.67672C101.463 8.5071 101.686 8.41574 101.793 8.37226C101.846 8.35046 101.87 8.3407 101.869 8.33914C101.869 8.33788 101.852 8.34203 101.822 8.34954L101.818 8.35076ZM165.931 4.89141C165.931 2.92122 164.334 1.32406 162.363 1.32406C160.393 1.32406 158.796 2.92122 158.796 4.89141V43.9638C158.796 45.934 160.393 47.5312 162.363 47.5312C164.334 47.5312 165.931 45.934 165.931 43.9638V4.89141ZM130.208 10.6117C130.362 10.2448 130.721 10.0062 131.119 10.0062C131.508 10.0062 131.861 10.2339 132.021 10.5883L147.753 45.4318C148.564 47.2275 150.676 48.0259 152.472 47.2152C154.268 46.4044 155.066 44.2915 154.255 42.4959L138.523 7.65232C137.21 4.74207 134.313 2.87148 131.119 2.87148C127.85 2.87148 124.899 4.83136 123.631 7.84492L109.017 42.5804C108.253 44.3965 109.106 46.488 110.922 47.252C112.738 48.0161 114.83 47.1633 115.594 45.3472L130.208 10.6117ZM24.2767 48.9805C37.7131 48.9805 48.5534 38.0457 48.5534 24.6212C48.5534 11.1968 37.7131 0.261919 24.2767 0.261919C10.8403 0.261919 0 11.1968 0 24.6212C0 38.0457 10.8403 48.9805 24.2767 48.9805ZM41.9894 24.6212C41.9894 34.4493 34.0592 42.4166 24.2767 42.4166C14.4942 42.4166 6.56394 34.4493 6.56394 24.6212C6.56394 14.7931 14.4942 6.82586 24.2767 6.82586C34.0592 6.82586 41.9894 14.7931 41.9894 24.6212Z" fill="#5C5C5C" fill-opacity="0.8"/>
</svg>
