<svg width="178" height="65" viewBox="0 0 178 65" fill="none" xmlns="http://www.w3.org/2000/svg">
<path d="M4.23197 62.548V40.4078C4.23197 40.1526 4.3458 39.9107 4.54245 39.748L9.06323 36.0082C9.25987 35.8456 9.3737 35.6037 9.3737 35.3485V25.4583C9.3737 25.2396 9.29008 25.0293 9.13996 24.8703L3.18027 18.5598C3.03016 18.4009 2.94653 18.1905 2.94653 17.9719V3.85627C2.94653 3.38337 3.3299 3 3.8028 3H17.944C18.4169 3 18.8002 3.38337 18.8002 3.85627V17.4561C18.8002 17.929 19.1836 18.3123 19.6565 18.3123H27.3705C27.8434 18.3123 28.2267 17.929 28.2267 17.4561V10.2364C28.2267 9.76351 28.6101 9.38014 29.083 9.38014H33.797H38.5109C38.9838 9.38014 39.3672 9.76351 39.3672 10.2364V17.4561C39.3672 17.929 39.7505 18.3123 40.2234 18.3123H47.9374C48.4103 18.3123 48.7937 17.929 48.7937 17.4561V3.85627C48.7937 3.38337 49.1771 3 49.65 3H63.7911C64.264 3 64.6474 3.38337 64.6474 3.85627V17.9719C64.6474 18.1905 64.5637 18.4009 64.4136 18.5598L58.4539 24.8703C58.3038 25.0293 58.2202 25.2396 58.2202 25.4583V30.2219" stroke="#5C5C5C" stroke-opacity="0.8" stroke-width="4.28136" stroke-linecap="round"/>
<path d="M19.1175 39.7383V63.8228H23.1373V53.8078H27.9888C30.276 53.8078 32.1473 53.1494 33.6374 51.8325C35.1275 50.5157 35.8553 48.8176 35.8553 46.7731C35.8553 44.6938 35.0929 42.9958 33.5681 41.6789C32.0433 40.3621 30.172 39.7037 27.9888 39.7037L19.1175 39.7383ZM23.1373 43.5156H27.9888C30.4839 43.5156 31.7315 44.5899 31.7315 46.7384C31.7315 47.778 31.3849 48.5751 30.7265 49.1295C30.0681 49.684 29.1324 49.9612 27.9542 49.9612H23.1026L23.1373 43.5156ZM53.288 58.5207L55.5752 63.8228H59.9069L48.5058 39.0453L37.0007 63.8228H41.3325L43.6543 58.5207H53.288ZM51.7286 54.8474H45.2483L48.5058 47.3622L51.7286 54.8474ZM70.997 53.0454L79.4525 39.7383H74.9475L68.987 49.6493L63.0266 39.7383H58.5216L66.9771 53.0454V63.8228H70.997V53.0454ZM97.6853 39.4958V44.2433H87.7743V49.3721H95.1902V53.9811H87.7743V63.8228H81.8485V39.4958H97.6853ZM112.305 64.0653C110.018 64.0653 107.915 63.534 105.998 62.4713C104.103 61.4085 102.59 59.93 101.458 58.0356C100.349 56.1181 99.7948 53.9695 99.7948 51.5899C99.7948 49.2104 100.349 47.0734 101.458 45.179C102.59 43.2846 104.103 41.806 105.998 40.7433C107.915 39.6806 110.018 39.1492 112.305 39.1492C114.592 39.1492 116.683 39.6806 118.577 40.7433C120.495 41.806 121.996 43.2846 123.082 45.179C124.191 47.0734 124.746 49.2104 124.746 51.5899C124.746 53.9695 124.191 56.1181 123.082 58.0356C121.973 59.93 120.472 61.4085 118.577 62.4713C116.683 63.534 114.592 64.0653 112.305 64.0653ZM112.305 58.6593C114.245 58.6593 115.793 58.0125 116.948 56.7187C118.127 55.425 118.716 53.7154 118.716 51.5899C118.716 49.4414 118.127 47.7318 116.948 46.4612C115.793 45.1674 114.245 44.5206 112.305 44.5206C110.341 44.5206 108.77 45.1559 107.592 46.4265C106.437 47.6972 105.859 49.4183 105.859 51.5899C105.859 53.7385 106.437 55.4596 107.592 56.7534C108.77 58.024 110.341 58.6593 112.305 58.6593ZM140.448 63.8228L135.389 54.6395H133.968V63.8228H128.042V39.4958H137.988C139.905 39.4958 141.534 39.8307 142.874 40.5007C144.237 41.1707 145.254 42.0948 145.924 43.273C146.594 44.4282 146.929 45.7219 146.929 47.1543C146.929 48.7714 146.467 50.2153 145.543 51.486C144.642 52.7566 143.302 53.6576 141.523 54.189L147.137 63.8228H140.448ZM133.968 50.4464H137.641C138.727 50.4464 139.536 50.1807 140.067 49.6493C140.622 49.118 140.899 48.3671 140.899 47.3968C140.899 46.4727 140.622 45.745 140.067 45.2136C139.536 44.6823 138.727 44.4166 137.641 44.4166H133.968V50.4464ZM168.149 39.4958V44.2433H161.703V63.8228H155.777V44.2433H149.332V39.4958H168.149Z" fill="#5C5C5C" fill-opacity="0.8"/>
<path d="M172.757 40.8595V44.4302H173.343V42.9454H174.016L174.781 44.4302H175.459L174.663 42.9043C174.853 42.8324 175.017 42.7091 175.156 42.5293C175.295 42.3494 175.362 42.1439 175.362 41.9076C175.362 41.5891 175.249 41.3373 175.023 41.1472C174.797 40.9571 174.509 40.8647 174.154 40.8647L172.757 40.8595ZM173.337 41.4298H174.154C174.35 41.4298 174.499 41.476 174.606 41.5634C174.714 41.6507 174.766 41.7689 174.766 41.9127C174.766 42.0669 174.714 42.185 174.612 42.2672C174.509 42.3494 174.36 42.3905 174.165 42.3905H173.332L173.337 41.4298Z" fill="#5C5C5C" fill-opacity="0.8"/>
<path d="M177.037 42.9823C177.037 44.694 175.639 46.0854 173.909 46.0854C172.179 46.0854 170.781 44.694 170.781 42.9823C170.781 41.2706 172.179 39.8793 173.909 39.8793C175.639 39.8793 177.037 41.2706 177.037 42.9823Z" stroke="#5C5C5C" stroke-opacity="0.8" stroke-width="0.59939"/>
</svg>
