<svg width="107" height="107" viewBox="0 0 107 107" fill="none" xmlns="http://www.w3.org/2000/svg">
<path d="M98.3121 84.0786L61.7309 105.442L60.9992 105.625L60.2676 105.534L0.274359 70.5087L0 69.7752L37.3129 49.0537L44.5377 2.2012L44.9949 2.01782L45.4522 2.10951L105.72 37.226L106.086 37.7761V38.3263L98.3121 84.0786Z" fill="#24126A"/>
<path d="M61.2743 104.615L97.3983 83.6189L37.8623 49.2359L0.549438 69.8657L0.732345 70.1408L60.1769 104.432L60.7256 104.615H61.2743Z" fill="url(#paint0_linear_1106_3980)"/>
<path d="M105.446 38.05L97.7641 82.7938L38.3196 48.5941L45.0871 2.75014L45.3615 2.65845L105.263 37.5916L105.446 38.05Z" fill="url(#paint1_linear_1106_3980)"/>
<path d="M106.543 36.3085L45.91 1.10034L45.5442 1.19203L44.5382 1.92553L44.9955 1.74216L45.4527 1.83385L105.72 36.9503L106.086 37.5005L106.909 36.9503L106.543 36.3085Z" fill="#D3D2F9"/>
<path d="M106.909 36.95C106.695 37.1028 106.232 37.4267 106.086 37.5001V38.0502L98.3121 83.8025L99.3181 84.0776L107 37.7751L106.909 36.95Z" fill="#6F77E0"/>
<path d="M61.6394 106.359L98.3121 84.7202V83.7117L61.8223 104.983L60.9992 105.167L60.1762 105.075L0.274359 70.2335L0 69.7751V71.3338C23.4645 85.0835 36.5287 92.7006 59.9933 106.45L60.9078 106.542L61.6394 106.359Z" fill="white"/>
<path d="M61.6394 106.817L98.3121 85.1784V84.1699L61.8223 105.441L60.9992 105.625L60.1762 105.533L0.182906 70.5084L0 70.1416V71.5169L0.182906 71.8837C23.6474 85.6333 36.5287 93.1588 59.9933 106.908L60.9078 107L61.6394 106.817Z" fill="#6C74DF"/>
<ellipse cx="51.0317" cy="79.4943" rx="21.2171" ry="12.1945" fill="#352A7D"/>
<ellipse cx="51.306" cy="79.2187" rx="17.1017" ry="9.9023" fill="#241F6E"/>
<ellipse cx="51.3973" cy="79.1272" rx="13.718" ry="7.6101" fill="#1F2069"/>
<path d="M21.3579 61.9225L21.9776 63.2096C22.1373 63.5413 22.4096 63.8056 22.7459 63.9555C22.9451 64.0442 23.1608 64.0901 23.3789 64.0901H23.51C23.8672 64.0901 24.2189 64.002 24.5339 63.8336L24.9905 63.5894C25.2798 63.4347 25.5501 63.247 25.796 63.03L26.9024 62.0539C27.4407 61.579 27.927 61.0481 28.353 60.4702L28.8885 59.7439C29.1402 59.4025 29.3585 59.0378 29.5405 58.6546L29.7493 58.215C30.0338 57.616 30.1814 56.9611 30.1814 56.298C30.1814 55.5744 30.0057 54.8617 29.6694 54.221L29.5378 53.9704C29.3585 53.6289 29.1217 53.3209 28.8377 53.0599C28.4001 52.6577 27.8634 52.379 27.2826 52.2525L26.94 52.1778C26.3626 52.052 25.7666 52.0373 25.1837 52.1347L24.5076 52.2477C23.7347 52.3768 23.0172 52.7314 22.445 53.2668C22.1178 53.573 21.8446 53.9323 21.6371 54.3295L21.4797 54.6307C21.1263 55.3072 20.9057 56.0451 20.83 56.8046L20.7647 57.4589C20.7019 58.0883 20.703 58.7225 20.7679 59.3517L20.8469 60.117C20.9116 60.7439 21.0845 61.3548 21.3579 61.9225Z" fill="url(#paint2_linear_1106_3980)"/>
<path d="M34.4373 49.0928L34.501 49.1076C35.3874 49.3126 36.3109 49.2944 37.1885 49.0544C37.6366 48.9319 38.0674 48.753 38.4705 48.522L38.5398 48.4824C38.9411 48.2524 39.315 47.9778 39.6519 47.6609C40.1091 47.2308 40.6476 46.7203 40.6984 46.6694C40.7466 46.6211 40.9296 46.0267 41.1535 45.4519C41.3658 44.9066 41.6064 44.3686 41.7741 43.808L41.8641 43.5074C42.0008 43.0506 42.0702 42.5762 42.0702 42.0993V42.0439C42.0702 41.6452 42.0172 41.2482 41.9125 40.8635C41.835 40.5782 41.7294 40.3014 41.5975 40.0368L41.5106 39.8626C41.2749 39.39 40.9821 38.9479 40.6389 38.5465L40.4819 38.3629C40.2003 38.0334 39.8846 37.7347 39.5402 37.4715L39.4139 37.3751C38.58 36.7381 37.5837 36.3482 36.5389 36.25C35.666 36.168 34.7861 36.2921 33.9699 36.6122L33.7645 36.6928C33.328 36.8641 32.9112 37.0818 32.5214 37.3424L32.2906 37.4966C31.5634 37.9827 30.948 38.618 30.4853 39.3602C30.0434 40.0691 29.7502 40.8603 29.6235 41.6859L29.5961 41.8644C29.4991 42.4967 29.4991 43.1402 29.5961 43.7725C29.7405 44.7135 30.0966 45.6094 30.6375 46.3927L30.7292 46.5254C31.2126 47.2256 31.8312 47.822 32.5485 48.2796L32.6398 48.3379C33.1916 48.69 33.7995 48.9453 34.4373 49.0928Z" fill="url(#paint3_linear_1106_3980)"/>
<path d="M39.1247 42.5728C39.7879 41.9273 40.5419 41.22 40.6983 41.1677L46.0026 39.2423L50.0152 38.3139C50.5098 38.1995 51.0123 38.1224 51.5184 38.0834L54.6329 37.8432C55.9985 37.7379 57.3712 37.9108 58.668 38.3516L60.5199 38.9809C61.5651 39.3362 62.5452 39.86 63.4213 40.5316L64.5062 41.3634C64.973 41.7213 65.4069 42.1195 65.8076 42.5501C66.5392 43.3364 67.4534 44.3004 67.677 44.4685C67.9696 44.6886 68.7744 46.9441 69.1402 48.0443L69.6091 50.0291C69.8439 51.023 69.9269 52.0466 69.8553 53.0653L69.506 58.0383L68.4121 64.6188C68.2882 65.364 68.0813 66.093 67.7952 66.7922L67.0433 68.6296C66.8563 69.0866 66.6361 69.5292 66.3846 69.954L65.5945 71.288C65.2159 71.9274 64.768 72.5231 64.2589 73.0644L62.7969 74.619C62.2719 75.1772 61.6852 75.674 61.0481 76.0999L60.0195 76.7874C59.335 77.2449 58.5972 77.6171 57.8226 77.8959L56.4779 78.3799C55.7763 78.6324 55.049 78.8071 54.3089 78.8977C53.3918 79.0101 52.4138 79.1266 52.3128 79.1266C52.2114 79.1266 51.1075 78.9502 50.0743 78.781C49.2527 78.6464 48.4518 78.4078 47.689 78.0745L46.6324 77.6127C45.7296 77.2182 44.8892 76.6939 44.1379 76.0565L42.65 74.7944C42.0219 74.2615 41.4611 73.6539 40.9802 72.9851L38.8692 70.0494L37.4502 67.3982C37.0564 66.6624 36.7551 65.8807 36.5532 65.071L35.6942 61.6261C35.5553 61.069 35.464 60.5011 35.4214 59.9285L35.0282 54.6459L35.159 51.8269C35.1936 51.0801 35.3109 50.3397 35.5082 49.6186C35.848 48.3767 36.2534 46.8903 36.3085 46.669C36.3648 46.4434 37.1819 45.1549 37.8614 44.113C38.2253 43.555 38.6473 43.0375 39.1247 42.5728Z" fill="url(#paint4_linear_1106_3980)"/>
<path d="M39.1247 42.5728C39.7879 41.9273 40.5419 41.22 40.6983 41.1677L46.0026 39.2423L50.0152 38.3139C50.5098 38.1995 51.0123 38.1224 51.5184 38.0834L54.6329 37.8432C55.9985 37.7379 57.3712 37.9108 58.668 38.3516L60.5199 38.9809C61.5651 39.3362 62.5452 39.86 63.4213 40.5316L64.5062 41.3634C64.973 41.7213 65.4069 42.1195 65.8076 42.5501C66.5392 43.3364 67.4534 44.3004 67.677 44.4685C67.9696 44.6886 68.7744 46.9441 69.1402 48.0443L69.6091 50.0291C69.8439 51.023 69.9269 52.0466 69.8553 53.0653L69.506 58.0383L68.4121 64.6188C68.2882 65.364 68.0813 66.093 67.7952 66.7922L67.0433 68.6296C66.8563 69.0866 66.6361 69.5292 66.3846 69.954L65.5945 71.288C65.2159 71.9274 64.768 72.5231 64.2589 73.0644L62.7969 74.619C62.2719 75.1772 61.6852 75.674 61.0481 76.0999L60.0195 76.7874C59.335 77.2449 58.5972 77.6171 57.8226 77.8959L56.4779 78.3799C55.7763 78.6324 55.049 78.8071 54.3089 78.8977C53.3918 79.0101 52.4138 79.1266 52.3128 79.1266C52.2114 79.1266 51.1075 78.9502 50.0743 78.781C49.2527 78.6464 48.4518 78.4078 47.689 78.0745L46.6324 77.6127C45.7296 77.2182 44.8892 76.6939 44.1379 76.0565L42.65 74.7944C42.0219 74.2615 41.4611 73.6539 40.9802 72.9851L38.8692 70.0494L37.4502 67.3982C37.0564 66.6624 36.7551 65.8807 36.5532 65.071L35.6942 61.6261C35.5553 61.069 35.464 60.5011 35.4214 59.9285L35.0282 54.6459L35.159 51.8269C35.1936 51.0801 35.3109 50.3397 35.5082 49.6186C35.848 48.3767 36.2534 46.8903 36.3085 46.669C36.3648 46.4434 37.1819 45.1549 37.8614 44.113C38.2253 43.555 38.6473 43.0375 39.1247 42.5728Z" fill="url(#paint5_linear_1106_3980)"/>
<path d="M66.6874 64.0757L66.7529 64.1566C67.0629 64.5391 67.4186 64.8822 67.8122 65.1781L67.8546 65.21C68.4024 65.6218 69.0196 65.9321 69.6769 66.1259C70.0498 66.2358 70.4328 66.3075 70.8201 66.3399L71.4844 66.3954C72.1129 66.4479 72.7469 66.4061 73.3632 66.2718C74.1372 66.1031 74.874 65.7902 75.5326 65.35L75.5879 65.313C76.1625 64.929 76.6658 64.4477 77.0751 63.8908C77.5124 63.2958 77.835 62.6245 78.0265 61.9114L78.1208 61.5604C78.2908 60.9273 78.3769 60.2745 78.3769 59.619C78.3769 58.4595 78.1076 57.3158 77.5901 56.2782L77.4624 56.0222L77.0065 55.3573C76.6431 54.8274 76.182 54.3717 75.6478 54.0147C75.274 53.7649 74.8686 53.5661 74.4422 53.4236L73.9671 53.2648C73.2535 53.0264 72.5062 52.9048 71.7538 52.9048C71.2929 52.9048 70.833 52.9504 70.381 53.0411L70.1638 53.0846C69.5462 53.2085 68.9521 53.4291 68.4035 53.7385C67.9817 53.9764 67.5903 54.2648 67.238 54.5972L66.9107 54.9061C66.4492 55.3415 66.0632 55.8505 65.7682 56.4122C65.4579 57.0034 65.2531 57.6442 65.1631 58.3058L65.1429 58.4542C65.0645 59.0308 65.0628 59.6153 65.1379 60.1923L65.1837 60.5448C65.2604 61.1338 65.4105 61.7108 65.6306 62.2625L65.6443 62.2969C65.9005 62.939 66.2521 63.5387 66.6874 64.0757Z" fill="url(#paint6_linear_1106_3980)"/>
<path d="M72.3413 63.2905V63.9436C72.3413 64.1013 72.3713 64.2576 72.4298 64.4041C72.4921 64.5603 72.5854 64.7022 72.7042 64.8212L72.7454 64.8626C72.8414 64.9588 72.9498 65.0418 73.0677 65.1093L73.2804 65.2312C73.4456 65.3258 73.6264 65.3904 73.8142 65.4217C73.9895 65.451 74.1684 65.451 74.3437 65.4217L74.3674 65.4178C74.5399 65.3889 74.7071 65.3344 74.8635 65.2561L75.0852 65.1449C75.2675 65.0535 75.4413 64.9459 75.6043 64.8233L75.6894 64.7593C75.9563 64.5586 76.2003 64.3294 76.4173 64.0756L76.6396 63.8156C77.0646 63.2677 77.4177 62.6677 77.6903 62.0301L77.8285 61.7068L77.8786 61.5562C78.0275 61.1081 78.1211 60.6435 78.1572 60.1727L78.1751 59.9403C78.1879 59.7735 78.1867 59.6059 78.1716 59.4392L78.1408 59.0996C78.1159 58.8249 78.0229 58.5608 77.8702 58.3311C77.7819 58.1984 77.6749 58.079 77.5525 57.9768L77.4752 57.9122C77.2877 57.7555 77.0602 57.6541 76.8183 57.6195C76.6401 57.594 76.4586 57.6053 76.2849 57.6528L76.0363 57.7208C75.7101 57.81 75.4049 57.9629 75.1382 58.1709L74.7191 58.4977L74.4416 58.7527C73.899 59.2514 73.4458 59.8393 73.1017 60.491C72.9001 60.8727 72.7374 61.2736 72.6159 61.6878L72.529 61.9838C72.4045 62.4082 72.3413 62.8482 72.3413 63.2905Z" fill="#252472"/>
<path fill-rule="evenodd" clip-rule="evenodd" d="M72.5632 64.6545C72.6136 64.6681 72.6647 64.6792 72.7163 64.6878C72.8916 64.7171 73.0705 64.7171 73.2458 64.6878L73.2696 64.6839C73.4421 64.655 73.6093 64.6005 73.7656 64.5222L73.9873 64.411C74.1697 64.3196 74.3434 64.212 74.5065 64.0894L74.5915 64.0254C74.8584 63.8247 75.1025 63.5955 75.3194 63.3417L75.5417 63.0817C75.9668 62.5338 76.3199 61.9338 76.5924 61.2962L76.7306 60.9729L76.7807 60.8223C76.9297 60.3742 77.0232 59.9096 77.0594 59.4388L77.0772 59.2064C77.09 59.0396 77.0888 58.872 77.0737 58.7053L77.0429 58.3657C77.0187 58.0982 76.9298 57.8406 76.7841 57.6152C76.795 57.6165 76.8059 57.6179 76.8168 57.6195C77.0587 57.6541 77.2861 57.7555 77.4737 57.9122L77.551 57.9768C77.6734 58.079 77.7804 58.1984 77.8687 58.3311C78.0214 58.5608 78.1144 58.8249 78.1393 59.0996L78.1701 59.4392C78.1852 59.6059 78.1864 59.7735 78.1736 59.9403L78.1557 60.1727C78.1196 60.6435 78.026 61.1081 77.877 61.5562L77.827 61.7068L77.6888 62.0301C77.4162 62.6677 77.0631 63.2677 76.6381 63.8156L76.4158 64.0756C76.1988 64.3294 75.9547 64.5586 75.6879 64.7593L75.6028 64.8233C75.4398 64.9459 75.266 65.0535 75.0836 65.1449L74.8619 65.2561C74.7056 65.3344 74.5384 65.3889 74.3659 65.4178L74.3421 65.4217C74.1669 65.451 73.9879 65.451 73.8126 65.4217C73.6248 65.3904 73.4441 65.3258 73.2789 65.2312L73.0662 65.1093C72.9483 65.0418 72.8399 64.9588 72.7439 64.8626L72.7027 64.8212C72.6513 64.7697 72.6046 64.7139 72.5632 64.6545Z" fill="#42E8E0"/>
<ellipse cx="78.9262" cy="69.133" rx="1.09744" ry="1.10026" fill="#42E8E0"/>
<ellipse cx="73.9873" cy="67.9419" rx="0.823078" ry="0.825192" fill="#42E8E0"/>
<ellipse cx="27.3453" cy="49.4199" rx="0.823078" ry="0.825192" fill="#42E8E0"/>
<ellipse cx="29.7233" cy="50.3374" rx="0.640172" ry="0.641816" fill="#42E8E0"/>
<ellipse cx="28.8098" cy="46.6691" rx="0.457266" ry="0.45844" fill="#42E8E0" fill-opacity="0.4"/>
<ellipse cx="29.0841" cy="44.743" rx="0.365812" ry="0.366752" fill="#42E8E0" fill-opacity="0.5"/>
<ellipse cx="30.089" cy="46.8525" rx="0.457266" ry="0.45844" fill="#42E8E0" fill-opacity="0.3"/>
<ellipse cx="75.9076" cy="66.6572" rx="0.640172" ry="0.641816" fill="#42E8E0" fill-opacity="0.3"/>
<ellipse cx="75.1753" cy="70.1413" rx="0.457266" ry="0.45844" fill="#42E8E0" fill-opacity="0.3"/>
<ellipse cx="76.9137" cy="74.4508" rx="0.548719" ry="0.550128" fill="#42E8E0" fill-opacity="0.3"/>
<ellipse cx="78.1019" cy="72.8923" rx="0.457266" ry="0.45844" fill="#42E8E0" fill-opacity="0.3"/>
<ellipse cx="78.6517" cy="73.809" rx="0.274359" ry="0.275064" fill="#42E8E0" fill-opacity="0.3"/>
<path d="M68.1742 83.6648L68.4107 84.1652C68.4697 84.2901 68.5411 84.4088 68.6239 84.5195L68.6938 84.6129C68.9234 84.9199 69.249 85.1415 69.6188 85.2426C69.9042 85.3207 70.2049 85.3239 70.4919 85.2519L70.8003 85.1746C71.0336 85.1162 71.2588 85.0292 71.4709 84.9158L71.8233 84.7274C72.2881 84.4789 72.7192 84.1719 73.106 83.8139L73.7123 83.2528L74.8097 81.9692L75.2783 81.2645C75.5746 80.8189 75.8189 80.3408 76.0064 79.8396L76.0217 79.7985C76.1887 79.3521 76.3069 78.8889 76.3741 78.417L76.4307 78.0201C76.5078 77.479 76.4844 76.9282 76.3618 76.3955C76.3027 76.1387 76.2208 75.8876 76.1172 75.6452L76.0708 75.5365C75.8418 75.001 75.5129 74.514 75.1016 74.1016L75.0594 74.0593C74.8933 73.8928 74.7125 73.7415 74.5192 73.6073L74.4643 73.5692C73.9125 73.1862 73.2664 72.9616 72.5961 72.9196C72.3048 72.9013 72.0123 72.9178 71.7249 72.9686L71.2161 73.0587C70.8094 73.1306 70.4153 73.2612 70.0461 73.4462L69.9895 73.4746C69.5488 73.6956 69.1535 73.9973 68.8241 74.3641C68.6085 74.6044 68.4232 74.8702 68.2725 75.1557L68.1614 75.366C67.8405 75.9736 67.629 76.6329 67.5364 77.3138L67.402 78.3017L67.3724 78.6871C67.3312 79.2239 67.333 79.7632 67.3776 80.2998L67.402 80.5939L67.5193 81.4562C67.6234 82.2215 67.8443 82.9664 68.1742 83.6648Z" fill="url(#paint7_linear_1106_3980)"/>
<path d="M70.5433 74.2543L70.5476 74.2155C70.5828 73.898 70.7513 73.6104 71.011 73.4244C71.1633 73.3153 71.3405 73.246 71.5264 73.2227L71.7419 73.1957C71.8966 73.1763 72.053 73.1752 72.2079 73.1925L72.7978 73.2582L73.5294 73.4416C74.0132 73.6234 74.4601 73.8913 74.8486 74.2321L74.9927 74.3584L75.3405 74.7072C75.4732 74.8402 75.5793 74.9973 75.6532 75.1701L75.6994 75.2782C75.7755 75.4562 75.801 75.6536 75.7737 75.8454C75.7418 76.0691 75.6381 76.2787 75.4785 76.4387C75.399 76.5183 75.3072 76.5847 75.2066 76.6351L75.0843 76.6964C74.9025 76.7876 74.7071 76.8487 74.5058 76.8776L74.4436 76.8865C74.2616 76.9125 74.0771 76.9164 73.8942 76.8981L73.6275 76.8714C73.3798 76.8465 73.1351 76.7979 72.8967 76.7262C72.528 76.6153 72.1778 76.4502 71.8577 76.2362L71.788 76.1896C71.6081 76.0694 71.4405 75.9317 71.2877 75.7785L71.0489 75.5391C70.8755 75.3653 70.7413 75.1564 70.6553 74.9264L70.6128 74.8128C70.5462 74.6347 70.5224 74.4433 70.5433 74.2543Z" fill="#252472"/>
<path fill-rule="evenodd" clip-rule="evenodd" d="M70.5484 74.2161L70.5441 74.2549C70.5308 74.3755 70.5356 74.497 70.5582 74.6154C70.631 74.5103 70.7219 74.4172 70.8281 74.3412C70.9804 74.2321 71.1576 74.1628 71.3435 74.1395L71.559 74.1124C71.7137 74.0931 71.8701 74.092 72.025 74.1092L72.6149 74.175L73.3465 74.3583C73.8303 74.5402 74.2772 74.808 74.6657 75.1488L74.8098 75.2752L75.1576 75.6239C75.2903 75.757 75.3964 75.9141 75.4703 76.0869L75.5165 76.1949C75.5367 76.2421 75.5533 76.2906 75.5663 76.3401C75.6767 76.1968 75.7489 76.026 75.7745 75.846C75.8018 75.6543 75.7763 75.4569 75.7002 75.2788L75.654 75.1707C75.5801 74.998 75.474 74.8408 75.3413 74.7078L74.9935 74.3591L74.8494 74.2327C74.4609 73.8919 74.014 73.6241 73.5302 73.4422L72.7986 73.2588L72.2087 73.1931C72.0538 73.1758 71.8974 73.1769 71.7427 73.1963L71.5271 73.2233C71.3412 73.2466 71.1641 73.3159 71.0118 73.425C70.7521 73.611 70.5836 73.8986 70.5484 74.2161Z" fill="#42E8E0"/>
<path d="M40.6303 44.137L40.6401 44.0952C40.7387 43.6753 40.9931 43.1576 41.239 42.8033C41.5381 42.3723 41.8472 42.1319 42.301 41.8686L42.8452 41.5527C43.1809 41.3578 43.5335 41.1935 43.8987 41.0617L44.9281 40.6902C45.3995 40.52 45.8829 40.3851 46.3743 40.2866L47.4652 40.0678L49.2028 39.7928L52.9524 39.426H55.6636C56.5351 39.426 57.403 39.5386 58.2457 39.7609L59.1115 39.9893C59.9995 40.2236 60.8457 40.5944 61.62 41.0883L62.7803 41.8286C63.233 42.1174 63.6085 42.5122 63.8744 42.9787C64.0901 43.3572 64.2289 43.7745 64.2828 44.2068L64.3571 44.8028C64.4347 45.4254 64.3503 46.0574 64.1119 46.6378C63.9293 47.0823 63.6606 47.4864 63.3212 47.8266L62.8368 48.3123C62.5277 48.6222 62.1907 48.903 61.8288 49.1493C61.2456 49.5461 60.5601 50.0074 60.4516 50.0618C60.3487 50.1134 59.3353 50.5307 58.4036 50.9121C57.6984 51.2007 56.9625 51.4072 56.2104 51.5295L54.7652 51.7644C54.2282 51.8517 53.685 51.8956 53.141 51.8956H51.5261C50.8932 51.8956 50.2617 51.8362 49.6399 51.7183L48.1582 51.4373C47.5148 51.3152 46.8848 51.131 46.277 50.8873L45.2816 50.4881C44.7268 50.2656 44.1954 49.9884 43.6955 49.6607L43.1896 49.3291C42.4514 48.8451 41.8248 48.2093 41.3517 47.464L41.1485 47.1438C40.9106 46.769 40.7374 46.357 40.636 45.9249L40.6303 45.901C40.4942 45.3209 40.4942 44.7171 40.6303 44.137Z" fill="#252472"/>
<path fill-rule="evenodd" clip-rule="evenodd" d="M40.639 44.0024L40.6292 44.0442C40.4931 44.6243 40.4931 45.2281 40.6292 45.8082L40.6348 45.8321C40.6425 45.8647 40.6505 45.8972 40.659 45.9296C40.6749 45.8198 40.6956 45.7106 40.7211 45.6022L40.7309 45.5604C40.8294 45.1405 41.0838 44.6229 41.3297 44.2685C41.6288 43.8375 41.938 43.5972 42.3917 43.3338L42.9359 43.0179C43.2716 42.823 43.6243 42.6587 43.9894 42.5269L45.0188 42.1554C45.4902 41.9852 45.9736 41.8503 46.465 41.7518L47.5559 41.5331L49.2936 41.258L53.0431 40.8912H55.7543C56.6258 40.8912 57.4937 41.0038 58.3364 41.2261L59.2022 41.4546C60.0902 41.6889 60.9364 42.0596 61.7107 42.5536L62.871 43.2938C63.3237 43.5826 63.6992 43.9774 63.9651 44.4439C64.1649 44.7944 64.2987 45.1783 64.3602 45.5765C64.3931 45.2897 64.392 44.9988 64.356 44.71L64.2817 44.114C64.2278 43.6817 64.089 43.2644 63.8733 42.8859C63.6074 42.4194 63.2318 42.0246 62.7791 41.7358L61.6188 40.9956C60.8446 40.5016 59.9984 40.1309 59.1104 39.8966L58.2445 39.6681C57.4019 39.4458 56.534 39.3333 55.6625 39.3333H52.9513L49.2017 39.7L47.4641 39.9751L46.3732 40.1938C45.8818 40.2923 45.3984 40.4272 44.9269 40.5974L43.8976 40.9689C43.5324 41.1007 43.1798 41.2651 42.844 41.4599L42.2999 41.7758C41.8461 42.0392 41.537 42.2795 41.2379 42.7106C40.992 43.0649 40.7376 43.5825 40.639 44.0024Z" fill="#42E8E0"/>
<path d="M35.6551 31.2597C35.8075 32.0708 35.9826 32.9846 36.0341 33.1909C36.1865 33.6493 36.4913 34.6212 36.4913 34.8413C36.4913 35.0027 36.8852 35.8322 37.2395 36.5401C37.4686 36.998 37.7406 37.4324 38.042 37.8463C38.7381 38.8024 39.6332 40.0409 39.6922 40.1592C39.7528 40.2806 41.2382 41.5835 42.3532 42.5486C42.773 42.912 43.223 43.238 43.6977 43.526L45.1314 44.396C46.0118 44.9302 46.9686 45.327 47.9687 45.5725L49.7519 46.0103C50.5417 46.2043 51.352 46.3023 52.1653 46.3023H54.1254C54.8657 46.3023 55.6038 46.2211 56.3264 46.0601L57.7085 45.7522L60.5521 44.6985C61.4563 44.3635 62.3079 43.9011 63.0812 43.3251L64.3501 42.3801C64.8597 42.0006 65.3324 41.574 65.7619 41.1058L66.5325 40.2661C66.9894 39.7682 67.3953 39.2258 67.7441 38.647L69.2911 36.0798C69.677 35.4395 69.9907 34.7584 70.2266 34.049L70.4007 33.5252C70.6568 32.755 70.8193 31.9568 70.8848 31.1478L70.9996 29.7282C71.0402 29.2256 71.0432 28.7207 71.0086 28.2177L70.8777 26.3143L70.6489 24.8234C70.5578 24.2293 70.4138 23.6444 70.2189 23.0758L69.8058 21.871C69.6063 21.2892 69.3541 20.7267 69.0525 20.1906L68.0349 18.382C67.6753 17.7429 67.2474 17.1449 66.7586 16.5983L65.9029 15.6414C65.3802 15.0568 64.7913 14.5351 64.1481 14.0865L63.0127 13.2946L61.0014 12.1603C60.3929 11.8172 59.7506 11.538 59.0846 11.3271L57.8123 10.9243C57.0145 10.6717 56.1885 10.5191 55.3532 10.4698L53.5016 10.3606L51.7022 10.4809C51.0741 10.5228 50.4513 10.6233 49.8419 10.781L47.923 11.2775L45.8196 12.011L44.2629 12.7676C43.2949 13.2382 42.4081 13.8601 41.636 14.61L39.8751 16.3203L38.7906 17.6547C38.1755 18.4115 37.673 19.2533 37.2987 20.1539L36.7675 21.4322C36.5836 21.8746 36.4314 22.3295 36.312 22.7935L35.9525 24.19C35.8242 24.6886 35.7341 25.1962 35.683 25.7085L35.4854 27.6896V29.4216C35.4854 30.0383 35.5413 30.6536 35.6551 31.2597Z" fill="url(#paint8_linear_1106_3980)"/>
<path d="M35.6551 31.2597C35.8075 32.0708 35.9826 32.9846 36.0341 33.1909C36.1865 33.6493 36.4913 34.6212 36.4913 34.8413C36.4913 35.0027 36.8852 35.8322 37.2395 36.5401C37.4686 36.998 37.7406 37.4324 38.042 37.8463C38.7381 38.8024 39.6332 40.0409 39.6922 40.1592C39.7528 40.2806 41.2382 41.5835 42.3532 42.5486C42.773 42.912 43.223 43.238 43.6977 43.526L45.1314 44.396C46.0118 44.9302 46.9686 45.327 47.9687 45.5725L49.7519 46.0103C50.5417 46.2043 51.352 46.3023 52.1653 46.3023H54.1254C54.8657 46.3023 55.6038 46.2211 56.3264 46.0601L57.7085 45.7522L60.5521 44.6985C61.4563 44.3635 62.3079 43.9011 63.0812 43.3251L64.3501 42.3801C64.8597 42.0006 65.3324 41.574 65.7619 41.1058L66.5325 40.2661C66.9894 39.7682 67.3953 39.2258 67.7441 38.647L69.2911 36.0798C69.677 35.4395 69.9907 34.7584 70.2266 34.049L70.4007 33.5252C70.6568 32.755 70.8193 31.9568 70.8848 31.1478L70.9996 29.7282C71.0402 29.2256 71.0432 28.7207 71.0086 28.2177L70.8777 26.3143L70.6489 24.8234C70.5578 24.2293 70.4138 23.6444 70.2189 23.0758L69.8058 21.871C69.6063 21.2892 69.3541 20.7267 69.0525 20.1906L68.0349 18.382C67.6753 17.7429 67.2474 17.1449 66.7586 16.5983L65.9029 15.6414C65.3802 15.0568 64.7913 14.5351 64.1481 14.0865L63.0127 13.2946L61.0014 12.1603C60.3929 11.8172 59.7506 11.538 59.0846 11.3271L57.8123 10.9243C57.0145 10.6717 56.1885 10.5191 55.3532 10.4698L53.5016 10.3606L51.7022 10.4809C51.0741 10.5228 50.4513 10.6233 49.8419 10.781L47.923 11.2775L45.8196 12.011L44.2629 12.7676C43.2949 13.2382 42.4081 13.8601 41.636 14.61L39.8751 16.3203L38.7906 17.6547C38.1755 18.4115 37.673 19.2533 37.2987 20.1539L36.7675 21.4322C36.5836 21.8746 36.4314 22.3295 36.312 22.7935L35.9525 24.19C35.8242 24.6886 35.7341 25.1962 35.683 25.7085L35.4854 27.6896V29.4216C35.4854 30.0383 35.5413 30.6536 35.6551 31.2597Z" fill="url(#paint9_linear_1106_3980)" fill-opacity="0.2"/>
<path d="M37.7138 32.0616L37.8683 32.7586C37.9863 33.2909 38.147 33.8127 38.3491 34.3191L38.7772 35.3921L39.2196 36.1806C39.473 36.6322 39.7607 37.0638 40.0801 37.4714L40.2191 37.6487C40.4768 37.9776 40.7588 38.2867 41.0627 38.5735L41.5145 38.9998C41.942 39.4031 42.4382 39.7268 42.9797 39.9554L43.3387 40.1069C43.7082 40.2629 44.1052 40.3432 44.5062 40.3432C44.9492 40.3432 45.3874 40.2448 45.788 40.0558C46.3997 39.7672 46.8977 39.2806 47.1996 38.6753L47.2286 38.6172C47.3251 38.4236 47.4018 38.2208 47.4574 38.0117L47.5338 37.7244C47.6704 37.2108 47.7396 36.6817 47.7396 36.1503V35.7899C47.7396 35.2811 47.6959 34.7733 47.6089 34.272L47.516 33.7367C47.4213 33.1908 47.282 32.6536 47.0994 32.1306L46.7336 31.0827L46.6054 30.7707C46.2656 29.9433 45.8176 29.1645 45.273 28.4548L45.1789 28.3321L44.2421 27.1246C44.0139 26.8304 43.7507 26.5652 43.4583 26.3349L43.3895 26.2808C42.8821 25.8811 42.2894 25.6038 41.6575 25.4704L41.4042 25.4169C41.0582 25.3439 40.7015 25.3363 40.3527 25.3946C39.9769 25.4574 39.6176 25.5954 39.2963 25.8004L39.1641 25.8847C38.9074 26.0485 38.6747 26.2472 38.4727 26.4751C38.1906 26.7932 37.9729 27.163 37.8318 27.5641L37.7525 27.7893C37.5833 28.2699 37.4968 28.7758 37.4968 29.2854V30.0801C37.4968 30.7465 37.5696 31.411 37.7138 32.0616Z" fill="#252472"/>
<path fill-rule="evenodd" clip-rule="evenodd" d="M39.2398 32.207L39.0853 31.5099C38.941 30.8593 38.8683 30.1949 38.8683 29.5285V28.7337C38.8683 28.2241 38.9547 27.7183 39.1239 27.2376L39.2032 27.0124C39.3444 26.6114 39.5621 26.2415 39.8441 25.9234C39.9914 25.7573 40.1549 25.6067 40.3322 25.4739C40.3085 25.4772 40.2849 25.4809 40.2613 25.4848C39.8854 25.5476 39.5261 25.6856 39.2049 25.8906L39.0727 25.9749C38.816 26.1387 38.5833 26.3374 38.3812 26.5653C38.0992 26.8834 37.8815 27.2532 37.7403 27.6543L37.661 27.8795C37.4918 28.3601 37.4054 28.866 37.4054 29.3756V30.1703C37.4054 30.8367 37.4781 31.5012 37.6224 32.1518L37.7769 32.8489C37.8948 33.3811 38.0556 33.9029 38.2576 34.4093L38.6857 35.4823L39.1281 36.2708C39.3816 36.7225 39.6693 37.154 39.9887 37.5616L40.1276 37.7389C40.3854 38.0678 40.6674 38.3769 40.9713 38.6637L41.4231 39.09C41.8506 39.4933 42.3468 39.817 42.8883 40.0456L43.2473 40.1971C43.6167 40.3531 44.0137 40.4334 44.4148 40.4334C44.8577 40.4334 45.296 40.335 45.6966 40.146C45.9172 40.0419 46.1231 39.9121 46.3103 39.7602C46.1673 39.781 46.0228 39.7916 45.8777 39.7916C45.4766 39.7916 45.0796 39.7112 44.7102 39.5552L44.3512 39.4037C43.8097 39.1751 43.3135 38.8515 42.886 38.4481L42.4342 38.0218C42.1303 37.735 41.8483 37.4259 41.5905 37.0971L41.4516 36.9198C41.1321 36.5121 40.8444 36.0806 40.591 35.6289L40.1486 34.8404L39.7205 33.7674C39.5185 33.2611 39.3577 32.7392 39.2398 32.207Z" fill="#42E8E0"/>
<path d="M41.6529 31.7099L41.7228 32.1654C41.7712 32.4811 41.8555 32.7904 41.9738 33.087L41.9885 33.1238C42.1034 33.4118 42.2525 33.6851 42.4324 33.9377C42.5565 34.1118 42.6946 34.2753 42.8456 34.4266L43.0528 34.6344C43.1291 34.7109 43.2127 34.7796 43.3026 34.8397L43.4327 34.9266C43.6175 35.0502 43.8349 35.1161 44.0572 35.1161H44.0791C44.2608 35.1161 44.4393 35.0686 44.597 34.9783C44.8515 34.8325 45.0327 34.5862 45.0962 34.2998L45.1432 34.088C45.1673 33.9791 45.1795 33.8679 45.1795 33.7564V33.4903C45.1795 33.2301 45.1538 32.9704 45.1029 32.7152L45.0846 32.6233C45.026 32.3298 44.9408 32.0422 44.8298 31.7642L44.7714 31.6179C44.6778 31.3832 44.5635 31.1574 44.4299 30.9431L44.3036 30.7404C44.2171 30.6018 44.1152 30.4733 43.9998 30.3576C43.8123 30.1697 43.5919 30.0179 43.3494 29.9099L43.0997 29.7986C42.9635 29.7379 42.8161 29.7065 42.667 29.7065H42.6543C42.4523 29.7065 42.2548 29.7665 42.0868 29.8787C41.8981 30.0048 41.7568 30.1902 41.6852 30.4056L41.6715 30.447C41.6326 30.5639 41.6128 30.6862 41.6128 30.8094V31.1843C41.6128 31.3603 41.6262 31.5359 41.6529 31.7099Z" fill="#42E8E0"/>
<path d="M67.7677 43.0014V35.3911L74.1694 31.8154V39.3338L67.7677 43.0014Z" fill="url(#paint10_linear_1106_3980)"/>
<path d="M68.2249 35.0245V27.5061L61.6403 31.357V38.9671L68.2249 35.0245Z" fill="#251C72"/>
<path fill-rule="evenodd" clip-rule="evenodd" d="M67.2194 28.0953V34.7499L61.641 38.09V38.9678L68.2256 35.0252V27.5068L67.2194 28.0953Z" fill="#130A54"/>
<path d="M24.5027 54.4555L24.7302 54.6836C25.0079 54.9619 25.3351 55.1858 25.6951 55.3437L26.0903 55.5171C26.4354 55.6684 26.8081 55.7466 27.185 55.7466H27.2337C27.549 55.7466 27.8614 55.6863 28.154 55.5689L28.4217 55.4616C28.5562 55.4076 28.6783 55.3269 28.7807 55.2243L28.8347 55.1702C29.0973 54.9069 29.1822 54.5146 29.0519 54.1663C29.0119 54.0593 28.9529 53.9604 28.8778 53.8744L28.648 53.6111C28.4513 53.3857 28.2207 53.1925 27.9644 53.0383L27.8646 52.9783C27.5807 52.8075 27.2746 52.6765 26.9549 52.5891L26.9264 52.5813C26.5974 52.4914 26.2579 52.4458 25.9168 52.4458H25.6449C25.438 52.4458 25.2322 52.4734 25.0327 52.528L24.5582 52.6577C24.4079 52.6988 24.2738 52.7851 24.1742 52.905C23.9882 53.1288 23.9463 53.4393 24.0665 53.7045L24.2247 54.0533C24.2925 54.2029 24.3867 54.3391 24.5027 54.4555Z" fill="#252472"/>
<path fill-rule="evenodd" clip-rule="evenodd" d="M29.0391 54.8666C29.1307 54.6476 29.1389 54.3975 29.0526 54.1668C29.0125 54.0598 28.9536 53.9609 28.8785 53.8749L28.6487 53.6115C28.452 53.3862 28.2214 53.193 27.9651 53.0388L27.8653 52.9788C27.5814 52.808 27.2752 52.677 26.9556 52.5896L26.9271 52.5818C26.5981 52.4919 26.2585 52.4463 25.9175 52.4463H25.6455C25.4387 52.4463 25.2328 52.4739 25.0333 52.5285L24.5589 52.6582C24.4086 52.6993 24.2745 52.7856 24.1749 52.9055C23.9888 53.1293 23.947 53.4398 24.0672 53.705L24.0925 53.7607C24.1157 53.7181 24.1432 53.6775 24.1749 53.6394C24.2745 53.5195 24.4086 53.4332 24.5589 53.3921L25.0333 53.2624C25.2328 53.2078 25.4387 53.1802 25.6455 53.1802H25.9175C26.2585 53.1802 26.5981 53.2258 26.9271 53.3157L26.9556 53.3235C27.2752 53.4109 27.5814 53.5419 27.8653 53.7127L27.9651 53.7727C28.2214 53.9269 28.452 54.1201 28.6487 54.3454L28.8785 54.6087C28.9455 54.6856 28.9998 54.7727 29.0391 54.8666Z" fill="#42E8E0"/>
<path d="M73.5294 31.3572L74.1696 31.8156L67.7679 35.3914V43.0015L67.0363 42.6348V35.0247L73.5294 31.3572Z" fill="url(#paint11_linear_1106_3980)"/>
<g filter="url(#filter0_f_1106_3980)">
<ellipse cx="0.600965" cy="3.10736" rx="0.600965" ry="3.10736" transform="matrix(0.921667 -0.387982 0.386294 0.922376 43.5382 28.782)" fill="#42E8E0"/>
</g>
<path fill-rule="evenodd" clip-rule="evenodd" d="M23.0466 5.26767V47.9636C23.0466 48.0787 23.0651 48.193 23.1015 48.3023C23.184 48.5505 23.3543 48.7601 23.5805 48.8916L58.2566 69.0553V70.432C58.2566 70.5939 58.1718 70.7439 58.0331 70.8273C57.8889 70.914 57.7089 70.9153 57.5635 70.8308L21.569 49.9004C21.3429 49.7689 21.1725 49.5593 21.09 49.3111C21.0537 49.2018 21.0352 49.0875 21.0352 48.9724V4.71224C21.0352 4.57853 21.1106 4.45627 21.2302 4.39635C21.3367 4.34293 21.4631 4.34685 21.5661 4.40678L23.0466 5.26767Z" fill="#316E9E"/>
<path d="M23.0475 47.9617V3.70156C23.0475 3.56785 23.123 3.44559 23.2425 3.38567C23.3491 3.33224 23.4754 3.33617 23.5785 3.3961L59.7716 24.442C59.9178 24.5271 60.0401 24.6478 60.127 24.793C60.2199 24.9481 60.2689 25.1256 60.2689 25.3065V69.4213C60.2689 69.5832 60.1841 69.7332 60.0454 69.8166C59.9012 69.9033 59.7213 69.9047 59.5758 69.8201L23.5813 48.8897C23.3552 48.7582 23.1848 48.5486 23.1023 48.3004C23.066 48.1912 23.0475 48.0768 23.0475 47.9617Z" fill="white" fill-opacity="0.2"/>
<path d="M44.2648 45.8433V44.9264L40.6067 42.823V43.7398L44.2648 45.8433Z" fill="#42E8E0" fill-opacity="0.3"/>
<path d="M31.8272 37.7747V38.6916L35.6682 40.9002V39.9833L31.8272 37.7747Z" fill="#42E8E0" fill-opacity="0.3"/>
<path d="M36.4913 40.4566V41.3735L37.6802 42.0571V41.1402L36.4913 40.4566Z" fill="#42E8E0" fill-opacity="0.3"/>
<path d="M38.5947 42.5829V41.6661L39.6921 42.2971V43.214L38.5947 42.5829Z" fill="#42E8E0" fill-opacity="0.3"/>
<path d="M35.8511 28.4225V27.5057L34.022 26.4221V27.3806L35.8511 28.4225Z" fill="#42E8E0" fill-opacity="0.3"/>
<path d="M31.8272 25.1218V26.1303L33.2904 26.9639V25.9886L31.8272 25.1218Z" fill="#42E8E0" fill-opacity="0.3"/>
<path d="M50.4836 39.0584V38.0498L49.0203 37.2012V38.2026L50.4836 39.0584Z" fill="#42E8E0" fill-opacity="0.3"/>
<path d="M31.8272 27.2306V28.1475L34.6622 29.8055V28.8747L31.8272 27.2306Z" fill="#42E8E0" fill-opacity="0.3"/>
<path d="M35.4853 30.2869V29.352L39.052 31.4204V32.3728L35.4853 30.2869Z" fill="#42E8E0" fill-opacity="0.3"/>
<path d="M39.5092 32.6402V31.6856L41.3383 32.7463V33.7099L39.5092 32.6402Z" fill="#42E8E0" fill-opacity="0.3"/>
<path d="M42.1614 34.1912V33.2236L44.6306 34.6555V35.6353L42.1614 34.1912Z" fill="#42E8E0" fill-opacity="0.3"/>
<path d="M44.9964 35.8493V34.8677L48.1058 36.6745V37.6678L44.9964 35.8493Z" fill="#42E8E0" fill-opacity="0.3"/>
<path d="M35.8511 32.6402V31.815L34.0535 30.7147V31.5889L35.8511 32.6402Z" fill="#42E8E0" fill-opacity="0.3"/>
<path d="M31.8272 29.352V30.2869L33.2904 31.1426V30.2476L31.8272 29.352Z" fill="#42E8E0" fill-opacity="0.3"/>
<path d="M50.4836 43.214V42.2971L47.6019 40.617V41.5394L50.4836 43.214Z" fill="#42E8E0" fill-opacity="0.3"/>
<path d="M31.8272 31.4204V32.3728L35.5767 34.5516V33.6064L31.8272 31.4204Z" fill="#42E8E0" fill-opacity="0.3"/>
<path d="M36.3084 34.9768V34.0329L38.2289 35.1526V36.0928L36.3084 34.9768Z" fill="#42E8E0" fill-opacity="0.3"/>
<path d="M39.052 36.5711V35.6324L44.7678 38.9648V39.8925L39.052 36.5711Z" fill="#42E8E0" fill-opacity="0.3"/>
<path d="M45.5451 40.3442V39.418L46.8255 40.1644V41.0882L45.5451 40.3442Z" fill="#42E8E0" fill-opacity="0.3"/>
<path d="M35.3024 25.9886V25.1218L33.4903 24.0215V24.9535L35.3024 25.9886Z" fill="#42E8E0" fill-opacity="0.3"/>
<path d="M28.8092 21.1792V22.2795L32.2823 24.2634V23.288L28.8092 21.1792Z" fill="#42E8E0" fill-opacity="0.3"/>
<path d="M52.2212 46.4851V45.3848L48.6545 43.2842V44.3684L52.2212 46.4851Z" fill="#42E8E0" fill-opacity="0.3"/>
<path d="M31.8272 33.3737V34.3823L33.2904 35.2506V34.2355L31.8272 33.3737Z" fill="#42E8E0" fill-opacity="0.3"/>
<path d="M34.2049 35.7934V34.7741L38.2289 37.144V38.1814L34.2049 35.7934Z" fill="#42E8E0" fill-opacity="0.3"/>
<path d="M39.0887 38.6916L39.052 37.6288L42.8103 39.8423V40.9002L39.0887 38.6916Z" fill="#42E8E0" fill-opacity="0.3"/>
<path d="M43.6078 40.3119V41.3735L45.3622 42.4146L45.4102 41.3735L43.6078 40.3119Z" fill="#42E8E0" fill-opacity="0.3"/>
<path d="M46.0503 42.823L46.0938 41.7761L47.74 42.7456V43.8257L46.0503 42.823Z" fill="#42E8E0" fill-opacity="0.3"/>
<path d="M31.8272 35.4367V36.4911L33.4733 37.4672V36.417L31.8272 35.4367Z" fill="#42E8E0" fill-opacity="0.3"/>
<path d="M46.8255 45.3848V44.3684L43.4417 42.3533V43.3783L46.8255 45.3848Z" fill="#42E8E0" fill-opacity="0.3"/>
<path d="M34.2049 36.8527V37.9011L36.034 38.9857V37.9419L34.2049 36.8527Z" fill="#42E8E0" fill-opacity="0.3"/>
<path d="M36.8571 38.4321V39.4737L40.2408 41.4803L40.2567 40.4566L36.8571 38.4321Z" fill="#42E8E0" fill-opacity="0.3"/>
<path d="M41.0639 40.9373V41.9683L42.8103 43.0039V41.9773L41.0639 40.9373Z" fill="#42E8E0" fill-opacity="0.3"/>
<path d="M37.6802 44.1929V43.214L34.3878 41.3186V42.2632L37.6802 44.1929Z" fill="#42E8E0" fill-opacity="0.3"/>
<path d="M31.7357 39.7919V40.7087L33.4733 41.7272V40.7922L31.7357 39.7919Z" fill="#42E8E0" fill-opacity="0.3"/>
<path d="M37.5887 46.21V45.2014L34.5707 43.468V44.445L37.5887 46.21Z" fill="#42E8E0" fill-opacity="0.3"/>
<path d="M28.8092 40.1586V41.0755L29.9981 41.7708V40.8415L28.8092 40.1586Z" fill="#42E8E0" fill-opacity="0.3"/>
<path d="M30.7297 42.1987V41.2617L33.6562 42.9427V43.9102L30.7297 42.1987Z" fill="#42E8E0" fill-opacity="0.3"/>
<path fill-rule="evenodd" clip-rule="evenodd" d="M19.7024 50.7368L19.5586 50.4964C19.3854 50.2071 19.2444 49.8998 19.138 49.5798C19.062 49.3509 19.0039 49.1165 18.9643 48.8785L18.9347 48.7005C18.8722 48.3246 18.8408 47.9442 18.8408 47.5632V3.11694L18.9063 2.59213C18.9235 2.454 18.964 2.31979 19.0261 2.19522C19.0851 2.07697 19.1628 1.96898 19.2561 1.87542L19.3016 1.82977C19.42 1.71112 19.5612 1.61776 19.7168 1.55538C19.8631 1.4967 20.0193 1.46655 20.1769 1.46655H20.2259C20.4577 1.46655 20.6863 1.52065 20.8936 1.62454L20.9442 1.64993L57.8907 22.8678C58.3753 23.1461 58.8085 23.5054 59.1716 23.9301L59.6289 24.5719L59.7794 24.8359C59.9226 25.0872 60.0407 25.352 60.1319 25.6265C60.2231 25.9008 60.2871 26.1834 60.3229 26.4703L60.3605 26.7724V72.1434C60.3605 72.2751 60.3497 72.4066 60.3281 72.5366L60.3083 72.6557C60.2823 72.812 60.2331 72.9635 60.1624 73.1053L60.1157 73.1991C60.0361 73.3586 59.9206 73.4974 59.7781 73.6045C59.6793 73.6788 59.5691 73.7366 59.4519 73.7758L59.4002 73.7931C59.1895 73.8635 58.9658 73.8857 58.7454 73.8581L58.6954 73.8518C58.4666 73.8231 58.2459 73.7483 58.0468 73.6319L20.8818 51.9042C20.5599 51.716 20.2718 51.4751 20.0295 51.1917C19.9079 51.0495 19.7985 50.8974 19.7024 50.7368ZM21.036 4.7108V48.9709C21.036 49.086 21.0545 49.2004 21.0908 49.3096C21.1734 49.5578 21.3437 49.7674 21.5699 49.8989L57.5643 70.8293C57.7098 70.9139 57.8897 70.9126 58.0339 70.8258C58.1726 70.7424 58.2574 70.5924 58.2574 70.4306V26.3157C58.2574 26.1348 58.2084 25.9574 58.1155 25.8022C58.0286 25.657 57.9064 25.5363 57.7601 25.4513L21.567 4.40533C21.4639 4.3454 21.3376 4.34148 21.231 4.39491C21.1115 4.45483 21.036 4.57709 21.036 4.7108Z" fill="url(#paint12_linear_1106_3980)"/>
<path d="M21.6569 0.279365L19.5032 1.54514C19.4889 1.55354 19.4801 1.56888 19.4801 1.58545C19.4801 1.61739 19.5114 1.63992 19.5417 1.6298L19.9713 1.48624C20.0094 1.4735 20.0493 1.46701 20.0895 1.46701H20.2368C20.4601 1.46701 20.6794 1.52545 20.8731 1.63652L58.0507 22.961C58.429 23.178 58.7684 23.4565 59.0551 23.785C59.193 23.9429 59.3179 24.1116 59.4288 24.2895L59.7195 24.7558L62.0058 23.4721C61.4052 22.5088 60.5782 21.7069 59.5967 21.1364L23.7018 0.274401C23.3926 0.0946732 23.0413 0 22.6836 0C22.3226 0 21.9681 0.0964468 21.6569 0.279365Z" fill="url(#paint13_linear_1106_3980)"/>
<path d="M61.9728 72.2124C61.1405 72.7706 60.0399 73.5135 59.9123 73.6175C59.9057 73.6229 59.8978 73.626 59.8892 73.626C59.8604 73.626 59.8459 73.5911 59.8663 73.5707L60.064 73.3725C60.0782 73.3583 60.0894 73.3413 60.0968 73.3226L60.2054 73.0505C60.2473 72.9455 60.2778 72.8362 60.2963 72.7246L60.3202 72.5809C60.3466 72.4221 60.3599 72.2615 60.3599 72.1006V26.7734L60.3195 26.449C60.2855 26.1769 60.2249 25.9089 60.1384 25.6487C60.0425 25.3603 59.9153 25.0831 59.7592 24.8223L59.7197 24.7563L62.0061 23.4727L62.3423 24.0344C62.4832 24.2699 62.5885 24.5248 62.6549 24.7911C62.7099 25.0116 62.7377 25.2379 62.7377 25.4652V70.7798C62.7377 70.9646 62.708 71.1481 62.6497 71.3234C62.5289 71.6867 62.2908 71.9991 61.9728 72.2124Z" fill="#2F2D85"/>
<path d="M66.3956 99.0728C66.548 99.7452 66.8711 101.168 66.9443 101.315L61.8229 104.299L61.5698 104.445C61.3762 104.557 61.1565 104.615 60.933 104.615C60.7955 104.615 60.659 104.593 60.5287 104.55L60.3869 104.502C60.2471 104.455 60.1125 104.395 59.9849 104.321L37.3135 91.2289L38.7767 89.2622L39.7827 88.0703L40.6694 87.1813C41.2347 86.6146 41.8652 86.1169 42.5477 85.6987L43.0821 85.3713C43.1383 85.3368 43.1935 85.3023 43.2495 85.2674C43.5656 85.0705 44.7091 84.3763 45.3614 84.2193C45.5834 84.1659 45.8933 84.0814 46.2211 83.9884C47.35 83.6682 48.5214 83.5159 49.6933 83.5746L50.798 83.63C51.3187 83.6561 51.8365 83.7224 52.347 83.8283L53.1646 83.9979C53.8743 84.1451 54.5662 84.3681 55.2284 84.6632L55.6823 84.8654C56.3597 85.1673 57.0019 85.5427 57.5973 85.9849L58.5688 86.7063C58.9695 87.0039 59.3478 87.3308 59.7003 87.6843L61.2742 89.2622L63.0118 91.5544L64.2588 93.638C64.5245 94.082 64.7558 94.5458 64.9506 95.0252L65.6639 96.7806L66.3956 99.0728Z" fill="url(#paint14_linear_1106_3980)" fill-opacity="0.1"/>
<path d="M97.6159 33.9415C97.837 33.7416 98.0498 33.5467 98.1302 33.4661L104.405 36.9132C104.672 37.0599 104.929 37.2255 105.172 37.4086C105.172 37.6362 105.053 37.8471 104.858 37.9644L104.797 38.0013C104.742 38.0339 104.692 38.0732 104.647 38.118L104.309 38.4575C104.153 38.6138 104.008 38.781 103.876 38.9578L103.526 39.4258L103.159 40.0566C102.977 40.3685 102.834 40.7007 102.73 41.0464C102.651 41.3102 102.596 41.5806 102.567 41.8545C102.542 42.0878 102.52 42.3152 102.52 42.3598V42.7991C102.52 43.1146 102.58 43.4272 102.697 43.7202L102.794 43.9647C102.855 44.1157 102.945 44.2529 103.06 44.368C103.244 44.5523 103.482 44.672 103.74 44.7089L103.983 44.7437L103.8 45.7523L102.934 45.8764C102.658 45.9158 102.38 45.9356 102.102 45.9356C101.59 45.9356 101.081 45.8687 100.586 45.7365L99.9593 45.5689L99.9388 45.5616C99.1025 45.2621 98.3093 44.8539 97.5796 44.3474L97.49 44.2852L97.3377 44.1452C96.714 43.5721 96.2123 42.8791 95.8626 42.1077C95.6076 41.5453 95.4367 40.9485 95.3553 40.3365L95.2952 39.8842V39.0998C95.2952 38.6457 95.3372 38.1926 95.4207 37.7462L95.4525 37.5761C95.5303 37.1601 95.6535 36.7539 95.8198 36.3647C96.0179 35.9013 96.2757 35.4657 96.5866 35.069L96.7166 34.903C96.9878 34.557 97.2899 34.2364 97.6159 33.9415Z" fill="url(#paint15_linear_1106_3980)" fill-opacity="0.15"/>
<path fill-rule="evenodd" clip-rule="evenodd" d="M98.542 44.9389C98.2105 44.7599 97.8889 44.5624 97.5788 44.3472L97.4893 44.2851L97.3369 44.145C96.7133 43.5719 96.2116 42.8789 95.8619 42.1075C95.6069 41.5451 95.436 40.9483 95.3546 40.3363L95.2944 39.884V39.0996C95.2944 38.6455 95.3364 38.1924 95.4199 37.746L95.4517 37.576C95.5295 37.1599 95.6527 36.7537 95.8191 36.3645C96.0172 35.9011 96.2749 35.4655 96.5858 35.0688L96.7159 34.9028C96.9871 34.5568 97.2891 34.2362 97.6152 33.9413C97.8362 33.7414 98.0491 33.5465 98.1295 33.4659L99.9734 34.4788L90.8135 29.1576L90.6938 29.2605C90.3478 29.5578 89.9709 29.817 89.5696 30.0337C89.1806 30.2437 88.7707 30.4126 88.3467 30.5376L87.4298 30.808L86.0477 31.1159C85.3251 31.2769 84.587 31.3581 83.8467 31.3581H82.217L80.2964 31.1748L78.8942 30.9498C78.306 30.8555 77.7272 30.7094 77.1646 30.5132L76.8682 30.4098C76.2288 30.1868 75.6134 29.9003 75.0312 29.5544L74.3419 29.1449C73.7406 28.7876 73.1779 28.3689 72.6628 27.8956L72.34 27.5989C71.8069 27.1239 71.4496 26.4829 71.3258 25.7796L71.2972 25.6172C71.2609 25.4106 71.2426 25.2013 71.2426 24.9915C71.2426 24.5335 71.3298 24.0796 71.4995 23.6542L71.5525 23.5213C71.7108 23.1245 71.9267 22.7532 72.1932 22.4192L72.5329 21.9935C72.7698 21.6966 73.0297 21.419 73.3104 21.1632C73.6988 20.8092 74.1248 20.4989 74.5807 20.2376L75.1751 19.8971C74.6386 19.7179 74.0608 19.7032 73.516 19.8549L73.1662 19.9523C72.8604 20.0375 72.5657 20.1586 72.2883 20.3131L71.6249 20.6826C71.2489 20.892 70.8935 21.1363 70.5632 21.4122C70.1639 21.7458 69.8037 22.1238 69.4897 22.5388L68.8666 23.3622C68.2591 24.1651 67.7748 25.0541 67.4297 25.9998L66.9006 27.4496C66.6863 28.0369 66.5269 28.6428 66.4244 29.2595L65.801 33.0095C65.7098 33.558 65.6639 34.1132 65.6639 34.6693V38.9682L66.0999 43.2662C66.1748 44.005 66.3309 44.7334 66.5652 45.4381L67.493 48.2287L68.3642 50.063C68.9952 51.3915 69.9081 52.5664 71.0393 53.5062L72.5229 54.7386L74.7101 56.1796C75.3835 56.6232 76.1074 56.9848 76.8666 57.2566L78.2845 57.7643L79.7853 58.1544C80.4293 58.3218 81.0883 58.4253 81.7526 58.4633L82.7224 58.5189C83.5407 58.5658 84.3617 58.5117 85.1668 58.358C85.6384 58.2679 86.1028 58.144 86.5566 57.9871L87.6456 57.6106C88.2321 57.4079 88.7987 57.1516 89.3383 56.8451L90.3862 56.2497C90.9745 55.9155 91.5277 55.5232 92.0377 55.0786L92.6113 54.5785C93.1187 54.1362 93.5806 53.6444 93.9903 53.1104L95.2033 51.5295L95.9694 50.4872C96.3116 50.0215 96.6133 49.5274 96.8712 49.0103L97.4896 47.7703L98.3127 45.6615L98.542 44.9389Z" fill="url(#paint16_linear_1106_3980)" fill-opacity="0.1"/>
<path d="M103.983 44.7434L104.257 43.7349C104.14 43.7349 104.028 43.7815 103.945 43.8644L103.841 43.9685C103.754 44.056 103.648 44.122 103.53 44.1612L103.434 44.1933H102.885C103.182 44.4905 103.567 44.6839 103.983 44.7434Z" fill="white" fill-opacity="0.1"/>
<path d="M102.437 52.1702H102.885L102.794 52.5369C102.49 52.5369 102.186 52.5586 101.884 52.6017L101.697 52.6286L100.874 52.812L100.743 52.8556C100.288 53.0078 99.8738 53.2641 99.5347 53.6041C99.3911 53.748 99.2621 53.9058 99.1496 54.0751L99.0912 54.1629C98.9994 54.3009 98.9237 54.4491 98.8656 54.6044L98.7763 54.843C98.7122 55.0146 98.6905 55.1991 98.7131 55.3809L98.724 55.4679C98.7536 55.705 98.8744 55.9213 99.0608 56.0708C99.1704 56.1587 99.2987 56.2203 99.4358 56.2509L99.786 56.3289C99.9618 56.368 100.141 56.3878 100.321 56.3878H100.372C100.644 56.3878 100.915 56.3498 101.176 56.2749L101.422 56.2044L102.154 56.0211L101.056 61.7057L100.416 61.0639L99.2274 59.8719L98.8351 59.3913C98.55 59.0419 98.3269 58.6463 98.1756 58.2215C98.0243 57.7968 97.947 57.3493 97.947 56.8985V56.8275C97.947 56.2944 98.0449 55.7658 98.2359 55.2681L98.4043 54.8291L98.6381 54.3603C98.8462 53.9429 99.1298 53.5677 99.4745 53.2535C99.7951 52.9613 100.164 52.7265 100.564 52.5593L100.657 52.5204C100.923 52.4094 101.199 52.325 101.481 52.2684L101.514 52.2619C101.818 52.2009 102.127 52.1702 102.437 52.1702Z" fill="white" fill-opacity="0.1"/>
<path d="M102.794 52.5381L102.611 53.3633C102.611 53.4139 102.57 53.455 102.519 53.455H102.337C102.094 53.455 101.854 53.4941 101.624 53.5709L101.422 53.6383L101.17 53.7224C100.973 53.7884 100.783 53.8759 100.605 53.9832C100.479 54.0588 100.36 54.144 100.247 54.2381L100.068 54.3879C99.9344 54.4992 99.8115 54.6224 99.7005 54.756L99.5526 54.9339C99.4582 55.0475 99.3822 55.1752 99.3275 55.3124C99.2612 55.4785 99.2272 55.6556 99.2272 55.8345V56.2056L99.129 56.1269C98.8987 55.9422 98.7495 55.675 98.713 55.3821C98.6903 55.2003 98.712 55.0157 98.7762 54.8442L98.8654 54.6056C98.9235 54.4503 98.9992 54.3021 99.091 54.164L99.1494 54.0762C99.2619 53.907 99.391 53.7492 99.5345 53.6053C99.8736 53.2653 100.287 53.009 100.743 52.8568L100.873 52.8131L101.605 52.6298L102.337 52.5381H102.794Z" fill="#9FFFF8" fill-opacity="0.15"/>
<ellipse cx="0.708659" cy="1.02076" rx="0.708659" ry="1.02076" transform="matrix(0.949319 -0.314314 0.312863 0.949798 99.254 39.6877)" fill="#42E8E0"/>
<path d="M98.3268 38.9609C98.4094 39.2115 98.4121 39.4575 98.3547 39.6512C98.2972 39.8452 98.1833 39.977 98.0378 40.0252C97.8924 40.0733 97.7226 40.0354 97.5611 39.9139C97.4 39.7926 97.256 39.5933 97.1735 39.3427C97.091 39.0921 97.0882 38.8461 97.1456 38.6524C97.2031 38.4584 97.317 38.3266 97.4625 38.2784C97.6079 38.2303 97.7777 38.2682 97.9392 38.3897C98.1003 38.511 98.2443 38.7103 98.3268 38.9609Z" stroke="#42E8E0" stroke-width="0.20243"/>
<path d="M95.9488 37.4943C96.0313 37.7449 96.034 37.991 95.9766 38.1846C95.9191 38.3787 95.8053 38.5105 95.6598 38.5586C95.5143 38.6068 95.3446 38.5689 95.1831 38.4473C95.022 38.3261 94.878 38.1268 94.7954 37.8762C94.7129 37.6256 94.7102 37.3795 94.7676 37.1859C94.8251 36.9918 94.939 36.86 95.0844 36.8119C95.2299 36.7637 95.3996 36.8016 95.5611 36.9232C95.7222 37.0444 95.8662 37.2437 95.9488 37.4943Z" stroke="#42E8E0" stroke-width="0.20243"/>
<defs>
<filter id="filter0_f_1106_3980" x="41.9458" y="26.515" width="6.69325" height="9.80006" filterUnits="userSpaceOnUse" color-interpolation-filters="sRGB">
<feFlood flood-opacity="0" result="BackgroundImageFix"/>
<feBlend mode="normal" in="SourceGraphic" in2="BackgroundImageFix" result="shape"/>
<feGaussianBlur stdDeviation="1.01215" result="effect1_foregroundBlur_1106_3980"/>
</filter>
<linearGradient id="paint0_linear_1106_3980" x1="105.446" y1="38.5085" x2="3.15535" y2="70.267" gradientUnits="userSpaceOnUse">
<stop stop-color="#352785"/>
<stop offset="1" stop-color="#4D4199"/>
</linearGradient>
<linearGradient id="paint1_linear_1106_3980" x1="105.446" y1="38.5085" x2="3.15535" y2="70.267" gradientUnits="userSpaceOnUse">
<stop stop-color="#352785"/>
<stop offset="1" stop-color="#4D4199"/>
</linearGradient>
<linearGradient id="paint2_linear_1106_3980" x1="20.8586" y1="64.1791" x2="29.5964" y2="51.6043" gradientUnits="userSpaceOnUse">
<stop stop-color="#71FFF9"/>
<stop offset="0.370108" stop-color="#807BC6"/>
<stop offset="0.826055" stop-color="#AFADE9"/>
</linearGradient>
<linearGradient id="paint3_linear_1106_3980" x1="29.6996" y1="49.5178" x2="38.5526" y2="34.1276" gradientUnits="userSpaceOnUse">
<stop stop-color="#71FFF9"/>
<stop offset="0.370108" stop-color="#807BC6"/>
<stop offset="0.826055" stop-color="#AFADE9"/>
</linearGradient>
<linearGradient id="paint4_linear_1106_3980" x1="35.72" y1="79.4313" x2="64.855" y2="34.4551" gradientUnits="userSpaceOnUse">
<stop stop-color="#54C8C3"/>
<stop offset="0.370108" stop-color="#807BC6"/>
<stop offset="0.826055" stop-color="#AFADE9"/>
</linearGradient>
<linearGradient id="paint5_linear_1106_3980" x1="44.9966" y1="74.4505" x2="52.5243" y2="61.7227" gradientUnits="userSpaceOnUse">
<stop stop-color="#88F0F6"/>
<stop offset="1" stop-color="white" stop-opacity="0"/>
</linearGradient>
<linearGradient id="paint6_linear_1106_3980" x1="65.2892" y1="66.5744" x2="74.1596" y2="50.5907" gradientUnits="userSpaceOnUse">
<stop stop-color="#71FFF9"/>
<stop offset="0.370108" stop-color="#807BC6"/>
<stop offset="0.826055" stop-color="#AFADE9"/>
</linearGradient>
<linearGradient id="paint7_linear_1106_3980" x1="67.4935" y1="85.4533" x2="76.6692" y2="73.0062" gradientUnits="userSpaceOnUse">
<stop stop-color="#71FFF9"/>
<stop offset="0.370108" stop-color="#807BC6"/>
<stop offset="0.826055" stop-color="#AFADE9"/>
</linearGradient>
<linearGradient id="paint8_linear_1106_3980" x1="36.1898" y1="46.5666" x2="59.6106" y2="4.11369" gradientUnits="userSpaceOnUse">
<stop stop-color="#71FFF9"/>
<stop offset="0.370108" stop-color="#807BC6"/>
<stop offset="0.826055" stop-color="#AFADE9"/>
</linearGradient>
<linearGradient id="paint9_linear_1106_3980" x1="40.2409" y1="38.3254" x2="69.9518" y2="7.04423" gradientUnits="userSpaceOnUse">
<stop stop-color="#42E8E0"/>
<stop offset="1" stop-color="white" stop-opacity="0"/>
</linearGradient>
<linearGradient id="paint10_linear_1106_3980" x1="74.2609" y1="31.5404" x2="67.834" y2="43.0791" gradientUnits="userSpaceOnUse">
<stop stop-color="#BCBEFF"/>
<stop offset="1" stop-color="#A6E5F6"/>
</linearGradient>
<linearGradient id="paint11_linear_1106_3980" x1="73.5294" y1="31.0821" x2="67.4691" y2="42.7138" gradientUnits="userSpaceOnUse">
<stop stop-color="#BBC0FE"/>
<stop offset="1" stop-color="#7E85E6"/>
</linearGradient>
<linearGradient id="paint12_linear_1106_3980" x1="60.3605" y1="19.8958" x2="18.7567" y2="53.441" gradientUnits="userSpaceOnUse">
<stop stop-color="#403898"/>
<stop offset="1" stop-color="#6562BA"/>
</linearGradient>
<linearGradient id="paint13_linear_1106_3980" x1="35.4844" y1="7.79348" x2="62.0387" y2="22.7719" gradientUnits="userSpaceOnUse">
<stop stop-color="#BCBEFF"/>
<stop offset="1" stop-color="#616ADB"/>
</linearGradient>
<linearGradient id="paint14_linear_1106_3980" x1="56.6101" y1="109.841" x2="49.7174" y2="77.7579" gradientUnits="userSpaceOnUse">
<stop stop-color="white"/>
<stop offset="1" stop-color="white" stop-opacity="0"/>
</linearGradient>
<linearGradient id="paint15_linear_1106_3980" x1="94.0148" y1="41.3512" x2="112.032" y2="39.1618" gradientUnits="userSpaceOnUse">
<stop stop-color="#B3AAEA"/>
<stop offset="0.588115" stop-color="white"/>
</linearGradient>
<linearGradient id="paint16_linear_1106_3980" x1="102.214" y1="34.6571" x2="68.1755" y2="52.1678" gradientUnits="userSpaceOnUse">
<stop stop-color="white"/>
<stop offset="1" stop-color="white" stop-opacity="0"/>
</linearGradient>
</defs>
</svg>
