<svg width="146" height="92" viewBox="0 0 146 92" fill="none" xmlns="http://www.w3.org/2000/svg">
<path d="M0.0830822 26.1577L0.161884 26.0127C0.194818 25.9521 0.236253 25.8965 0.284931 25.8477C0.329823 25.8026 0.380466 25.7637 0.435547 25.7319L14.5872 17.5627C14.7799 17.4515 14.9895 17.3724 15.2077 17.3286L15.2149 17.3271C15.3427 17.3015 15.4727 17.2886 15.6031 17.2886H15.6285C15.8089 17.2886 15.9883 17.3156 16.1607 17.3689C16.2925 17.4096 16.4191 17.4652 16.5382 17.5347L43.7596 33.4289C43.8697 33.4931 43.9552 33.5924 44.0023 33.7108C44.0467 33.822 44.055 33.9444 44.026 34.0606L44.0246 34.0661C44.0084 34.1315 43.981 34.1936 43.9437 34.2497L43.9398 34.2555C43.8866 34.3356 43.8159 34.4024 43.7329 34.4508L29.8622 42.55L29.5951 42.6737C29.4678 42.7327 29.3363 42.7822 29.2018 42.8219L29.1144 42.8477C28.9089 42.9084 28.6957 42.9392 28.4814 42.9392H28.4085C28.2734 42.9392 28.1389 42.9226 28.0079 42.8897C27.8581 42.8521 27.7143 42.7936 27.5808 42.7159L0.426856 26.9198C0.377445 26.8911 0.330935 26.8576 0.28798 26.8199L0.184853 26.7293C0.110563 26.6641 0.0589893 26.5769 0.0376141 26.4804C0.0133585 26.3708 0.0295064 26.2562 0.0830822 26.1577Z" fill="white" fill-opacity="0.5"/>
<path d="M25.6845 18.9762L25.735 18.8832C25.7562 18.8443 25.7827 18.8087 25.814 18.7774C25.8428 18.7485 25.8752 18.7235 25.9106 18.7031L34.9865 13.4639C35.1101 13.3925 35.2445 13.3418 35.3845 13.3138L35.3891 13.3128C35.4711 13.2964 35.5544 13.2881 35.638 13.2881H35.6543C35.7701 13.2881 35.8851 13.3054 35.9957 13.3396C36.0802 13.3657 36.1614 13.4014 36.2378 13.4459L53.6959 23.6395C53.7665 23.6807 53.8213 23.7443 53.8516 23.8203C53.88 23.8916 53.8853 23.9701 53.8667 24.0446L53.8659 24.0481C53.8554 24.0901 53.8378 24.1299 53.8139 24.1659L53.8115 24.1696C53.7774 24.221 53.732 24.2638 53.6787 24.2949L44.783 29.4892L44.6116 29.5685C44.53 29.6063 44.4457 29.6381 44.3594 29.6636L44.3034 29.6801C44.1716 29.719 44.0348 29.7388 43.8974 29.7388H43.8506C43.764 29.7388 43.6777 29.7281 43.5937 29.707C43.4977 29.6829 43.4054 29.6454 43.3198 29.5956L25.905 19.465C25.8733 19.4465 25.8435 19.4251 25.8159 19.4009L25.7498 19.3428C25.7021 19.301 25.6691 19.245 25.6553 19.1831C25.6398 19.1129 25.6501 19.0394 25.6845 18.9762Z" fill="white" fill-opacity="0.5"/>
<path d="M16.9975 70.7042L17.048 70.6112C17.0692 70.5723 17.0957 70.5367 17.127 70.5054C17.1557 70.4765 17.1882 70.4515 17.2235 70.4311L26.2995 65.1919C26.4231 65.1206 26.5575 65.0699 26.6975 65.0418L26.7021 65.0408C26.7841 65.0244 26.8674 65.0161 26.951 65.0161H26.9673C27.083 65.0161 27.1981 65.0335 27.3087 65.0676C27.3932 65.0937 27.4744 65.1294 27.5507 65.174L45.0089 75.3675C45.0795 75.4087 45.1343 75.4723 45.1646 75.5483C45.193 75.6196 45.1983 75.6981 45.1797 75.7726L45.1788 75.7762C45.1684 75.8181 45.1508 75.8579 45.1269 75.8939L45.1244 75.8976C45.0903 75.949 45.0449 75.9918 44.9917 76.0229L36.0959 81.2172L35.9246 81.2965C35.843 81.3344 35.7587 81.3661 35.6724 81.3916L35.6164 81.4081C35.4845 81.447 35.3478 81.4668 35.2104 81.4668H35.1636C35.077 81.4668 34.9907 81.4561 34.9067 81.4351C34.8106 81.411 34.7184 81.3734 34.6328 81.3236L17.218 71.193C17.1863 71.1745 17.1565 71.1531 17.1289 71.1289L17.0628 71.0708C17.0151 71.029 16.982 70.9731 16.9683 70.9111C16.9528 70.8409 16.9631 70.7674 16.9975 70.7042Z" fill="white" fill-opacity="0.5"/>
<path d="M108.705 37.266L108.756 37.173C108.777 37.1341 108.803 37.0985 108.834 37.0672C108.863 37.0383 108.896 37.0133 108.931 36.9929L118.007 31.7537C118.131 31.6823 118.265 31.6316 118.405 31.6035L118.41 31.6026C118.492 31.5862 118.575 31.5779 118.659 31.5779H118.675C118.791 31.5779 118.906 31.5952 119.016 31.6294C119.101 31.6555 119.182 31.6912 119.258 31.7357L136.716 41.9292C136.787 41.9705 136.842 42.0341 136.872 42.1101C136.901 42.1814 136.906 42.2599 136.887 42.3344L136.886 42.3379C136.876 42.3799 136.858 42.4197 136.834 42.4557L136.832 42.4594C136.798 42.5107 136.752 42.5536 136.699 42.5847L127.803 47.779L127.632 47.8583C127.551 47.8961 127.466 47.9279 127.38 47.9534L127.324 47.9699C127.192 48.0088 127.055 48.0286 126.918 48.0286H126.871C126.785 48.0286 126.698 48.0179 126.614 47.9968C126.518 47.9727 126.426 47.9352 126.34 47.8854L108.925 37.7547C108.894 37.7363 108.864 37.7149 108.836 37.6907L108.77 37.6326C108.723 37.5908 108.69 37.5348 108.676 37.4729C108.66 37.4027 108.671 37.3292 108.705 37.266Z" fill="white" fill-opacity="0.5"/>
<path d="M108.722 77.3932L108.789 77.2703C108.817 77.219 108.852 77.1719 108.893 77.1305C108.931 77.0923 108.974 77.0593 109.021 77.0324L121.014 70.1093C121.177 70.015 121.355 69.948 121.54 69.9109L121.546 69.9096C121.654 69.8879 121.764 69.877 121.875 69.877H121.896C122.049 69.877 122.201 69.8999 122.347 69.945C122.459 69.9795 122.566 70.0266 122.667 70.0855L145.736 83.5553C145.83 83.6098 145.902 83.6939 145.942 83.7942C145.98 83.8885 145.987 83.9922 145.962 84.0906L145.961 84.0953C145.947 84.1507 145.924 84.2034 145.892 84.2509L145.889 84.2558C145.844 84.3237 145.784 84.3803 145.714 84.4214L133.959 91.2851L133.733 91.39C133.625 91.4399 133.513 91.4819 133.399 91.5156L133.325 91.5374C133.151 91.5888 132.97 91.6149 132.789 91.6149H132.727C132.612 91.6149 132.498 91.6009 132.387 91.573C132.261 91.5412 132.139 91.4916 132.025 91.4258L109.013 78.0391C108.972 78.0147 108.932 77.9864 108.896 77.9544L108.808 77.8777C108.745 77.8224 108.702 77.7485 108.684 77.6667C108.663 77.5739 108.677 77.4767 108.722 77.3932Z" fill="white" fill-opacity="0.5"/>
<path d="M14.337 44.6124V43.2457C14.9145 43.1813 15.4724 42.9981 15.9756 42.7076L54.4909 20.4742C55.0227 20.1672 55.601 19.949 56.203 19.8282L56.223 19.8242C56.5756 19.7534 56.9343 19.7178 57.294 19.7178H57.3547C57.8588 19.7178 58.3601 19.7934 58.8418 19.9421C59.1994 20.0526 59.5436 20.2025 59.868 20.3891L135.748 64.04V65.5044L135.695 65.9339C135.666 66.1651 135.584 66.3864 135.455 66.5805C135.328 66.7717 135.159 66.9314 134.961 67.0472L96.6399 89.4228L95.9028 89.7642C95.5516 89.9269 95.1889 90.0636 94.8176 90.1732L94.5766 90.2443C94.0094 90.4117 93.4211 90.4967 92.8298 90.4967H92.6286C92.256 90.4967 91.8848 90.4509 91.5234 90.3602C91.1099 90.2565 90.7132 90.0951 90.3447 89.8807L15.3919 46.2788C15.2727 46.2094 15.1604 46.1286 15.0567 46.0376C14.6563 45.686 14.4018 45.1974 14.3432 44.6678L14.337 44.6124Z" fill="#6C8DF8"/>
<path d="M14.468 42.6296L14.6855 42.2296C14.7763 42.0624 14.8907 41.9091 15.025 41.7743C15.1489 41.65 15.2886 41.5426 15.4406 41.4548L54.4899 18.9132C55.0217 18.6062 55.6 18.388 56.202 18.2672L56.222 18.2632C56.5746 18.1924 56.9334 18.1567 57.293 18.1567H57.3631C57.861 18.1567 58.3561 18.2314 58.8319 18.3783C59.1954 18.4906 59.5448 18.6441 59.8733 18.8359L134.987 62.6934C135.291 62.8708 135.526 63.1446 135.657 63.4714C135.779 63.7783 135.802 64.1159 135.722 64.4365L135.718 64.4518C135.673 64.6322 135.598 64.8036 135.495 64.9584L135.484 64.9745C135.337 65.1953 135.142 65.3797 134.913 65.5134L96.639 87.8618L95.9018 88.2032C95.5506 88.3659 95.1879 88.5026 94.8166 88.6121L94.5756 88.6833C94.0084 88.8507 93.4201 88.9357 92.8288 88.9357H92.6276C92.255 88.9357 91.8838 88.8898 91.5224 88.7991C91.109 88.6954 90.7122 88.534 90.3438 88.3197L15.4166 44.7327C15.2803 44.6534 15.1519 44.561 15.0334 44.4569L14.7488 44.2071C14.5439 44.0271 14.4015 43.7864 14.3426 43.5201C14.2756 43.2179 14.3202 42.9016 14.468 42.6296Z" fill="#1F2973"/>
<path d="M74.0455 0.160249L73.0565 0.68265V7.80936V8.1653C73.0565 8.2528 73.0712 8.33968 73.1 8.42232C73.1598 8.59404 73.2777 8.73951 73.4333 8.83366L80.1289 12.8859L81.034 12.3766C81.1233 12.3264 81.1994 12.2557 81.2561 12.1703C81.3267 12.064 81.3644 11.9392 81.3644 11.8115V4.99373C81.3644 4.78945 81.3316 4.5865 81.2672 4.39264L81.2389 4.30753C81.1932 4.16978 81.1255 4.0403 81.0387 3.92404C80.9326 3.7821 80.7997 3.66238 80.6474 3.57168L74.9615 0.183786C74.7622 0.0650273 74.5259 0.0245477 74.2984 0.0702022C74.2102 0.087904 74.125 0.118232 74.0455 0.160249Z" fill="#6993FF"/>
<path d="M72.9923 0.759185L72.9204 0.879389C72.844 1.00709 72.8037 1.1531 72.8037 1.30188V8.0795C72.8037 8.16052 72.8104 8.2414 72.8237 8.32132L72.8526 8.49545C72.8841 8.68508 72.9739 8.86016 73.1096 8.99632C73.1649 9.05179 73.227 9.10001 73.2944 9.13982L79.6304 12.8799C79.7443 12.9472 79.8802 12.9669 80.0085 12.9347C80.13 12.9042 80.2366 12.8281 80.306 12.7238C80.3616 12.6401 80.3919 12.5408 80.3919 12.4403V5.58086C80.3919 5.37658 80.3591 5.17363 80.2947 4.97976L80.2662 4.89402C80.2206 4.7567 80.1532 4.62761 80.0666 4.5117C79.9602 4.36943 79.8269 4.24955 79.6741 4.15896L73.6566 0.590718C73.5465 0.525411 73.415 0.506251 73.2908 0.537407C73.1658 0.568772 73.0584 0.648559 72.9923 0.759185Z" fill="#C4D6FF"/>
<path d="M77.3166 6.713C77.5237 6.67956 77.801 6.63734 77.8637 6.63734V5.85633L76.3071 4.88007L76.475 4.75373C76.6143 4.64887 76.6963 4.48463 76.6963 4.31025C76.6963 4.23532 76.6811 4.16116 76.6517 4.09225L76.5126 3.7665C76.4424 3.60219 76.3206 3.46523 76.1656 3.37635L75.8871 3.21665C75.7868 3.15917 75.6627 3.16345 75.5666 3.22771C75.4822 3.28416 75.4316 3.379 75.4316 3.48054V3.671C75.4316 3.7602 75.4496 3.84848 75.4847 3.93051L75.7234 4.48957L74.2642 3.61093V7.51598L75.7234 8.39461L75.544 8.52966C75.4089 8.63131 75.316 8.77912 75.283 8.94489C75.2532 9.09446 75.2739 9.24969 75.3419 9.3862L75.3465 9.39547C75.4023 9.5073 75.4862 9.60267 75.5901 9.67215L75.8396 9.83909C75.9482 9.91174 76.0874 9.92042 76.2042 9.86183C76.3269 9.80025 76.4044 9.6747 76.4044 9.53739V9.37462C76.4044 9.30748 76.3936 9.24077 76.3725 9.17704L76.2099 8.68749L77.8637 9.76138V8.19936L77.191 7.60869C77.1216 7.54775 77.0676 7.47125 77.0334 7.38545L76.9937 7.28587C76.9313 7.12926 76.9679 6.95052 77.0869 6.83109C77.1492 6.76858 77.2294 6.72706 77.3166 6.713Z" fill="#11265A"/>
<path d="M84.5516 6.31113L83.5626 6.83353V13.9602V14.3162C83.5626 14.4037 83.5773 14.4906 83.6061 14.5732C83.6659 14.7449 83.7838 14.8904 83.9394 14.9845L90.635 19.0368L91.5401 18.5275C91.6294 18.4772 91.7055 18.4065 91.7622 18.3212C91.8328 18.2149 91.8705 18.0901 91.8705 17.9624V11.1446C91.8705 10.9403 91.8377 10.7374 91.7733 10.5435L91.745 10.4584C91.6993 10.3207 91.6316 10.1912 91.5448 10.0749C91.4387 9.93298 91.3058 9.81326 91.1535 9.72256L85.4676 6.33466C85.2683 6.21591 85.032 6.17543 84.8045 6.22108C84.7163 6.23878 84.6311 6.26911 84.5516 6.31113Z" fill="#6993FF"/>
<path d="M83.4985 6.91006L83.4266 7.03027C83.3503 7.15797 83.3099 7.30398 83.3099 7.45276V14.2304C83.3099 14.3114 83.3166 14.3923 83.3299 14.4722L83.3588 14.6463C83.3903 14.836 83.4801 15.011 83.6158 15.1472C83.6711 15.2027 83.7332 15.2509 83.8006 15.2907L90.1366 19.0308C90.2506 19.0981 90.3864 19.1177 90.5147 19.0855C90.6362 19.0551 90.7429 18.979 90.8122 18.8747C90.8678 18.791 90.8981 18.6917 90.8981 18.5912V11.7317C90.8981 11.5275 90.8653 11.3245 90.8009 11.1306L90.7724 11.0449C90.7268 10.9076 90.6594 10.7785 90.5728 10.6626C90.4665 10.5203 90.3331 10.4004 90.1803 10.3098L84.1629 6.7416C84.0527 6.67629 83.9213 6.65713 83.7971 6.68829C83.672 6.71965 83.5646 6.79944 83.4985 6.91006Z" fill="#C4D6FF"/>
<path d="M85.5921 14.2713L85.6705 14.3657C85.6046 14.5286 85.4727 14.8605 85.4727 14.885C85.4727 14.9094 85.3509 14.773 85.29 14.7017L85.0313 14.3962C84.9704 14.2995 84.8456 14.0999 84.8334 14.0755L84.7239 13.8556C84.6854 13.7784 84.655 13.6974 84.6331 13.6139L84.5899 13.4493L84.5558 13.2867C84.538 13.2019 84.529 13.1154 84.529 13.0286V12.6856L84.5161 12.1815C84.5146 12.1206 84.5068 12.0601 84.4929 12.0008L84.4813 11.9511C84.4625 11.8713 84.4285 11.796 84.381 11.7292C84.3281 11.6549 84.2598 11.593 84.1807 11.5477L84.0876 11.4943V10.7459L84.2228 10.7952C84.2441 10.803 84.2667 10.807 84.2894 10.807C84.336 10.807 84.381 10.7903 84.4163 10.7599L84.4226 10.7545C84.4524 10.7289 84.4747 10.6957 84.4871 10.6584L84.497 10.6286C84.5081 10.595 84.5138 10.5599 84.5138 10.5245V10.303V9.7226L84.5325 9.4876C84.5403 9.39079 84.5682 9.29668 84.6146 9.21135L84.6389 9.16661C84.696 9.06164 84.786 8.97838 84.8951 8.92972C84.9648 8.89863 85.0403 8.88257 85.1166 8.88257H85.1613C85.2165 8.88257 85.2715 8.88863 85.3254 8.90064L85.5183 8.94366L85.701 9.61568H85.6449C85.6116 9.61568 85.5786 9.62247 85.5481 9.63561C85.5086 9.65258 85.4743 9.67961 85.4486 9.714L85.4349 9.73242C85.4096 9.76629 85.391 9.80469 85.3801 9.84555L85.3602 9.92044C85.3439 9.98175 85.3357 10.0449 85.3357 10.1083V10.3641V10.807L85.2998 11.0708C85.2933 11.1187 85.2798 11.1653 85.2596 11.2092L85.2388 11.2543C85.2126 11.3112 85.1704 11.3593 85.1174 11.3926C85.0906 11.4094 85.0614 11.4222 85.0309 11.4305L84.7966 11.4943L84.8526 11.5441C84.9408 11.6224 85.0164 11.7138 85.0769 11.815L85.1835 12.0441C85.2139 12.1307 85.2778 12.3129 85.29 12.3496C85.3022 12.3863 85.3255 12.5787 85.3357 12.6703V13.0026C85.3357 13.0153 85.3359 13.0278 85.3362 13.0404C85.3381 13.1132 85.3444 13.3793 85.3357 13.5104V13.5823C85.3357 13.6865 85.3514 13.7901 85.3824 13.8895C85.4019 13.9523 85.4274 14.013 85.4585 14.0709L85.4637 14.0806C85.5 14.1483 85.543 14.2122 85.5921 14.2713Z" fill="#11265A"/>
<path d="M88.6993 11.2957L88.8971 10.807L89.1254 11.0666C89.1607 11.1074 89.2278 11.1788 89.2826 11.2363C89.3398 11.2964 89.3916 11.3613 89.4357 11.4316C89.4855 11.5111 89.5502 11.6167 89.582 11.6776L89.7146 11.992C89.7378 12.047 89.757 12.1037 89.7722 12.1615L89.7844 12.2081C89.8117 12.3122 89.8255 12.4193 89.8255 12.527V12.6398V13.2507V13.4043C89.8255 13.535 89.8493 13.6646 89.8957 13.7868L89.9037 13.8079C89.9326 13.8841 89.9717 13.9561 90.0197 14.0219C90.0826 14.1079 90.16 14.1821 90.2485 14.2413L90.2517 14.2435V14.9613L90.2177 14.9409C90.1898 14.924 90.1596 14.9111 90.1282 14.9025L90.0628 14.8846C90.0274 14.875 89.9898 14.8776 89.9561 14.8921C89.9209 14.9072 89.8923 14.9343 89.8752 14.9686L89.8553 15.0085C89.8357 15.0478 89.8255 15.0911 89.8255 15.135V15.3126V15.9694V16.0804C89.8255 16.217 89.7842 16.3504 89.707 16.4631C89.6746 16.5105 89.6362 16.5536 89.5928 16.5913L89.5858 16.5974C89.484 16.6859 89.3588 16.7432 89.2252 16.7624C89.149 16.7733 89.0716 16.7716 88.996 16.7574L88.8667 16.733L88.7145 16.0915H88.7209C88.7664 16.0915 88.811 16.0787 88.8496 16.0545C88.8905 16.0289 88.9228 15.9916 88.9423 15.9475L88.9559 15.9169C88.9674 15.8909 88.9757 15.8635 88.9806 15.8355L89.0189 15.6181L89.0493 15.1446V14.6981C89.0493 14.6296 89.0597 14.5615 89.08 14.4961L89.0983 14.4376C89.1161 14.3802 89.1465 14.3274 89.1872 14.2832C89.2642 14.1995 89.3728 14.1518 89.4865 14.1518H89.5211L89.429 14.0363C89.3689 13.9608 89.3176 13.8787 89.2763 13.7916L89.1863 13.602L89.1247 13.4167C89.0949 13.3267 89.0752 13.2336 89.0665 13.1392C89.0578 13.0433 89.0493 12.9458 89.0493 12.93V12.4107V12.1538C89.0493 12.0405 89.034 11.9277 89.0038 11.8185L88.9982 11.7983C88.9816 11.7383 88.9599 11.6798 88.9335 11.6234C88.8792 11.5077 88.8053 11.4022 88.7151 11.3116L88.6993 11.2957Z" fill="#11265A"/>
<path d="M96.034 12.7535L95.045 13.2759V20.4026V20.7586C95.045 20.8461 95.0597 20.9329 95.0885 21.0156C95.1484 21.1873 95.2662 21.3328 95.4218 21.4269L102.117 25.4792L103.023 24.9699C103.112 24.9196 103.188 24.8489 103.245 24.7636C103.315 24.6573 103.353 24.5324 103.353 24.4048V17.587C103.353 17.3827 103.32 17.1798 103.256 16.9859L103.227 16.9008C103.182 16.763 103.114 16.6336 103.027 16.5173C102.921 16.3754 102.788 16.2556 102.636 16.1649L96.95 12.777C96.7507 12.6583 96.5144 12.6178 96.2869 12.6635C96.1987 12.6812 96.1135 12.7115 96.034 12.7535Z" fill="#6993FF"/>
<path d="M94.9808 13.3524L94.9089 13.4727C94.8326 13.6004 94.7922 13.7464 94.7922 13.8951V20.6728C94.7922 20.7538 94.7989 20.8347 94.8122 20.9146L94.8411 21.0887C94.8726 21.2783 94.9624 21.4534 95.0981 21.5896C95.1534 21.6451 95.2155 21.6933 95.2829 21.7331L101.619 25.4732C101.733 25.5405 101.869 25.5601 101.997 25.5279C102.119 25.4974 102.225 25.4214 102.294 25.317C102.35 25.2334 102.38 25.1341 102.38 25.0336V18.1741C102.38 17.9698 102.348 17.7669 102.283 17.573L102.255 17.4873C102.209 17.35 102.142 17.2209 102.055 17.105C101.949 16.9627 101.815 16.8428 101.663 16.7522L95.6452 13.184C95.535 13.1187 95.4036 13.0995 95.2794 13.1307C95.1543 13.162 95.0469 13.2418 94.9808 13.3524Z" fill="#C4D6FF"/>
<path d="M98.0039 20.5979L97.3229 20.1097L98.7821 18.0596L99.5604 18.5477L98.0039 20.5979Z" fill="#11265A"/>
<path d="M99.755 19.524V19.0358V18.9382L101.895 21.1836V21.6717L99.6577 21.5741V20.9884H101.117L99.755 19.524Z" fill="#11265A"/>
<path d="M97.1283 17.3762V17.9619L95.669 17.8643L97.031 19.3287V20.1097L95.0853 17.8643V17.2786C95.7015 17.3111 97.1283 17.3762 97.1283 17.3762Z" fill="#11265A"/>
<path d="M69.4972 38.7536C69.4211 38.7536 57.1621 45.9854 50.6513 49.8322C50.3908 49.9861 50.2349 50.2638 50.2349 50.5664C50.2349 50.8935 50.6697 51.0404 50.9522 51.2053L62.3955 57.8883L67.0651 60.6219L78.3196 67.1159C78.5975 67.2763 78.8998 67.3903 79.2144 67.4534L79.3989 67.4904C79.6062 67.532 79.8191 67.538 80.0284 67.508C80.2692 67.4734 80.5009 67.392 80.7103 67.2683L99.4184 56.2137C99.5097 56.1598 99.5836 56.0801 99.6309 55.9852C99.7075 55.8316 99.7078 55.6502 99.6312 55.4965C99.5836 55.401 99.5091 55.3214 99.4168 55.2677L71.3315 38.9153C71.1475 38.8081 70.948 38.73 70.7401 38.6837C70.3725 38.6017 69.9924 38.6322 69.628 38.7274C69.5665 38.7435 69.519 38.7536 69.4972 38.7536Z" stroke="#57CEED" stroke-width="0.482123"/>
<path d="M69.497 42.27C69.4208 42.27 57.1619 49.5018 50.651 53.3486C50.3905 53.5024 50.2346 53.7802 50.2346 54.0827C50.2346 54.4098 50.6695 54.5567 50.9519 54.7217L62.3952 61.4047L67.0649 64.1382L78.3193 70.6322C78.5973 70.7926 78.8995 70.9066 79.2142 70.9698L79.3986 71.0068C79.606 71.0484 79.8189 71.0543 80.0282 71.0243C80.269 70.9898 80.5007 70.9084 80.7101 70.7846L99.4181 59.7301C99.5094 59.6761 99.5834 59.5965 99.6306 59.5016C99.7072 59.3479 99.7076 59.1666 99.631 59.0129C99.5834 58.9173 99.5088 58.8378 99.4166 58.784L71.3313 42.4317C71.1472 42.3245 70.9478 42.2464 70.7399 42.2C70.3723 42.118 69.9922 42.1486 69.6277 42.2438C69.5663 42.2598 69.5187 42.27 69.497 42.27Z" stroke="#57CEED" stroke-width="0.321415"/>
<path d="M69.497 44.611C69.4208 44.611 57.1619 51.8429 50.651 55.6896C50.3905 55.8435 50.2346 56.1213 50.2346 56.4238C50.2346 56.7509 50.6695 56.8978 50.9519 57.0628L62.3952 63.7457L67.0649 66.4793L78.3193 72.9733C78.5973 73.1337 78.8995 73.2477 79.2142 73.3108L79.3986 73.3479C79.606 73.3895 79.8189 73.3954 80.0282 73.3654C80.269 73.3309 80.5007 73.2494 80.7101 73.1257L99.4181 62.0711C99.5094 62.0172 99.5834 61.9376 99.6306 61.8427C99.7072 61.689 99.7076 61.5076 99.631 61.354C99.5834 61.2584 99.5088 61.1788 99.4166 61.1251L71.3313 44.7727C71.1472 44.6656 70.9478 44.5874 70.7399 44.5411C70.3723 44.4591 69.9922 44.4897 69.6277 44.5848C69.5663 44.6009 69.5187 44.611 69.497 44.611Z" stroke="#57CEED" stroke-width="0.160708"/>
<path d="M50.2346 47.443V48.0288C50.2346 48.3559 50.6695 48.5028 50.9519 48.6677L62.1417 55.2026C62.3055 55.2983 62.4977 55.3336 62.6848 55.3023C62.8747 55.2705 63.0697 55.3073 63.2349 55.406L66.8987 57.5945C67.0018 57.6561 67.0649 57.7673 67.0649 57.8873C67.0649 58.0092 67.1299 58.1218 67.2355 58.1827L78.3193 64.5783C78.5973 64.7387 78.8995 64.8527 79.2142 64.9158L79.3986 64.9528C79.606 64.9944 79.8189 65.0004 80.0282 64.9704C80.269 64.9358 80.5007 64.8544 80.7101 64.7307L99.29 53.7518C99.4615 53.6505 99.5851 53.4847 99.6332 53.2915C99.6479 53.2327 99.6553 53.1723 99.6553 53.1117V52.6172L71.3284 36.3736C71.1462 36.2691 70.9493 36.1928 70.7443 36.147C70.3738 36.0644 69.9907 36.0957 69.6233 36.191C69.564 36.2063 69.5182 36.216 69.497 36.216C69.4192 36.216 56.623 43.6681 50.2346 47.443Z" fill="#6D8BEA"/>
<path d="M69.497 35.631C69.4208 35.631 57.1619 42.8629 50.651 46.7096C50.3905 46.8635 50.2346 47.1413 50.2346 47.4438C50.2346 47.7709 50.6695 47.9178 50.9519 48.0828L62.1417 54.6177C62.3055 54.7134 62.4977 54.7486 62.6848 54.7173C62.8747 54.6856 63.0697 54.7223 63.2349 54.821L66.8987 57.0095C67.0018 57.0711 67.0649 57.1823 67.0649 57.3023C67.0649 57.4242 67.1299 57.5368 67.2355 57.5977L78.3193 63.9933C78.5973 64.1537 78.8995 64.2677 79.2142 64.3309L79.3986 64.3679C79.606 64.4095 79.8189 64.4154 80.0282 64.3854C80.269 64.3509 80.5007 64.2694 80.7101 64.1457L99.4181 53.0911C99.5094 53.0372 99.5834 52.9576 99.6306 52.8627C99.7072 52.709 99.7076 52.5276 99.631 52.374C99.5834 52.2784 99.5088 52.1989 99.4166 52.1451L71.3313 35.7927C71.1472 35.6856 70.9478 35.6075 70.7399 35.5611C70.3723 35.4791 69.9922 35.5097 69.6277 35.6048C69.5663 35.6209 69.5187 35.631 69.497 35.631Z" fill="#BFD6FE"/>
<path d="M66.1115 47.6156L59.4484 51.4868C59.2904 51.5786 59.2082 51.7607 59.2439 51.9399C59.2678 52.0598 59.3419 52.1637 59.4474 52.2254L71.3402 59.1794C71.5344 59.2929 71.7552 59.3527 71.98 59.3527C72.2012 59.3527 72.4186 59.2948 72.6105 59.1848L79.5965 55.1788C79.7277 55.1036 79.8086 54.9639 79.8086 54.8128C79.8086 54.662 79.7281 54.5226 79.5975 54.4473L67.7494 47.6131C67.5542 47.5005 67.3378 47.4295 67.1138 47.4045C66.7657 47.3657 66.4144 47.4397 66.1115 47.6156Z" fill="#A4B9DF"/>
<path d="M69.7543 37.7336L69.7651 37.7357C69.9095 37.7647 70.0483 37.8169 70.176 37.8903L96.0255 52.7408C96.1068 52.7875 96.1656 52.8654 96.1882 52.9563C96.225 53.1037 96.1609 53.2577 96.0306 53.3355L95.2694 53.7902L93.4716 54.8641L91.6777 55.9356L89.8293 57.0397L88.1592 58.0373C88.1092 58.0672 88.0468 58.0677 87.9964 58.0385L84.284 55.8923L82.3365 54.7665L80.31 53.5949L78.4524 52.5211L69.1076 47.1187L67.2592 46.0501L65.2805 44.9062L61.4609 42.6981C61.3555 42.6372 61.3535 42.4858 61.4572 42.422L62.9787 41.4869L64.8271 40.3507L66.5782 39.2744L68.375 38.17L68.8114 37.9018C68.943 37.8209 69.0878 37.764 69.2392 37.7336C69.4092 37.6995 69.5843 37.6995 69.7543 37.7336Z" fill="#1F2973"/>
<path d="M89.8293 57.0397L88.1592 58.0373C88.1092 58.0672 88.0468 58.0677 87.9964 58.0385L84.284 55.8923M89.8293 57.0397L91.6777 55.9356M89.8293 57.0397L86.7161 55.2365M62.9787 41.4869L61.4572 42.422C61.3535 42.4858 61.3555 42.6372 61.4609 42.6981L65.2805 44.9062M62.9787 41.4869L64.8271 40.3507M62.9787 41.4869L65.8972 43.1774M65.2805 44.9062L66.9673 43.7973M65.2805 44.9062L67.2592 46.0501M66.9673 43.7973L65.8972 43.1774M66.9673 43.7973L67.8429 44.3044M67.2592 46.0501L68.8158 44.8679M67.2592 46.0501L69.1076 47.1187M68.8158 44.8679L67.8429 44.3044M68.8158 44.8679L69.6913 45.3751M69.1076 47.1187C69.2633 47.0669 70.275 46.348 70.7614 45.9949M69.1076 47.1187L78.4524 52.5211M70.7614 45.9949L69.6913 45.3751M70.7614 45.9949L71.5397 46.4458M78.4524 52.5211C78.6037 52.443 79.6144 51.7442 80.1008 51.4046M78.4524 52.5211L80.31 53.5949M80.1008 51.4046L79.1629 50.8614M80.1008 51.4046L80.9222 51.8804M80.31 53.5949L82.0282 52.5211M80.31 53.5949L82.3365 54.7665M82.0282 52.5211L80.9222 51.8804M82.0282 52.5211L82.8709 53.0092M82.3365 54.7665C82.338 54.6884 83.3675 53.9529 83.8821 53.5949M82.3365 54.7665L84.284 55.8923M83.8821 53.5949L82.8709 53.0092M83.8821 53.5949L84.8107 54.1328M84.284 55.8923L85.8406 54.7294M85.8406 54.7294L84.8107 54.1328M85.8406 54.7294L86.7161 55.2365M64.8271 40.3507L66.5782 39.2744M64.8271 40.3507L67.2477 41.7558M91.6777 55.9356L93.4716 54.8641M91.6777 55.9356L89.9265 54.9192M93.4716 54.8641L95.2694 53.7902M93.4716 54.8641L91.6777 53.8242M66.5782 39.2744L68.375 38.17M66.5782 39.2744L68.375 40.316M68.375 38.17L68.8114 37.9018C68.943 37.8209 69.0878 37.764 69.2392 37.7336V37.7336C69.4092 37.6995 69.5843 37.6995 69.7543 37.7336L69.7651 37.7357C69.9095 37.7647 70.0483 37.8169 70.176 37.8903L96.0255 52.7408C96.1068 52.7875 96.1656 52.8654 96.1882 52.9563V52.9563C96.225 53.1037 96.1609 53.2577 96.0306 53.3355L95.2694 53.7902M68.375 38.17L70.1777 39.217M95.2694 53.7902L92.7481 52.3258M70.1777 39.217L68.375 40.316M70.1777 39.217L72.0699 40.316M68.375 40.316L68.913 40.6279M72.0699 40.316L70.275 41.4174M72.0699 40.316L73.9663 41.4174M70.275 41.4174L70.8587 41.7558M70.275 41.4174L68.913 40.6279M73.9663 41.4174L72.2207 42.5453M73.9663 41.4174L75.9082 42.5453M72.2207 42.5453L72.7071 42.8273M72.2207 42.5453L70.8587 41.7558M75.9082 42.5453L74.1041 43.6371M75.9082 42.5453L77.6687 43.5677M74.1041 43.6371L74.5556 43.8988M74.1041 43.6371L72.7071 42.8273M77.6687 43.5677L76.0148 44.7447M77.6687 43.5677L79.5171 44.6413M76.0148 44.7447L76.5012 45.0266M76.0148 44.7447L74.5556 43.8988M77.9605 45.8726L79.5171 44.6413M77.9605 45.8726L78.4469 46.1545M77.9605 45.8726L76.5012 45.0266M79.5171 44.6413L81.4628 45.7713M79.8089 46.944C79.8868 46.8758 80.9439 46.1338 81.4628 45.7713M79.8089 46.944L80.2954 47.226M79.8089 46.944L78.4469 46.1545M81.4628 45.7713L83.335 46.8587M83.335 46.8587L81.5601 47.9591M83.335 46.8587L85.2297 47.9591M81.5601 47.9591L82.188 48.3231M81.5601 47.9591L80.2954 47.226M83.5353 49.1041L85.2297 47.9591M83.5353 49.1041L83.9922 49.369M83.5353 49.1041L82.188 48.3231M85.2297 47.9591L87.2011 49.1041M85.5487 50.2713C85.6266 50.1186 86.6827 49.4296 87.2011 49.1041M85.5487 50.2713L85.8406 50.4405M85.5487 50.2713L83.9922 49.369M87.2011 49.1041L88.9537 50.122M87.4181 51.355L88.9537 50.122M87.4181 51.355L87.8836 51.6248M87.4181 51.355L85.8406 50.4405M88.9537 50.122L90.8991 51.2519M89.2613 52.4234L90.8991 51.2519M89.2613 52.4234L89.6347 52.6399M89.2613 52.4234L87.8836 51.6248M90.8991 51.2519L92.7481 52.3258M91.1912 53.5422C91.2691 53.4282 92.2616 52.6838 92.7481 52.3258M91.1912 53.5422L91.6777 53.8242M91.1912 53.5422L89.6347 52.6399M91.6777 53.8242L89.9265 54.9192M89.9265 54.9192L88.37 54.0158M87.9814 53.7902C88.0588 53.7902 89.1158 53.0233 89.6347 52.6399M87.9814 53.7902L86.4676 52.9116M87.9814 53.7902L88.37 54.0158M87.8836 51.6248C87.8057 51.717 86.6837 52.3914 86.1324 52.717M86.1324 52.717L84.6174 51.8377M86.1324 52.717L86.4676 52.9116M84.2507 51.6248C84.2774 51.5608 85.3217 50.8086 85.8406 50.4405M84.2507 51.6248L82.7275 50.7407M84.2507 51.6248L84.6174 51.8377M82.3365 50.5137L83.9922 49.369M82.3365 50.5137L80.8425 49.6466M82.3365 50.5137L82.7275 50.7407M80.4899 49.4419L82.188 48.3231M80.4899 49.4419L78.8988 48.5184M80.4899 49.4419L80.8425 49.6466M78.5624 48.3231L80.2954 47.226M78.5624 48.3231L77.085 47.4656M78.5624 48.3231L78.8988 48.5184M76.6722 47.226L78.4469 46.1545M76.6722 47.226L75.1985 46.3706M76.6722 47.226L77.085 47.4656M74.8262 46.1545L76.5012 45.0266M74.8262 46.1545L73.2908 45.2634M74.8262 46.1545L75.1985 46.3706M72.8044 44.981L74.5556 43.8988M72.8044 44.981L71.4424 44.1905M72.8044 44.981L73.2908 45.2634M71.0533 43.9646C71.637 43.5434 72.785 42.7261 72.7071 42.8273M71.0533 43.9646L69.5407 43.0867M71.0533 43.9646L71.4424 44.1905M69.2049 42.8918L70.8587 41.7558M69.2049 42.8918L67.6296 41.9774M69.2049 42.8918L69.5407 43.0867M67.2477 41.7558C67.3347 41.6988 68.3942 40.9801 68.913 40.6279M67.2477 41.7558L67.6296 41.9774M65.8972 43.1774C65.975 43.1546 67.0846 42.3679 67.6296 41.9774M67.8429 44.3044C67.8429 44.2392 68.9748 43.4654 69.5407 43.0867M69.6913 45.3751C69.7691 45.3124 70.8912 44.5592 71.4424 44.1905M71.5397 46.4458C71.5397 46.3856 72.7071 45.6325 73.2908 45.2634M71.5397 46.4458L73.4325 47.5421M73.4325 47.5421C73.4748 47.464 74.6274 46.7286 75.1985 46.3706M73.4325 47.5421L75.2865 48.616M75.2865 48.616C75.3244 48.616 76.5012 47.8491 77.085 47.4656M75.2865 48.616L77.1404 49.6899M77.1404 49.6899C77.2517 49.6899 78.359 48.9089 78.8988 48.5184M77.1404 49.6899L79.1629 50.8614M79.1629 50.8614C79.2128 50.8614 80.3034 50.0515 80.8425 49.6466M80.9222 51.8804L82.7275 50.7407M82.8709 53.0092L84.6174 51.8377M84.8107 54.1328L86.4676 52.9116M86.7161 55.2365L88.37 54.0158" stroke="#BED5FD" stroke-width="0.321415"/>
<path d="M70.6456 34.4776L70.6601 34.5116C70.7282 34.671 70.8174 34.8205 70.9255 34.956C71.0751 35.1436 71.2583 35.3017 71.4659 35.422L99.7787 51.8358C99.8879 51.8991 100.016 51.9203 100.14 51.8954C100.322 51.8589 100.471 51.7276 100.529 51.5513L100.587 51.3782C100.615 51.2937 100.629 51.2052 100.629 51.1161V29.6162C100.629 29.332 100.583 29.0496 100.494 28.7798L100.474 28.7204C100.448 28.6411 100.416 28.5638 100.379 28.489C100.225 28.1801 99.9838 27.923 99.6856 27.7492L71.8328 11.5168L71.5615 11.4001C71.305 11.2897 71.0106 11.3125 70.774 11.4608C70.525 11.617 70.3743 11.8908 70.3756 12.1847L70.4689 33.6234C70.4702 33.9171 70.5302 34.2075 70.6456 34.4776Z" fill="#7588E6"/>
<path d="M70.256 34.675L70.2697 34.7071C70.3378 34.8665 70.4271 35.016 70.5351 35.1516C70.6847 35.3392 70.868 35.4972 71.0755 35.6175L99.3884 52.0313C99.4975 52.0946 99.626 52.1158 99.7497 52.091C99.9318 52.0545 100.08 51.9231 100.139 51.7468L100.196 51.5738C100.224 51.4892 100.239 51.4007 100.239 51.3117V29.8118C100.239 29.5275 100.193 29.2451 100.103 28.9754L100.084 28.916C100.057 28.8367 100.025 28.7594 99.9882 28.6846C99.8343 28.3757 99.5934 28.1185 99.2953 27.9448L71.4424 11.7123L71.1645 11.5928C70.9144 11.4852 70.6261 11.5164 70.4048 11.6751C70.2012 11.821 70.0804 12.0561 70.0804 12.3066V33.8169C70.0804 34.1119 70.1402 34.4038 70.256 34.675Z" fill="#212C73"/>
<path d="M70.8582 13.2404V33.8658C70.8582 34.1251 70.9347 34.3786 71.0782 34.5947C71.1895 34.7621 71.3376 34.9019 71.5112 35.0033L99.0653 51.0928C99.1306 51.1309 99.2091 51.139 99.2808 51.115C99.3878 51.0792 99.4599 50.9791 99.4599 50.8663V30.0607C99.4599 29.8712 99.4159 29.6843 99.3314 29.5148C99.2248 29.3008 99.0579 29.1228 98.8514 29.0026L71.3136 12.9785C71.2135 12.9202 71.089 12.9241 70.9927 12.9885C70.9086 13.0448 70.8582 13.1393 70.8582 13.2404Z" fill="#2A37A0"/>
<path d="M84.8669 20.4238V20.3046C84.8669 20.1299 85.0559 20.0204 85.2074 20.1074L85.399 20.2172C85.4911 20.27 85.5479 20.3681 85.5479 20.4743V20.5935C85.5479 20.7682 85.359 20.8777 85.2074 20.7907L85.0159 20.6809C84.9238 20.6281 84.8669 20.53 84.8669 20.4238Z" fill="#3A4F91"/>
<path d="M47.0538 28.7936L31.3917 37.8428C31.2467 37.9266 31.1374 38.0608 31.0846 38.2197C31.0141 38.4319 31.0519 38.6654 31.1858 38.8446C31.2374 38.9137 31.3016 38.9723 31.375 39.0175L38.2227 43.2322C38.4462 43.3697 38.691 43.4691 38.9471 43.5262C39.2694 43.5981 39.603 43.6016 39.9267 43.5367L39.9875 43.5245C40.2665 43.4685 40.5346 43.368 40.7817 43.227L56.3682 34.3293C56.553 34.2238 56.6923 34.0538 56.7594 33.8518C56.8181 33.6751 56.8179 33.4836 56.7592 33.307C56.6924 33.1058 56.5539 32.9353 56.3704 32.829L49.4301 28.811C49.1898 28.6719 48.9274 28.5753 48.6543 28.5255L48.6277 28.5206C48.2149 28.4453 47.7894 28.4836 47.3967 28.6314C47.2782 28.676 47.1635 28.7302 47.0538 28.7936Z" stroke="#57CEED" stroke-width="0.482123"/>
<path d="M47.2488 34.8468L31.5866 43.8961C31.4416 43.9798 31.3324 44.114 31.2796 44.2729C31.2091 44.4852 31.2468 44.7187 31.3807 44.8978C31.4323 44.9669 31.4966 45.0256 31.57 45.0708L38.4176 49.2854C38.6411 49.4229 38.886 49.5223 39.1421 49.5794C39.4643 49.6513 39.798 49.6549 40.1217 49.5899L40.1825 49.5777C40.4614 49.5217 40.7296 49.4213 40.9767 49.2802L56.5631 40.3825C56.7479 40.277 56.8873 40.107 56.9544 39.905C57.013 39.7284 57.0128 39.5369 56.9542 39.3602C56.8873 39.159 56.7488 38.9885 56.5654 38.8823L49.625 34.8642C49.3848 34.7251 49.1223 34.6285 48.8492 34.5787L48.8227 34.5738C48.4099 34.4985 47.9844 34.5368 47.5916 34.6846C47.4731 34.7292 47.3584 34.7835 47.2488 34.8468Z" stroke="#57CEED" stroke-width="0.160708"/>
<path d="M47.2488 32.1144L31.5866 41.1636C31.4416 41.2474 31.3324 41.3816 31.2796 41.5405C31.2091 41.7527 31.2468 41.9862 31.3807 42.1654C31.4323 42.2345 31.4966 42.2931 31.57 42.3383L38.4176 46.553C38.6411 46.6905 38.886 46.7899 39.1421 46.847C39.4643 46.9189 39.798 46.9224 40.1217 46.8575L40.1825 46.8453C40.4614 46.7893 40.7296 46.6888 40.9767 46.5478L56.5631 37.6501C56.7479 37.5446 56.8873 37.3746 56.9544 37.1726C57.013 36.9959 57.0128 36.8044 56.9542 36.6278C56.8873 36.4266 56.7488 36.2561 56.5654 36.1498L49.625 32.1318C49.3848 31.9927 49.1223 31.8961 48.8492 31.8463L48.8227 31.8414C48.4099 31.7661 47.9844 31.8044 47.5916 31.9522C47.4731 31.9968 47.3584 32.051 47.2488 32.1144Z" stroke="#57CEED" stroke-width="0.321415"/>
<path d="M31.2634 35.8291V36.2178C31.2634 36.3474 31.2935 36.4752 31.3513 36.5912C31.421 36.7311 31.5286 36.8488 31.6618 36.9308L38.4168 41.0884C38.6403 41.2259 38.8851 41.3253 39.1412 41.3824C39.4635 41.4543 39.7971 41.4578 40.1208 41.3929L40.1816 41.3807C40.4606 41.3247 40.7287 41.2242 40.9758 41.0832L56.5623 32.1855C56.7471 32.08 56.8864 31.91 56.9535 31.708C57.0122 31.5313 57.0122 31.3405 56.9535 31.1638L56.8493 30.8501L49.6242 26.6672C49.3839 26.5281 49.1215 26.4315 48.8484 26.3817L48.8242 26.3772C48.4098 26.3017 47.9828 26.3401 47.5886 26.4884C47.4715 26.5325 47.3582 26.5859 47.2497 26.6482L31.2634 35.8291Z" fill="#5B7ACA"/>
<path d="M47.2471 26.1605L31.5849 35.2098C31.4399 35.2936 31.3307 35.4277 31.2779 35.5866C31.2074 35.7989 31.2451 36.0324 31.379 36.2115C31.4306 36.2806 31.4948 36.3393 31.5683 36.3845L38.4159 40.5991C38.6394 40.7367 38.8842 40.836 39.1404 40.8932C39.4626 40.965 39.7963 40.9686 40.1199 40.9036L40.1807 40.8914C40.4597 40.8354 40.7279 40.735 40.975 40.5939L56.5614 31.6963C56.7462 31.5908 56.8856 31.4207 56.9527 31.2187C57.0113 31.0421 57.0111 30.8506 56.9524 30.6739C56.8856 30.4727 56.7471 30.3022 56.5636 30.196L49.6233 26.1779C49.3831 26.0388 49.1206 25.9422 48.8475 25.8924L48.821 25.8876C48.4082 25.8122 47.9827 25.8505 47.5899 25.9983C47.4714 26.0429 47.3567 26.0972 47.2471 26.1605Z" fill="#CCE3FE"/>
<path d="M40.1045 40.2804L32.1299 35.6196C31.9172 35.4952 31.9177 35.1876 32.1309 35.064L47.1527 26.3564C47.2535 26.298 47.3781 26.2987 47.4783 26.3583L55.9327 31.3928C56.0383 31.4557 56.0371 31.6092 55.9304 31.6703L40.9097 40.2837C40.66 40.4269 40.3529 40.4256 40.1045 40.2804Z" fill="#2E3AA3"/>
<path d="M53.1069 28.8063L51.4913 27.7824C51.438 27.7486 51.3685 27.7564 51.324 27.801C51.2632 27.862 51.2745 27.9636 51.3472 28.0097L52.9628 29.0336C53.0161 29.0674 53.0856 29.0596 53.1302 29.0149C53.1909 28.954 53.1796 28.8524 53.1069 28.8063Z" fill="#21286A"/>
<path d="M50.8789 27.4157L50.6975 27.3073C50.6391 27.2724 50.5638 27.2859 50.5211 27.339C50.4691 27.4036 50.4862 27.4992 50.5573 27.5417L50.7387 27.6501C50.7971 27.6851 50.8724 27.6715 50.9151 27.6185C50.9671 27.5539 50.95 27.4583 50.8789 27.4157Z" fill="#21286A"/>
<path d="M107.779 71.9485C107.779 72.69 107.263 73.4057 106.331 73.9493C105.406 74.4896 104.112 74.8315 102.67 74.8315C101.227 74.8315 99.9329 74.4896 99.0076 73.9493C98.0764 73.4057 97.5599 72.69 97.5599 71.9485C97.5599 71.207 98.0764 70.4913 99.0076 69.9476C99.9329 69.4074 101.227 69.0655 102.67 69.0655C104.112 69.0655 105.406 69.4074 106.331 69.9476C107.263 70.4913 107.779 71.207 107.779 71.9485Z" stroke="#57CEED" stroke-width="0.482123"/>
<path d="M108.054 74.8762C108.054 75.6581 107.51 76.3956 106.567 76.9465C105.627 77.4951 104.318 77.8396 102.864 77.8396C101.41 77.8396 100.101 77.4951 99.1618 76.9465C98.2182 76.3956 97.6743 75.6581 97.6743 74.8762C97.6743 74.0944 98.2182 73.3569 99.1618 72.806C100.101 72.2574 101.41 71.9129 102.864 71.9129C104.318 71.9129 105.627 72.2574 106.567 72.806C107.51 73.3569 108.054 74.0944 108.054 74.8762Z" stroke="#57CEED" stroke-width="0.321415"/>
<path d="M107.94 77.0256C107.94 77.8479 107.368 78.6072 106.412 79.1653C105.458 79.7223 104.135 80.0693 102.669 80.0693C101.203 80.0693 99.8802 79.7223 98.9263 79.1653C97.9704 78.6072 97.399 77.8479 97.399 77.0256C97.399 76.2034 97.9704 75.4441 98.9263 74.886C99.8802 74.329 101.203 73.982 102.669 73.982C104.135 73.982 105.458 74.329 106.412 74.886C107.368 75.4441 107.94 76.2034 107.94 77.0256Z" stroke="#57CEED" stroke-width="0.160708"/>
<path d="M108.215 69.801C108.215 71.5264 105.819 72.9251 102.864 72.9251C99.9091 72.9251 97.5135 71.5264 97.5135 69.801C97.5135 68.0757 99.9091 66.677 102.864 66.677C105.819 66.677 108.215 68.0757 108.215 69.801Z" fill="#6082FD"/>
<rect x="97.5135" y="59.4524" width="10.7013" height="10.5436" fill="#6082FD"/>
<path d="M108.215 59.6467C108.215 61.3721 105.819 62.7708 102.864 62.7708C99.9091 62.7708 97.5135 61.3721 97.5135 59.6467C97.5135 57.9214 99.9091 56.5227 102.864 56.5227C105.819 56.5227 108.215 57.9214 108.215 59.6467Z" fill="#1F2973"/>
<path fill-rule="evenodd" clip-rule="evenodd" d="M108.047 60.4276C108.157 60.1781 108.215 59.9165 108.215 59.647C108.215 57.9216 105.819 56.5229 102.864 56.5229C99.9092 56.5229 97.5137 57.9216 97.5137 59.647C97.5137 59.9164 97.5721 60.1778 97.6819 60.4272C98.2757 59.0796 100.371 58.0838 102.864 58.0838C105.358 58.0838 107.453 59.0798 108.047 60.4276Z" fill="#6082FD"/>
<path d="M108.054 59.6467C108.054 60.4286 107.51 61.1661 106.567 61.717C105.627 62.2656 104.318 62.6101 102.864 62.6101C101.41 62.6101 100.101 62.2656 99.1618 61.717C98.2182 61.1661 97.6743 60.4286 97.6743 59.6467C97.6743 58.8649 98.2182 58.1274 99.1618 57.5765C100.101 57.0279 101.41 56.6834 102.864 56.6834C104.318 56.6834 105.627 57.0279 106.567 57.5765C107.51 58.1274 108.054 58.8649 108.054 59.6467Z" stroke="white" stroke-width="0.321415"/>
<path d="M108.937 64.1805L108.019 63.2589C107.799 63.0386 107.448 63.0227 107.209 63.2222C107.104 63.3099 107.032 63.4309 107.006 63.565L106.914 64.0269C106.873 64.2303 106.866 64.4389 106.891 64.6447L107.025 65.7176C107.04 65.8362 107.068 65.9526 107.11 66.0645L107.189 66.2767C107.285 66.5324 107.481 66.738 107.732 66.8459C107.919 66.9267 108.078 67.0629 108.186 67.2364L108.306 67.4289C108.438 67.641 108.522 67.8794 108.553 68.1274L108.581 68.3484C108.596 68.4703 108.596 68.5936 108.581 68.7155L108.552 68.9433C108.523 69.1804 108.402 69.3966 108.216 69.5461C108.088 69.6491 107.934 69.7158 107.771 69.7391L107.509 69.7766C107.397 69.7927 107.283 69.7824 107.176 69.7464C106.786 69.6161 106.366 69.8342 106.248 70.2277L106.208 70.3634C106.184 70.4437 106.172 70.527 106.172 70.6109V70.9681C106.172 71.0995 106.202 71.229 106.261 71.3466C106.387 71.6008 106.633 71.7748 106.915 71.8102L107.599 71.8961C107.877 71.9309 108.159 71.9108 108.429 71.8369L108.477 71.8237C108.879 71.7138 109.245 71.5008 109.539 71.2059L109.718 71.0256C109.883 70.8607 110.026 70.6763 110.145 70.4765C110.41 70.0345 110.549 69.5291 110.549 69.0141V68.6296L110.355 67.1652L110.213 66.6306C110.049 66.0145 109.791 65.4275 109.447 64.8906L109.207 64.5166C109.129 64.3952 109.039 64.2825 108.937 64.1805Z" fill="#6082FD"/>
<path d="M74.6527 21.0845L79.5169 23.9156M74.5554 22.6465L77.5712 24.4038M74.5554 24.1109L80.6844 27.723M74.5554 27.2349L76.3065 28.3088M74.5554 30.2613L79.4197 33.0925" stroke="#DC6E9A" stroke-width="0.482123" stroke-linecap="round"/>
<path d="M80.3914 24.5022L87.8824 28.7977M88.6606 29.2859L94.6923 32.8004M88.6606 30.8479C88.7385 30.926 91.7413 32.7028 93.233 33.5814M81.5588 28.212L89.8281 33.0933M77.2783 27.1381C77.3561 27.2162 84.2504 31.336 87.6878 33.3862M88.7579 33.9719L94.4977 37.2912M77.2783 28.7977L87.6878 34.9482M78.543 31.0431L87.6878 36.4126M88.6606 36.9007L94.4977 40.3176M80.2941 33.5814C80.5276 33.7376 85.3205 36.5753 87.6878 37.9746" stroke="#C6DCFF" stroke-width="0.482123" stroke-linecap="round"/>
<path d="M78.3495 24.793L87.8834 30.26M90.7047 33.5793L94.6934 35.9223M88.8563 35.5318C88.9341 35.6099 92.6504 37.7122 94.4988 38.7535M88.8563 38.5583L94.4988 41.8775M74.5554 28.698C74.8667 28.8542 76.6308 29.9346 77.474 30.4553M74.5554 25.574L76.3065 26.6479" stroke="#47ECF4" stroke-width="0.482123" stroke-linecap="round"/>
<path d="M135.066 69.875L127.448 74.162L128.872 82.5931L129.655 82.8789L132.788 81.9501L135.707 79.3779L135.849 70.1608L135.066 69.875Z" fill="#6993FF"/>
<path d="M135.85 70.1609L128.232 74.4479L129.656 82.879L132.789 81.9502L135.708 79.378L135.85 70.1609Z" fill="#E44D26"/>
<path d="M135.137 71.3032C134.259 71.7796 132.417 72.7751 132.075 72.9466L132.645 81.3062L135.137 79.0198V71.3032Z" fill="#F16529"/>
<path d="M134.496 72.7336C133.025 73.591 130.025 75.3344 129.797 75.4487L130.366 78.664L133.642 76.8778V78.2353L132.645 79.0927L131.506 79.3785L131.363 78.664L130.366 79.2356L130.651 80.6646L132.858 80.0216L134.496 78.5211V75.1629L131.007 77.0207L130.865 75.9489L134.496 74.0197V72.7336Z" fill="white"/>
<path d="M34.6175 19.44C34.5047 16.4604 34.266 10.4295 34.2142 10.1428C36.636 8.78099 41.7657 5.99113 41.7657 5.99113L42.3785 6.71357L41.9513 16.4308L38.6761 19.44L35.2585 20.1462L34.6175 19.44Z" fill="#6993FF"/>
<path d="M35.2681 20.1597C35.1553 17.1801 34.9166 11.1492 34.8648 10.8624C37.2866 9.50067 42.3788 6.71434 42.3788 6.71434L41.9577 16.4213L38.6281 19.4342L35.2681 20.1597Z" fill="#264DE4"/>
<path d="M41.7546 7.84233L38.5904 9.57185L38.6416 18.6484L41.3216 16.1241L41.7546 7.84233Z" fill="#2965F1"/>
<path d="M36.2672 11.9589C36.2396 12.1728 36.1974 12.6722 36.2493 12.959L39.9144 11.0956L39.8939 12.2386L36.4436 14.0345L36.4219 15.2489L39.7298 13.4505L39.7004 15.0936L38.6134 16.1459L37.543 16.2696L37.5609 15.2694L36.4104 15.8919L36.5933 17.6102L38.7366 17.2201L40.8356 15.3284L40.943 9.3276L36.2672 11.9589Z" fill="white"/>
<path d="M35.5993 60.0161C33.0598 61.4451 27.9666 64.3031 27.9097 64.3031C28.0283 67.3278 28.3369 73.5202 28.3369 73.5202L29.0489 74.1632L31.6833 73.3773L35.1721 70.6622L36.3113 60.6592L35.5993 60.0161Z" fill="#6993FF"/>
<path d="M36.311 60.6594C33.7715 62.0884 28.6783 64.9464 28.6213 64.9464C28.74 67.9712 29.0485 74.1635 29.0485 74.1635L32.395 74.0206L35.8838 71.3055L36.311 60.6594Z" fill="#DAB92D"/>
<path d="M35.5985 61.8743L32.3232 63.6605V73.0205L35.2425 70.8055L35.5985 61.8743Z" fill="#FFD83A"/>
<path d="M31.8974 64.9474C31.7075 65.0665 31.3135 65.3189 31.2566 65.3761L31.1854 70.5205L29.7614 70.592V71.6637L31.8974 71.5208V64.9474Z" fill="white"/>
<path d="M32.6806 68.7342V64.733L35.1726 63.3755L35.0302 64.5187L33.4638 65.3761V67.0194L34.959 66.0906V69.4488L32.6806 71.1636V69.9489L34.1758 68.8771V67.7339L32.6806 68.7342Z" fill="white"/>
</svg>
