<svg width="148" height="130" viewBox="0 0 148 130" fill="none" xmlns="http://www.w3.org/2000/svg">
<g clip-path="url(#clip0_1106_4078)">
<path d="M56.2362 51.3736L35.8874 35.1128L32.7987 36.2029L29.6192 36.7479L27.5298 39.6549L27.1664 59.4587V62.0931L24.8954 64.8184L21.9884 65.8177V66.9078L24.2595 68.2704L27.1664 71.1774L28.7108 97.0676L50.7856 114.509H224.295L118.645 36.2029H111.469L81.9447 15.4907L83.3982 18.0343L83.1256 20.7596L80.2187 25.6651L74.3139 29.3897L68.0457 34.5677L66.138 38.1106L68.0457 43.7428L73.5871 48.7392L79.4919 53.1905L70.9527 53.8264L64.2303 49.3751L59.234 50.011L56.2362 51.3736Z" fill="url(#paint0_linear_1106_4078)"/>
<path fill-rule="evenodd" clip-rule="evenodd" d="M35.9782 34.9312V37.3839H32.7439C30.7585 37.3839 29.1407 38.9773 29.1106 40.9624L28.8245 59.7876C28.7702 63.3552 26.0288 66.2083 22.6174 66.5445C26.0287 66.8808 28.7701 69.7338 28.8243 73.3014L29.1104 92.1265C29.1406 94.1116 30.7584 95.705 32.7437 95.705H35.978V98.1578H31.7992C28.789 98.1578 26.3487 95.7175 26.3487 92.7072V73.9472C26.3487 70.8893 24.2401 68.2352 21.2615 67.5438V66.5445C21.2616 66.5445 21.2617 66.5445 21.2617 66.5445C21.2617 66.5445 21.2617 66.5445 21.2616 66.5445V65.5452C24.2403 64.8537 26.3488 62.1996 26.3488 59.1418V40.3817C26.3488 37.3715 28.7891 34.9312 31.7994 34.9312H35.9782Z" fill="white"/>
<path fill-rule="evenodd" clip-rule="evenodd" d="M111.196 34.9312V37.3839H114.43C116.415 37.3839 118.033 38.9773 118.063 40.9624L118.35 59.7876C118.404 63.3551 121.145 66.2082 124.556 66.5445C121.145 66.8807 118.404 69.7338 118.349 73.3014L118.063 92.1265C118.033 94.1116 116.415 95.705 114.43 95.705H111.196V98.1578H115.374C118.385 98.1578 120.825 95.7175 120.825 92.7072V73.9472C120.825 70.8893 122.933 68.2352 125.912 67.5438V66.5445C125.912 66.5445 125.912 66.5445 125.912 66.5445C125.912 66.5445 125.912 66.5445 125.912 66.5445V65.5452C122.934 64.8537 120.825 62.1996 120.825 59.1418V40.3817C120.825 37.3715 118.385 34.9312 115.375 34.9312H111.196Z" fill="white"/>
<path d="M102.406 86.1298H101.963V85.9426H103.151V86.1298H102.708V87.0745H102.406V86.1298ZM104.77 86.1833L104.327 87.0745H104.129L103.698 86.1833V87.0745H103.407V85.9426H103.838L104.246 86.7448L104.642 85.9426H105.073V87.0745H104.793L104.77 86.1833Z" fill="#E76F00"/>
<path d="M62.9159 63.0059C62.9159 63.0059 59.8525 64.3697 65.094 64.8331C71.4537 65.3857 74.7035 65.3055 81.7155 64.2894C81.7155 64.2894 83.556 65.1718 86.1301 65.9383C70.4288 71.099 50.5807 65.6442 62.9159 63.0059ZM61.0056 56.2766C61.0056 56.2766 57.5695 58.2286 62.8227 58.6386C69.6251 59.1733 74.983 59.2179 84.278 57.8542C84.278 57.8542 85.5594 58.8525 87.5861 59.3962C68.5651 63.6477 47.4009 59.7349 61.0056 56.2766Z" fill="#5382A1"/>
<path d="M77.1929 44.8734C81.0716 48.2871 76.1796 51.3531 76.1796 51.3531C76.1796 51.3531 86.0102 47.4671 81.5025 42.6005C77.2861 38.0638 74.048 35.8088 91.5662 28.0366C91.5429 28.0455 64.0659 33.2953 77.1929 44.8734Z" fill="#E76F00"/>
<path d="M97.9719 67.9792C97.9719 67.9792 100.243 69.4142 95.4676 70.5194C86.3939 72.6229 57.7052 73.2557 49.738 70.5996C46.8726 69.6459 52.2423 68.3179 53.9312 68.0416C55.6901 67.7474 56.7034 67.8009 56.7034 67.8009C53.5119 66.0807 36.1098 71.17 47.8626 72.6318C79.9176 76.6159 106.289 70.8492 97.9719 67.9792ZM64.391 49.3064C64.391 49.3064 49.7961 51.9624 59.2193 52.9251C63.2029 53.3351 71.1352 53.237 78.52 52.7646C84.5536 52.3724 90.6221 51.5435 90.6221 51.5435C90.6221 51.5435 88.4906 52.2387 86.953 53.0498C72.1369 56.0357 43.5064 54.6453 51.7531 51.597C58.7302 49.0211 64.391 49.3064 64.391 49.3064ZM90.5755 60.51C105.636 54.5205 98.6708 48.7626 93.8137 49.5381C92.6256 49.7252 92.0898 49.8946 92.0898 49.8946C92.0898 49.8946 92.5324 49.3687 93.371 49.137C102.992 46.5522 110.389 56.7666 90.261 60.8131C90.2726 60.8042 90.5056 60.6526 90.5755 60.51Z" fill="#5382A1"/>
<path d="M81.4931 15.4907C81.4931 15.4907 89.8331 21.8725 73.5843 31.6947C60.5504 39.5738 70.6141 44.066 73.5843 49.191C65.9783 43.9412 60.3873 39.3153 64.1379 35.0103C69.6241 28.6999 84.8594 25.6338 81.4931 15.4907Z" fill="#E70000"/>
<path d="M65.8704 76.743C80.3255 77.4472 102.538 76.3509 103.062 71.1189C103.062 71.1189 102.049 73.1065 91.1114 74.6841C78.7646 76.4578 63.5525 76.2528 54.5137 75.1119C54.5253 75.103 56.3657 76.2706 65.8704 76.743Z" fill="#5382A1"/>
<path d="M63.5093 96.737C62.1465 97.6461 60.7021 98.1541 59.4092 98.1541C57.5688 98.1541 56.5672 97.3074 56.5672 95.9526C56.5672 94.482 57.6387 93.4124 61.9252 93.4124H63.5093V96.737ZM67.2715 99.9902V89.9274C67.2715 87.3604 65.3613 85.658 60.7371 85.658C58.0464 85.658 55.6819 86.1661 53.76 86.8167L54.3191 88.5993C55.8333 88.1715 57.7901 87.7793 59.712 87.7793C62.3678 87.7793 63.5209 88.5993 63.5209 90.2928V91.5674H62.193C55.7285 91.5674 52.8164 93.4837 52.8164 96.3715C52.8164 98.8583 54.7384 100.275 58.3608 100.275C60.6904 100.275 62.426 99.5446 64.045 98.4661L64.3362 99.9902H67.2715ZM79.8279 99.9902H75.1338L69.4846 85.9165H73.5847L77.0907 94.5622L77.871 97.1648C79.6415 93.4035 80.8995 89.5887 81.5285 85.9165H85.5121C84.4521 90.5513 82.5302 95.6407 79.8279 99.9902ZM97.8355 96.737C96.4727 97.6461 95.0283 98.1541 93.7354 98.1541C91.8951 98.1541 90.8934 97.3074 90.8934 95.9526C90.8934 94.482 91.965 93.4124 96.2514 93.4124H97.8355V96.737ZM101.609 99.9902V89.9274C101.609 87.3604 99.6875 85.658 95.075 85.658C92.3727 85.658 90.0198 86.1661 88.0979 86.8167L88.657 88.5993C90.1712 88.1715 92.128 87.7793 94.0499 87.7793C96.7057 87.7793 97.8588 88.5993 97.8588 90.2928V91.5674H96.5309C90.0664 91.5674 87.1545 93.4837 87.1545 96.3715C87.1545 98.8583 89.0764 100.275 92.6872 100.275C95.0168 100.275 96.7523 99.5446 98.3714 98.4661L98.6626 99.9902H101.609ZM48.6699 102.379C47.5983 103.582 45.8627 104.527 43.9641 105.062L42.1005 103.386C43.5448 102.816 44.7795 101.907 45.3619 101.051C45.8628 100.293 46.0608 99.3128 46.0608 96.9776V80.9163H50.0559V96.7548C50.0676 99.8833 49.7415 101.149 48.6699 102.379Z" fill="#E70000"/>
</g>
<defs>
<linearGradient id="paint0_linear_1106_4078" x1="47.6061" y1="12.7654" x2="67.319" y2="114.509" gradientUnits="userSpaceOnUse">
<stop stop-color="#F19090"/>
<stop offset="1" stop-color="#D9D9D9" stop-opacity="0"/>
</linearGradient>
<clipPath id="clip0_1106_4078">
<rect width="148" height="130" fill="white"/>
</clipPath>
</defs>
</svg>
