<svg width="93" height="111" viewBox="0 0 93 111" fill="none" xmlns="http://www.w3.org/2000/svg">
<path d="M66.147 62.5424L65.4568 62.1063L65.3819 63.54L64.5248 62.9985L64.7468 58.7551L66.2863 59.7278C66.7225 60.0034 67.0511 60.3426 67.2721 60.7453C67.4932 61.1479 67.5923 61.5665 67.5696 62.001C67.5473 62.4273 67.4124 62.6928 67.1648 62.7973C66.9174 62.8998 66.5781 62.8148 66.147 62.5424ZM66.2254 60.6381L65.5557 60.215L65.5041 61.2031L66.1738 61.6262C66.3294 61.7246 66.4531 61.7589 66.5448 61.7291C66.6382 61.7005 66.689 61.6073 66.6972 61.4497C66.7056 61.2901 66.6675 61.1397 66.583 60.9987C66.5003 60.8567 66.3811 60.7365 66.2254 60.6381ZM71.2251 62.8484L69.7467 64.6102L69.6612 66.2439L68.8017 65.7008L68.8868 64.0732L67.6585 60.5949L68.6515 61.2223L69.3686 63.4257L70.2603 62.2388L71.2251 62.8484ZM74.3349 64.8133L74.2857 65.753L73.2235 65.0818L73.0507 68.3856L72.1937 67.8441L72.3665 64.5403L71.3016 63.8674L71.3508 62.9278L74.3349 64.8133ZM75.5816 65.6011L75.4962 67.2348L77.0075 68.1897L77.0929 66.556L77.9499 67.0975L77.728 71.3409L76.871 70.7994L76.9585 69.1263L75.4472 68.1714L75.3597 69.8445L74.5027 69.303L74.7246 65.0596L75.5816 65.6011ZM79.5816 68.2193C79.8235 68.2573 80.0804 68.3623 80.3524 68.5341C80.6244 68.706 80.8755 68.9221 81.1057 69.1823C81.336 69.4426 81.5281 69.7217 81.6822 70.0194C81.838 70.3182 81.9558 70.6338 82.0356 70.966C82.1155 71.2962 82.1473 71.6179 82.1309 71.9311C82.1146 72.2443 82.0522 72.5076 81.9438 72.721C81.8356 72.9323 81.6934 73.0825 81.5174 73.1717C81.343 73.2619 81.1349 73.288 80.893 73.25C80.6511 73.212 80.3942 73.107 80.1222 72.9352C79.8503 72.7633 79.5991 72.5472 79.3689 72.2869C79.1386 72.0267 78.9456 71.7471 78.7898 71.4483C78.6358 71.1505 78.5188 70.8365 78.4389 70.5063C78.359 70.1741 78.3273 69.8514 78.3437 69.5382C78.3601 69.225 78.4224 68.9627 78.5306 68.7514C78.639 68.538 78.7803 68.3862 78.9547 68.296C79.1308 68.2069 79.3397 68.1813 79.5816 68.2193ZM81.0022 70.3005C80.8277 69.9544 80.5942 69.6889 80.3017 69.5041C80.0092 69.3192 79.7629 69.2815 79.5627 69.391C79.3644 69.5015 79.2556 69.7386 79.2366 70.1024C79.2176 70.4661 79.2953 70.821 79.4699 71.1672C79.6461 71.5144 79.8805 71.7804 80.173 71.9652C80.4655 72.1501 80.7109 72.1872 80.9093 72.0767C81.1094 71.9672 81.219 71.7307 81.238 71.3669C81.257 71.0032 81.1784 70.6477 81.0022 70.3005ZM86.0606 72.2223L85.8387 76.4657L85.0151 75.9453L83.5134 72.3225L83.378 74.9109L82.521 74.3694L82.743 70.126L83.564 70.6448L85.0657 74.2677L85.2011 71.6792L86.0606 72.2223Z" fill="black"/>
<path d="M83.2128 49.2449C83.6058 49.4931 83.9591 49.8237 84.2727 50.2366C84.5865 50.6472 84.8208 51.0899 84.9758 51.5647L84.0861 51.6038C83.9895 51.328 83.8609 51.0833 83.7004 50.8698C83.54 50.654 83.3543 50.4793 83.1431 50.3459C82.8167 50.1396 82.54 50.1008 82.3131 50.2294C82.0864 50.3557 81.9622 50.6256 81.9406 51.039C81.9254 51.3299 81.9649 51.6173 82.0591 51.9011C82.1534 52.1826 82.2818 52.4307 82.4443 52.6455C82.6088 52.8592 82.7937 53.0309 82.999 53.1606C83.4173 53.4249 83.7588 53.4212 84.0235 53.1494L84.7918 54.3292C84.5826 54.5453 84.3196 54.651 84.0027 54.6465C83.6859 54.6419 83.3349 54.5179 82.9498 54.2746C82.637 54.077 82.35 53.8312 82.0886 53.5372C81.8273 53.2433 81.6076 52.9267 81.4295 52.5875C81.2534 52.2473 81.1197 51.8873 81.0285 51.5076C80.9373 51.1279 80.9012 50.7567 80.9201 50.3942C80.9391 50.0316 81.0105 49.7284 81.1343 49.4846C81.2581 49.2408 81.4196 49.0684 81.6188 48.9676C81.82 48.8658 82.0578 48.8371 82.3321 48.8816C82.6065 48.9261 82.9 49.0472 83.2128 49.2449ZM87.1097 56.5953L86.3414 56.1099L86.4036 54.9217L85.4065 54.2917L85.4531 53.4015L86.4501 54.0315L86.5123 52.8433L87.2805 53.3287L87.2184 54.5169L88.2154 55.1469L88.1689 56.0371L87.1719 55.4072L87.1097 56.5953ZM90.6263 58.8173L89.858 58.3319L89.9202 57.1437L88.9232 56.5137L88.9697 55.6235L89.9667 56.2534L90.0289 55.0653L90.7972 55.5507L90.735 56.7389L91.7321 57.3689L91.6855 58.2591L90.6885 57.6291L90.6263 58.8173Z" fill="black"/>
<path d="M67.3521 35.0169L67.1937 38.0444C67.1612 38.6656 66.9996 39.0537 66.7087 39.2087C66.418 39.3614 66.041 39.2914 65.5777 38.9986C65.2825 38.8121 65.0265 38.5907 64.8096 38.3344C64.5948 38.0794 64.4253 37.8244 64.3013 37.5695L64.8574 37.0155C65.044 37.3863 65.279 37.6612 65.5625 37.8403C65.9691 38.0973 66.1881 37.9255 66.2195 37.3251L66.3726 34.398L67.3521 35.0169ZM70.3333 36.9006L71.6544 42.7452L70.6104 42.0856L70.3529 40.8707L68.7224 39.8405L68.3583 40.6626L67.3349 40.0159L69.1632 36.1613L70.3333 36.9006ZM69.6779 37.6745L69.0938 38.9945L70.0909 39.6245L69.6779 37.6745ZM75.7483 40.3221L73.9786 44.2138L72.8115 43.4763L71.5462 37.6669L72.5872 38.3247L73.4633 42.6571L74.7278 39.6773L75.7483 40.3221ZM78.134 41.8295L79.4551 47.6741L78.4111 47.0145L78.1536 45.7996L76.5231 44.7694L76.159 45.5915L75.1356 44.9448L76.964 41.0902L78.134 41.8295ZM77.4786 42.6034L76.8945 43.9234L77.8916 44.5534L77.4786 42.6034Z" fill="black"/>
<path d="M57.4953 19.1921L56.7065 18.6937L56.6208 20.3322L55.6414 19.7133L55.895 14.8637L57.6544 15.9754C58.153 16.2904 58.5285 16.678 58.7811 17.1382C59.0337 17.5984 59.1471 18.0768 59.1211 18.5733C59.0956 19.0605 58.9414 19.3639 58.6585 19.4833C58.3757 19.6005 57.988 19.5034 57.4953 19.1921ZM57.5849 17.0157L56.8195 16.5321L56.7605 17.6614L57.5258 18.145C57.7037 18.2574 57.8451 18.2966 57.9498 18.2626C58.0566 18.2299 58.1146 18.1234 58.1241 17.9433C58.1336 17.7609 58.0901 17.589 57.9935 17.4278C57.899 17.2655 57.7628 17.1281 57.5849 17.0157ZM60.7347 17.9217L60.637 19.7888L62.3642 20.8801L62.4619 19.013L63.4413 19.6319L63.1877 24.4815L62.2083 23.8626L62.3083 21.9505L60.5811 20.8591L60.4811 22.7713L59.5016 22.1524L59.7552 17.3028L60.7347 17.9217ZM65.7886 24.4322L64.9998 23.9338L64.9141 25.5723L63.9346 24.9534L64.1883 20.1038L65.9477 21.2155C66.4462 21.5305 66.8218 21.9181 67.0744 22.3783C67.327 22.8385 67.4403 23.3169 67.4144 23.8134C67.3889 24.3007 67.2347 24.604 66.9518 24.7235C66.6689 24.8406 66.2812 24.7435 65.7886 24.4322ZM65.8782 22.2559L65.1128 21.7723L65.0537 22.9015L65.8191 23.3851C65.997 23.4975 66.1383 23.5367 66.2431 23.5028C66.3498 23.47 66.4079 23.3635 66.4173 23.1834C66.4269 23.001 66.3834 22.8291 66.2868 22.6679C66.1923 22.5056 66.0561 22.3683 65.8782 22.2559Z" fill="black"/>
<path d="M66.9186 35.0169L66.7603 38.0444C66.7278 38.6656 66.5661 39.0537 66.2753 39.2087C65.9845 39.3614 65.6075 39.2914 65.1442 38.9986C64.849 38.8121 64.593 38.5907 64.3762 38.3344C64.1613 38.0794 63.9919 37.8244 63.8679 37.5695L64.4239 37.0155C64.6105 37.3863 64.8456 37.6612 65.129 37.8403C65.5357 38.0973 65.7547 37.9255 65.7861 37.3251L65.9392 34.398L66.9186 35.0169ZM69.8998 36.9006L71.2209 42.7452L70.177 42.0856L69.9194 40.8707L68.289 39.8405L67.9249 40.6626L66.9014 40.0159L68.7298 36.1613L69.8998 36.9006ZM69.2444 37.6745L68.6604 38.9945L69.6574 39.6245L69.2444 37.6745ZM75.3149 40.3221L73.5452 44.2138L72.3781 43.4763L71.1127 37.6669L72.1537 38.3247L73.0298 42.6571L74.2944 39.6773L75.3149 40.3221ZM77.7005 41.8295L79.0216 47.6741L77.9777 47.0145L77.7201 45.7996L76.0897 44.7694L75.7256 45.5915L74.7022 44.9448L76.5305 41.0902L77.7005 41.8295ZM77.0451 42.6034L76.4611 43.9234L77.4581 44.5534L77.0451 42.6034Z" fill="#2DC4E4"/>
<path d="M57.2353 19.3654L56.4465 18.867L56.3608 20.5055L55.3814 19.8866L55.635 15.037L57.3944 16.1487C57.8929 16.4637 58.2685 16.8513 58.5211 17.3115C58.7737 17.7717 58.887 18.2501 58.8611 18.7466C58.8356 19.2339 58.6814 19.5372 58.3985 19.6567C58.1157 19.7738 57.7279 19.6767 57.2353 19.3654ZM57.3249 17.1891L56.5595 16.7055L56.5005 17.8347L57.2658 18.3183C57.4437 18.4308 57.5851 18.47 57.6898 18.436C57.7966 18.4032 57.8546 18.2968 57.8641 18.1166C57.8736 17.9342 57.8301 17.7624 57.7335 17.6011C57.639 17.4388 57.5028 17.3015 57.3249 17.1891ZM60.4747 18.095L60.377 19.9621L62.1042 21.0534L62.2019 19.1863L63.1813 19.8052L62.9277 24.6548L61.9483 24.036L62.0482 22.1238L60.3211 21.0325L60.2211 22.9446L59.2416 22.3258L59.4952 17.4761L60.4747 18.095ZM65.5286 24.6056L64.7397 24.1072L64.6541 25.7456L63.6746 25.1268L63.9282 20.2772L65.6877 21.3889C66.1862 21.7039 66.5618 22.0915 66.8144 22.5517C67.067 23.0119 67.1803 23.4902 67.1544 23.9867C67.1289 24.474 66.9747 24.7774 66.6917 24.8968C66.4089 25.0139 66.0212 24.9169 65.5286 24.6056ZM65.6181 22.4292L64.8528 21.9456L64.7937 23.0749L65.5591 23.5585C65.737 23.6709 65.8783 23.7101 65.9831 23.6761C66.0898 23.6433 66.1479 23.5369 66.1573 23.3568C66.1669 23.1743 66.1233 23.0025 66.0268 22.8413C65.9323 22.679 65.796 22.5416 65.6181 22.4292Z" fill="#D13A71"/>
<path d="M82.9527 49.3318C83.3456 49.58 83.6989 49.9106 84.0126 50.3235C84.3264 50.7341 84.5607 51.1768 84.7156 51.6516L83.826 51.6907C83.7293 51.4149 83.6008 51.1702 83.4403 50.9567C83.2799 50.7409 83.0941 50.5662 82.883 50.4328C82.5565 50.2266 82.2799 50.1877 82.053 50.3163C81.8263 50.4427 81.7021 50.7125 81.6805 51.1259C81.6653 51.4169 81.7048 51.7042 81.799 51.988C81.8933 52.2695 82.0217 52.5176 82.1841 52.7324C82.3487 52.9461 82.5336 53.1178 82.7388 53.2475C83.1572 53.5118 83.4987 53.5081 83.7633 53.2364L84.5317 54.4161C84.3225 54.6322 84.0594 54.7379 83.7426 54.7334C83.4258 54.7288 83.0748 54.6049 82.6897 54.3615C82.3769 54.1639 82.0898 53.9181 81.8285 53.6242C81.5672 53.3302 81.3475 53.0137 81.1693 52.6745C80.9932 52.3342 80.8596 51.9742 80.7684 51.5945C80.6772 51.2148 80.641 50.8436 80.66 50.4811C80.6789 50.1185 80.7503 49.8153 80.8742 49.5715C80.998 49.3277 81.1595 49.1554 81.3586 49.0546C81.5599 48.9527 81.7976 48.924 82.072 48.9685C82.3463 49.013 82.6399 49.1341 82.9527 49.3318ZM86.8496 56.6822L86.0813 56.1968L86.1434 55.0086L85.1464 54.3786L85.193 53.4884L86.19 54.1184L86.2521 52.9302L87.0204 53.4157L86.9583 54.6038L87.9553 55.2338L87.9087 56.124L86.9117 55.4941L86.8496 56.6822ZM90.3662 58.9042L89.5979 58.4188L89.66 57.2306L88.663 56.6006L88.7096 55.7104L89.7066 56.3404L89.7687 55.1522L90.537 55.6376L90.4749 56.8258L91.4719 57.4558L91.4254 58.346L90.4283 57.7161L90.3662 58.9042Z" fill="#437E9A"/>
<path d="M67.0475 49.1955C67.3266 49.2159 67.6291 49.3111 67.9552 49.4811C68.2812 49.6511 68.5876 49.8734 68.8745 50.1481C69.1614 50.4228 69.4066 50.7224 69.6103 51.0469C69.816 51.3725 69.98 51.7208 70.1023 52.0916C70.2246 52.4601 70.2912 52.8235 70.3022 53.1818C70.3132 53.5401 70.267 53.8458 70.1638 54.0991C70.0605 54.35 69.9128 54.5346 69.7207 54.6527C69.5307 54.772 69.2961 54.8214 69.0171 54.801C68.738 54.7806 68.4354 54.6854 68.1094 54.5154C67.7834 54.3454 67.4769 54.123 67.1901 53.8484C66.9032 53.5737 66.6569 53.2736 66.4512 52.9479C66.2476 52.6234 66.0846 52.2769 65.9624 51.9083C65.84 51.5375 65.7734 51.1729 65.7624 50.8147C65.7514 50.4564 65.7976 50.1518 65.9009 49.9009C66.0041 49.6476 66.1507 49.4614 66.3408 49.3421C66.5329 49.224 66.7684 49.1751 67.0475 49.1955ZM68.8624 51.4314C68.6309 51.0537 68.3398 50.7734 67.9892 50.5906C67.6385 50.4078 67.3544 50.3881 67.1369 50.5317C66.9214 50.6764 66.82 50.9567 66.8327 51.3728C66.8455 51.7888 66.9676 52.1857 67.1991 52.5635C67.4327 52.9423 67.7248 53.2231 68.0754 53.4059C68.426 53.5887 68.7091 53.6078 68.9246 53.4632C69.1422 53.3196 69.2446 53.0398 69.2318 52.6237C69.2191 52.2077 69.0959 51.8102 68.8624 51.4314ZM72.0095 51.7828C72.2886 51.8032 72.5912 51.8984 72.9172 52.0684C73.2432 52.2384 73.5497 52.4608 73.8365 52.7354C74.1234 53.0101 74.3687 53.3097 74.5723 53.6342C74.778 53.9598 74.942 54.3081 75.0644 54.6789C75.1866 55.0475 75.2532 55.4109 75.2642 55.7691C75.2752 56.1274 75.2291 56.4331 75.1259 56.6864C75.0226 56.9373 74.8749 57.1219 74.6828 57.24C74.4927 57.3593 74.2582 57.4087 73.9791 57.3883C73.7 57.3679 73.3975 57.2727 73.0714 57.1027C72.7454 56.9327 72.439 56.7103 72.1521 56.4357C71.8652 56.161 71.619 55.8609 71.4133 55.5353C71.2096 55.2107 71.0467 54.8642 70.9244 54.4957C70.8021 54.1248 70.7354 53.7602 70.7244 53.402C70.7134 53.0437 70.7596 52.7391 70.8629 52.4882C70.9661 52.2349 71.1127 52.0487 71.3028 51.9294C71.4949 51.8113 71.7305 51.7624 72.0095 51.7828ZM73.8244 54.0187C73.5929 53.641 73.3018 53.3607 72.9512 53.1779C72.6006 52.9951 72.3165 52.9754 72.0989 53.119C71.8834 53.2637 71.782 53.544 71.7948 53.9601C71.8075 54.3761 71.9297 54.773 72.1612 55.1508C72.3947 55.5296 72.6868 55.8104 73.0374 55.9932C73.3881 56.176 73.6711 56.1951 73.8866 56.0505C74.1042 55.9069 74.2066 55.6271 74.1939 55.211C74.1811 54.795 74.058 54.3975 73.8244 54.0187ZM77.7436 57.8364L76.9163 57.405L76.9665 59.0449L75.9392 58.5093L75.7905 53.6553L77.6359 54.6176C78.1588 54.8902 78.5652 55.2454 78.855 55.6831C79.1449 56.1208 79.2974 56.5882 79.3126 57.0851C79.3276 57.5728 79.199 57.8879 78.9269 58.0303C78.6548 58.1705 78.2604 58.1058 77.7436 57.8364ZM77.6527 55.6601L76.85 55.2415L76.8846 56.3718L77.6874 56.7904C77.874 56.8877 78.0181 56.915 78.1197 56.8725C78.2233 56.831 78.2724 56.7201 78.2669 56.5398C78.2613 56.3572 78.2037 56.1896 78.0941 56.0369C77.9864 55.883 77.8393 55.7574 77.6527 55.6601Z" fill="black"/>
<path d="M66.7873 49.3176C67.0663 49.338 67.3689 49.4332 67.6949 49.6032C68.0209 49.7732 68.3274 49.9955 68.6142 50.2702C68.9011 50.5449 69.1464 50.8445 69.35 51.169C69.5557 51.4946 69.7197 51.8428 69.8421 52.2137C69.9643 52.5822 70.0309 52.9456 70.0419 53.3039C70.0529 53.6622 70.0068 53.9679 69.9036 54.2211C69.8003 54.4721 69.6526 54.6566 69.4605 54.7748C69.2704 54.8941 69.0359 54.9435 68.7568 54.9231C68.4777 54.9026 68.1752 54.8074 67.8491 54.6374C67.5231 54.4674 67.2167 54.2451 66.9298 53.9704C66.6429 53.6958 66.3967 53.3956 66.191 53.07C65.9873 52.7455 65.8244 52.3989 65.7021 52.0304C65.5798 51.6596 65.5131 51.295 65.5021 50.9367C65.4912 50.5785 65.5373 50.2739 65.6406 50.0229C65.7438 49.7697 65.8904 49.5835 66.0805 49.4642C66.2726 49.346 66.5082 49.2971 66.7873 49.3176ZM68.6021 51.5535C68.3706 51.1758 68.0795 50.8955 67.7289 50.7127C67.3783 50.5298 67.0942 50.5102 66.8766 50.6538C66.6611 50.7984 66.5597 51.0788 66.5725 51.4948C66.5852 51.9109 66.7074 52.3078 66.9389 52.6855C67.1724 53.0643 67.4645 53.3451 67.8152 53.528C68.1658 53.7108 68.4489 53.7299 68.6644 53.5852C68.8819 53.4416 68.9843 53.1618 68.9716 52.7458C68.9588 52.3297 68.8357 51.9323 68.6021 51.5535ZM71.7493 51.9049C72.0284 51.9253 72.3309 52.0205 72.6569 52.1905C72.983 52.3605 73.2894 52.5828 73.5763 52.8575C73.8631 53.1322 74.1084 53.4318 74.312 53.7563C74.5177 54.0819 74.6818 54.4301 74.8041 54.801C74.9264 55.1695 74.993 55.5329 75.004 55.8912C75.0149 56.2495 74.9688 56.5552 74.8656 56.8085C74.7623 57.0594 74.6146 57.2439 74.4225 57.3621C74.2325 57.4814 73.9979 57.5308 73.7188 57.5104C73.4398 57.49 73.1372 57.3948 72.8112 57.2248C72.4852 57.0548 72.1787 56.8324 71.8918 56.5577C71.605 56.2831 71.3587 55.9829 71.153 55.6573C70.9494 55.3328 70.7864 54.9863 70.6641 54.6177C70.5418 54.2469 70.4751 53.8823 70.4642 53.524C70.4532 53.1658 70.4993 52.8612 70.6026 52.6103C70.7059 52.357 70.8525 52.1708 71.0425 52.0515C71.2346 51.9333 71.4702 51.8844 71.7493 51.9049ZM73.5641 54.1408C73.3326 53.7631 73.0416 53.4828 72.6909 53.3C72.3403 53.1171 72.0562 53.0975 71.8387 53.2411C71.6232 53.3857 71.5218 53.6661 71.5345 54.0822C71.5473 54.4982 71.6694 54.8951 71.9009 55.2728C72.1345 55.6516 72.4266 55.9324 72.7772 56.1153C73.1278 56.2981 73.4109 56.3172 73.6264 56.1725C73.8439 56.029 73.9463 55.7491 73.9336 55.3331C73.9209 54.917 73.7977 54.5196 73.5641 54.1408ZM77.4834 57.9585L76.656 57.5271L76.7062 59.167L75.679 58.6314L75.5302 53.7774L77.3757 54.7396C77.8986 55.0123 78.3049 55.3675 78.5948 55.8052C78.8846 56.2429 79.0371 56.7102 79.0524 57.2072C79.0673 57.6949 78.9387 58.01 78.6667 58.1524C78.3945 58.2926 78.0001 58.2279 77.4834 57.9585ZM77.3925 55.7822L76.5897 55.3636L76.6244 56.4939L77.4271 56.9124C77.6137 57.0097 77.7578 57.0371 77.8594 56.9946C77.9631 56.9531 78.0121 56.8422 78.0066 56.6619C78.001 56.4793 77.9434 56.3117 77.8338 56.159C77.7262 56.0051 77.5791 55.8795 77.3925 55.7822Z" fill="#2A8FDE"/>
<path d="M26.2973 3.75937C26.7755 4.00873 27.2158 4.35706 27.6181 4.80437C28.0204 5.249 28.3339 5.7384 28.5586 6.27256L27.5336 6.40319C27.3954 6.09358 27.2232 5.82302 27.0171 5.59152C26.811 5.35734 26.5794 5.17325 26.3224 5.03927C25.9251 4.8321 25.6014 4.81377 25.3515 4.98429C25.1014 5.15213 24.9838 5.47609 24.9985 5.95616C25.0088 6.29409 25.0821 6.6226 25.2183 6.9417C25.3544 7.25811 25.5267 7.53269 25.7352 7.76543C25.946 7.99673 26.1763 8.17751 26.4261 8.30777C26.9352 8.57326 27.3298 8.53617 27.6097 8.19652L28.6114 9.48685C28.3903 9.75684 28.0963 9.90441 27.7295 9.92956C27.3627 9.95472 26.9449 9.84509 26.4762 9.6007C26.0955 9.40221 25.74 9.14557 25.4096 8.83078C25.0792 8.516 24.7947 8.17105 24.5562 7.79592C24.3199 7.41936 24.1307 7.01593 23.9888 6.58563C23.8468 6.15533 23.7694 5.72965 23.7565 5.30858C23.7436 4.88751 23.797 4.53006 23.9168 4.23622C24.0366 3.94239 24.2068 3.72763 24.4274 3.59193C24.6503 3.4548 24.9225 3.3988 25.244 3.42393C25.5655 3.44907 25.9166 3.56088 26.2973 3.75937Z" fill="black"/>
<path d="M25.9503 4.01962C26.4286 4.26898 26.8688 4.61731 27.2712 5.06463C27.6735 5.50926 27.987 5.99865 28.2117 6.53282L27.1867 6.66344C27.0485 6.35383 26.8763 6.08328 26.6702 5.85177C26.464 5.61759 26.2325 5.43351 25.9755 5.29953C25.5782 5.09235 25.2545 5.07402 25.0046 5.24454C24.7545 5.41238 24.6368 5.73634 24.6515 6.21641C24.6619 6.55434 24.7352 6.88285 24.8714 7.20195C25.0075 7.51836 25.1798 7.79294 25.3883 8.02568C25.599 8.25699 25.8293 8.43777 26.0792 8.56803C26.5883 8.83351 26.9828 8.79643 27.2627 8.45677L28.2645 9.7471C28.0433 10.0171 27.7494 10.1647 27.3826 10.1898C27.0158 10.215 26.598 10.1053 26.1293 9.86095C25.7486 9.66246 25.3931 9.40582 25.0627 9.09104C24.7323 8.77625 24.4478 8.4313 24.2092 8.05618C23.9729 7.67961 23.7838 7.27618 23.6419 6.84588C23.4999 6.41559 23.4225 5.9899 23.4096 5.56883C23.3967 5.14776 23.4501 4.79031 23.5699 4.49648C23.6897 4.20264 23.8598 3.98788 24.0804 3.85219C24.3033 3.71506 24.5755 3.65905 24.8971 3.68419C25.2186 3.70932 25.5697 3.82113 25.9503 4.01962Z" fill="#833FF0"/>
<path d="M22.2272 15.4126L22.2638 16.6074L19.2797 13.5432L19.2447 12.4006L22.1351 12.4034L22.1717 13.5982L20.2651 13.4948L22.2272 15.4126ZM23.3911 15.8928C23.5405 15.8017 23.7175 15.8096 23.9221 15.9163C24.1267 16.023 24.3066 16.2012 24.4617 16.451C24.6192 16.6994 24.7014 16.9375 24.7084 17.1655C24.7155 17.3988 24.6456 17.563 24.4987 17.6579C24.3541 17.7514 24.1795 17.7448 23.9748 17.6381C23.7702 17.5314 23.588 17.3519 23.4281 17.0996C23.2705 16.8459 23.1881 16.6024 23.1809 16.3691C23.1739 16.1411 23.244 15.9823 23.3911 15.8928ZM25.4613 16.9722C25.6107 16.8812 25.7877 16.889 25.9923 16.9957C26.1969 17.1024 26.3768 17.2807 26.5319 17.5305C26.6894 17.7788 26.7716 18.017 26.7786 18.2449C26.7857 18.4783 26.7158 18.6424 26.5689 18.7373C26.4243 18.8308 26.2497 18.8242 26.045 18.7175C25.8404 18.6109 25.6582 18.4314 25.4983 18.1791C25.3407 17.9254 25.2583 17.6818 25.2511 17.4485C25.2441 17.2205 25.3142 17.0618 25.4613 16.9722ZM27.5315 18.0516C27.6809 17.9606 27.8579 17.9685 28.0625 18.0752C28.2671 18.1819 28.447 18.3601 28.6021 18.6099C28.7596 18.8583 28.8418 19.0964 28.8488 19.3244C28.8559 19.5577 28.786 19.7219 28.6391 19.8168C28.4945 19.9103 28.3199 19.9037 28.1152 19.797C27.9106 19.6903 27.7284 19.5108 27.5685 19.2585C27.4109 19.0048 27.3285 18.7613 27.3213 18.5279C27.3143 18.3 27.3844 18.1412 27.5315 18.0516ZM29.7249 17.5367L29.6883 16.3418L32.6724 19.4061L32.7074 20.5486L29.8171 20.5458L29.7805 19.351L31.6871 19.4544L29.7249 17.5367Z" fill="black"/>
<path d="M22.054 15.5857L22.0906 16.7805L19.1065 13.7163L19.0715 12.5737L21.9618 12.5765L21.9984 13.7713L20.0919 13.6679L22.054 15.5857ZM23.2179 16.0658C23.3673 15.9748 23.5443 15.9827 23.7489 16.0894C23.9535 16.1961 24.1334 16.3743 24.2885 16.6241C24.446 16.8725 24.5282 17.1106 24.5352 17.3386C24.5423 17.5719 24.4724 17.7361 24.3255 17.831C24.1809 17.9245 24.0062 17.9179 23.8016 17.8112C23.597 17.7045 23.4148 17.525 23.2548 17.2727C23.0972 17.019 23.0149 16.7755 23.0077 16.5422C23.0007 16.3142 23.0708 16.1554 23.2179 16.0658ZM25.2881 17.1453C25.4375 17.0543 25.6145 17.0621 25.8191 17.1688C26.0237 17.2755 26.2036 17.4538 26.3587 17.7036C26.5162 17.9519 26.5984 18.1901 26.6054 18.418C26.6125 18.6514 26.5426 18.8155 26.3957 18.9104C26.2511 19.0039 26.0764 18.9973 25.8718 18.8906C25.6672 18.784 25.485 18.6045 25.325 18.3522C25.1674 18.0985 25.0851 17.8549 25.0779 17.6216C25.0709 17.3936 25.141 17.2349 25.2881 17.1453ZM27.3583 18.2247C27.5077 18.1337 27.6847 18.1416 27.8893 18.2483C28.0939 18.355 28.2738 18.5332 28.4289 18.783C28.5864 19.0314 28.6686 19.2695 28.6756 19.4975C28.6827 19.7308 28.6128 19.895 28.4659 19.9899C28.3213 20.0834 28.1466 20.0768 27.942 19.9701C27.7374 19.8634 27.5552 19.6839 27.3952 19.4316C27.2376 19.1779 27.1553 18.9344 27.1481 18.701C27.1411 18.4731 27.2112 18.3143 27.3583 18.2247ZM29.5517 17.7097L29.5151 16.5149L32.4992 19.5792L32.5342 20.7217L29.6439 20.7189L29.6073 19.5241L31.5139 19.6275L29.5517 17.7097Z" fill="#CA2484"/>
<path d="M35.7313 10.7297L35.7679 11.9245L32.7838 8.8603L32.7488 7.71778L35.6391 7.72055L35.6757 8.91536L33.7691 8.81194L35.7313 10.7297ZM36.8951 11.2099C37.0445 11.1189 37.2215 11.1267 37.4261 11.2334C37.6307 11.3401 37.8106 11.5183 37.9658 11.7681C38.1232 12.0165 38.2054 12.2547 38.2124 12.4826C38.2196 12.716 38.1497 12.8801 38.0027 12.975C37.8581 13.0685 37.6835 13.0619 37.4789 12.9552C37.2743 12.8485 37.092 12.6691 36.9321 12.4168C36.7745 12.1631 36.6921 11.9195 36.685 11.6862C36.678 11.4582 36.748 11.2995 36.8951 11.2099ZM38.9653 12.2893C39.1147 12.1983 39.2917 12.2062 39.4963 12.3129C39.7009 12.4195 39.8808 12.5978 40.036 12.8476C40.1934 13.096 40.2756 13.3341 40.2826 13.5621C40.2898 13.7954 40.2199 13.9596 40.0729 14.0545C39.9283 14.148 39.7537 14.1414 39.5491 14.0347C39.3445 13.928 39.1622 13.7485 39.0023 13.4962C38.8447 13.2425 38.7623 12.999 38.7552 12.7656C38.7482 12.5377 38.8182 12.3789 38.9653 12.2893ZM41.0355 13.3688C41.1849 13.2778 41.3619 13.2856 41.5665 13.3923C41.7711 13.499 41.951 13.6772 42.1062 13.927C42.2636 14.1754 42.3458 14.4136 42.3528 14.6415C42.36 14.8749 42.2901 15.039 42.1431 15.1339C41.9985 15.2274 41.8239 15.2208 41.6193 15.1141C41.4147 15.0074 41.2324 14.828 41.0725 14.5757C40.9149 14.3219 40.8325 14.0784 40.8254 13.8451C40.8184 13.6171 40.8884 13.4584 41.0355 13.3688ZM43.2289 12.8538L43.1923 11.659L46.1764 14.7232L46.2115 15.8657L43.3211 15.863L43.2845 14.6681L45.1911 14.7716L43.2289 12.8538Z" fill="black"/>
<path d="M35.5578 10.9031L35.5944 12.0979L32.6103 9.03364L32.5753 7.89112L35.4656 7.89389L35.5022 9.0887L33.5957 8.98528L35.5578 10.9031ZM36.7217 11.3832C36.871 11.2922 37.048 11.3001 37.2527 11.4068C37.4573 11.5134 37.6372 11.6917 37.7923 11.9415C37.9497 12.1899 38.032 12.428 38.0389 12.656C38.0461 12.8893 37.9762 13.0534 37.8293 13.1484C37.6846 13.2419 37.51 13.2353 37.3054 13.1286C37.1008 13.0219 36.9185 12.8424 36.7586 12.5901C36.601 12.3364 36.5186 12.0929 36.5115 11.8595C36.5045 11.6316 36.5746 11.4728 36.7217 11.3832ZM38.7919 12.4627C38.9412 12.3717 39.1182 12.3795 39.3229 12.4862C39.5275 12.5929 39.7074 12.7711 39.8625 13.0209C40.02 13.2693 40.1022 13.5075 40.1091 13.7354C40.1163 13.9688 40.0464 14.1329 39.8995 14.2278C39.7548 14.3213 39.5802 14.3147 39.3756 14.208C39.171 14.1013 38.9887 13.9218 38.8288 13.6696C38.6712 13.4158 38.5888 13.1723 38.5817 12.939C38.5747 12.711 38.6448 12.5522 38.7919 12.4627ZM40.8621 13.5421C41.0114 13.4511 41.1884 13.459 41.3931 13.5656C41.5977 13.6723 41.7776 13.8506 41.9327 14.1004C42.0902 14.3487 42.1724 14.5869 42.1793 14.8149C42.1865 15.0482 42.1166 15.2123 41.9697 15.3073C41.825 15.4008 41.6504 15.3942 41.4458 15.2875C41.2412 15.1808 41.0589 15.0013 40.899 14.749C40.7414 14.4953 40.659 14.2518 40.6519 14.0184C40.6449 13.7905 40.715 13.6317 40.8621 13.5421ZM43.0555 13.0271L43.0189 11.8323L46.003 14.8966L46.038 16.0391L43.1477 16.0363L43.1111 14.8415L45.0176 14.9449L43.0555 13.0271Z" fill="#2DC4E4"/>
<path d="M13.4844 22.7646L13.4992 23.9599L10.5714 20.8418L10.5572 19.6989L13.447 19.7542L13.4618 20.9495L11.5574 20.8114L13.4844 22.7646ZM16.9388 20.1696C17.4124 20.4276 17.8462 20.7839 18.2404 21.2384C18.6345 21.6903 18.939 22.1853 19.154 22.7235L18.1268 22.8354C17.9942 22.5234 17.827 22.2497 17.6252 22.0145C17.4233 21.7766 17.1951 21.5883 16.9406 21.4497C16.5471 21.2353 16.2239 21.2111 15.9708 21.3771C15.7178 21.5403 15.5942 21.8621 15.6002 22.3424C15.6044 22.6804 15.6717 23.0102 15.8021 23.3317C15.9324 23.6506 16.0997 23.9282 16.3039 24.1647C16.5104 24.3998 16.7374 24.5848 16.9848 24.7196C17.489 24.9943 17.8841 24.9644 18.1702 24.6299L19.1483 25.9382C18.9223 26.2041 18.6256 26.3463 18.2584 26.3648C17.8912 26.3833 17.4756 26.2661 17.0114 26.0132C16.6344 25.8078 16.2836 25.5447 15.959 25.224C15.6344 24.9032 15.3562 24.5532 15.1245 24.1738C14.8951 23.793 14.7133 23.3861 14.5792 22.9533C14.4451 22.5205 14.3755 22.0935 14.3702 21.6723C14.365 21.251 14.4249 20.8946 14.55 20.603C14.6751 20.3114 14.8492 20.0998 15.0722 19.9681C15.2976 19.8351 15.5707 19.784 15.8918 19.815C16.2128 19.846 16.5618 19.9642 16.9388 20.1696ZM21.0243 22.6152C21.3476 22.6448 21.6966 22.7616 22.0713 22.9657C22.4459 23.1698 22.7967 23.4342 23.1237 23.759C23.4507 24.0837 23.7289 24.4364 23.9583 24.8172C24.1901 25.1993 24.373 25.6068 24.5071 26.0396C24.6412 26.4697 24.7108 26.8927 24.7159 27.3086C24.7211 27.7244 24.6611 28.0782 24.5361 28.3698C24.4109 28.6587 24.2357 28.8697 24.0103 29.0027C23.7873 29.1371 23.5142 29.1895 23.1908 29.1599C22.8675 29.1303 22.5185 29.0135 22.1439 28.8094C21.7692 28.6052 21.4184 28.3408 21.0914 28.0161C20.7644 27.6914 20.4851 27.338 20.2533 26.9559C20.0239 26.5751 19.8422 26.1697 19.7081 25.7395C19.574 25.3067 19.5044 24.8824 19.4992 24.4665C19.494 24.0506 19.554 23.6983 19.6792 23.4093C19.8042 23.1177 19.9783 22.9048 20.2013 22.7704C20.4266 22.6374 20.701 22.5856 21.0243 22.6152ZM23.0825 25.2475C22.822 24.8044 22.4902 24.4731 22.0873 24.2536C21.6844 24.0341 21.3552 24.0053 21.0998 24.1673C20.8467 24.3305 20.7232 24.6537 20.7292 25.1366C20.7352 25.6195 20.8685 26.0826 21.1291 26.5257C21.392 26.97 21.725 27.302 22.1279 27.5215C22.5308 27.741 22.8588 27.7691 23.1119 27.6059C23.3673 27.4439 23.492 27.1214 23.486 26.6385C23.48 26.1555 23.3455 25.6919 23.0825 25.2475ZM25.3711 24.8674L27.4882 26.0208C28.2634 26.4431 28.8887 27.0396 29.364 27.8102C29.8393 28.5808 30.0822 29.39 30.0927 30.2378C30.1032 31.0856 29.8773 31.6394 29.4148 31.8991C28.9523 32.1588 28.3334 32.0775 27.5582 31.6551L25.4411 30.5018L25.3711 24.8674ZM27.4789 27.2509L26.5671 26.7541L26.6062 29.9013L27.518 30.3981C27.961 30.6394 28.2962 30.6794 28.5235 30.5181C28.7532 30.3582 28.8651 30.0407 28.8592 29.5658C28.8533 29.0882 28.7331 28.6443 28.4986 28.2341C28.2642 27.8213 27.9243 27.4935 27.4789 27.2509ZM34.5924 34.2842L34.6075 35.4955L30.8186 33.4314L30.7486 27.797L34.5233 29.8535L34.5384 31.0649L31.9442 29.6516L31.9563 30.6255L34.3985 31.956L34.4135 33.1634L31.9713 31.8328L31.9841 32.8631L34.5924 34.2842ZM35.5974 33.0089L35.5825 31.8136L38.5103 34.9316L38.5245 36.0746L35.6348 36.0192L35.6199 34.8239L37.5243 34.962L35.5974 33.0089Z" fill="black"/>
<path d="M13.0265 22.9282L13.0413 24.1234L10.1135 21.0054L10.0993 19.8624L12.9891 19.9178L13.0039 21.1131L11.0996 20.975L13.0265 22.9282ZM16.4809 20.3331C16.9545 20.5912 17.3884 20.9474 17.7825 21.402C18.1766 21.8539 18.4811 22.3489 18.6961 22.8871L17.6689 22.999C17.5363 22.6869 17.3691 22.4133 17.1673 22.1781C16.9654 21.9402 16.7372 21.7519 16.4827 21.6133C16.0892 21.3989 15.766 21.3747 15.513 21.5406C15.2599 21.7039 15.1363 22.0257 15.1423 22.5059C15.1465 22.844 15.2138 23.1738 15.3442 23.4953C15.4745 23.8141 15.6418 24.0918 15.846 24.3283C16.0525 24.5634 16.2795 24.7483 16.5269 24.8831C17.0311 25.1578 17.4263 25.1279 17.7123 24.7934L18.6904 26.1018C18.4644 26.3677 18.1677 26.5099 17.8006 26.5284C17.4334 26.5468 17.0177 26.4296 16.5535 26.1768C16.1765 25.9714 15.8257 25.7083 15.5011 25.3876C15.1765 25.0668 14.8983 24.7167 14.6666 24.3373C14.4372 23.9565 14.2554 23.5497 14.1213 23.1169C13.9872 22.6841 13.9176 22.2571 13.9123 21.8358C13.9071 21.4146 13.967 21.0582 14.0921 20.7666C14.2172 20.475 14.3913 20.2634 14.6143 20.1317C14.8397 19.9986 15.1129 19.9476 15.4339 19.9786C15.7549 20.0096 16.1039 20.1277 16.4809 20.3331ZM20.5664 22.7788C20.8898 22.8084 21.2387 22.9252 21.6134 23.1293C21.988 23.3334 22.3388 23.5978 22.6658 23.9225C22.9928 24.2472 23.271 24.6 23.5004 24.9808C23.7322 25.3629 23.9151 25.7703 24.0492 26.2032C24.1833 26.6333 24.2529 27.0563 24.2581 27.4721C24.2632 27.888 24.2033 28.2417 24.0782 28.5334C23.953 28.8223 23.7778 29.0333 23.5524 29.1663C23.3294 29.3007 23.0563 29.353 22.733 29.3235C22.4096 29.2939 22.0606 29.177 21.686 28.9729C21.3114 28.7688 20.9605 28.5044 20.6335 28.1797C20.3065 27.855 20.0272 27.5016 19.7954 27.1195C19.566 26.7387 19.3843 26.3332 19.2502 25.9031C19.1161 25.4703 19.0465 25.046 19.0413 24.6301C19.0362 24.2142 19.0961 23.8618 19.2213 23.5729C19.3464 23.2813 19.5204 23.0683 19.7434 22.934C19.9688 22.8009 20.2431 22.7492 20.5664 22.7788ZM22.6247 25.4111C22.3641 24.968 22.0323 24.6367 21.6294 24.4172C21.2265 24.1977 20.8973 24.1689 20.6419 24.3309C20.3888 24.4941 20.2653 24.8172 20.2713 25.3002C20.2773 25.7831 20.4106 26.2461 20.6712 26.6892C20.9341 27.1336 21.2671 27.4656 21.67 27.6851C22.0729 27.9046 22.4009 27.9327 22.654 27.7694C22.9094 27.6075 23.0341 27.285 23.0281 26.8021C23.0221 26.3191 22.8876 25.8555 22.6247 25.4111ZM24.9132 25.031L27.0303 26.1844C27.8055 26.6067 28.4308 27.2032 28.9061 27.9737C29.3814 28.7443 29.6243 29.5536 29.6348 30.4014C29.6454 31.2492 29.4194 31.803 28.9569 32.0627C28.4944 32.3224 27.8756 32.241 27.1003 31.8187L24.9833 30.6653L24.9132 25.031ZM27.021 27.4145L26.1092 26.9177L26.1483 30.0649L27.0602 30.5617C27.5031 30.803 27.8383 30.843 28.0656 30.6817C28.2953 30.5217 28.4072 30.2043 28.4013 29.7294C28.3954 29.2518 28.2752 28.8079 28.0408 28.3977C27.8063 27.9848 27.4664 27.6571 27.021 27.4145ZM34.1345 34.4477L34.1496 35.6591L30.3607 33.595L30.2907 27.9606L34.0654 30.0171L34.0805 31.2284L31.4863 29.8151L31.4984 30.7891L33.9406 32.1196L33.9556 33.3269L31.5134 31.9964L31.5262 33.0267L34.1345 34.4477ZM35.1395 33.1724L35.1246 31.9772L38.0525 35.0952L38.0667 36.2382L35.1769 36.1828L35.162 34.9875L37.0664 35.1256L35.1395 33.1724Z" fill="#33BF98"/>
<path d="M7.52412 29.3072L7.01121 30.123C6.54309 29.5535 6.0687 29.1379 5.58802 28.876C5.35475 28.7489 5.1668 28.6905 5.02417 28.7007C4.8839 28.7122 4.81476 28.7985 4.81676 28.9595C4.81779 29.0426 4.84106 29.1259 4.88656 29.2094C4.93207 29.2928 5.01046 29.3861 5.12173 29.4894C5.23533 29.5912 5.33232 29.6747 5.4127 29.7398C5.49305 29.8023 5.62298 29.8997 5.80248 30.0321C5.80723 30.0374 5.81078 30.0406 5.81314 30.0419C5.81785 30.0445 5.82258 30.0484 5.82732 30.0537C5.83204 30.0562 5.83675 30.0588 5.84146 30.0614L6.04695 30.2133C6.54536 30.5834 6.93289 30.9771 7.20955 31.3943C7.48617 31.8088 7.62727 32.2401 7.63283 32.6882C7.63607 32.9484 7.60014 33.1647 7.52505 33.337C7.45229 33.5078 7.35201 33.6304 7.22421 33.7047C7.09642 33.779 6.9436 33.817 6.76576 33.8187C6.59028 33.8217 6.40268 33.7914 6.20296 33.7279C6.0056 33.6657 5.79854 33.5756 5.58176 33.4575C5.16235 33.229 4.76102 32.949 4.37778 32.6177C3.99453 32.2863 3.66717 31.9321 3.39569 31.555L3.97233 30.7819C4.48382 31.4523 5.01878 31.9396 5.57721 32.2438C5.81048 32.3709 5.99843 32.4293 6.14106 32.4191C6.28602 32.4074 6.35744 32.3171 6.35534 32.1481C6.35338 31.9898 6.27772 31.834 6.12838 31.6807C5.98139 31.5286 5.72844 31.3242 5.36952 31.0674L5.12157 30.8883C4.59967 30.5107 4.20623 30.1125 3.94125 29.6937C3.67624 29.2722 3.54537 28.8158 3.54862 28.3246C3.55131 27.7877 3.73443 27.4571 4.09797 27.3327C4.46151 27.2083 4.93545 27.3053 5.5198 27.6236C5.8756 27.8175 6.20836 28.0414 6.5181 28.2954C6.83019 28.5507 7.16553 28.888 7.52412 29.3072ZM9.61105 30.0684C9.93438 30.098 10.2834 30.2148 10.658 30.4189C11.0327 30.623 11.3835 30.8874 11.7105 31.2122C12.0375 31.5369 12.3157 31.8896 12.5451 32.2704C12.7768 32.6525 12.9597 33.06 13.0938 33.4928C13.2279 33.9229 13.2975 34.3459 13.3027 34.7618C13.3101 35.3628 13.1707 35.8198 12.8844 36.1328L13.6805 37.7657L12.2915 37.009L12.0683 36.5596C11.6666 36.6286 11.2207 36.5295 10.7306 36.2625C10.356 36.0584 10.0052 35.794 9.67816 35.4693C9.35117 35.1446 9.07179 34.7912 8.84004 34.4091C8.61064 34.0283 8.4289 33.6229 8.29484 33.1927C8.16075 32.7599 8.09112 32.3356 8.08595 31.9197C8.08078 31.5038 8.14076 31.1514 8.26589 30.8625C8.39098 30.5709 8.56503 30.3579 8.78803 30.2236C9.01338 30.0906 9.28772 30.0388 9.61105 30.0684ZM11.6693 32.7007C11.4087 32.2576 11.0769 31.9263 10.674 31.7068C10.2711 31.4873 9.94193 31.4585 9.68651 31.6205C9.43344 31.7837 9.30991 32.1068 9.31591 32.5898C9.32191 33.0727 9.45521 33.5358 9.71581 33.9789C9.97877 34.4232 10.3117 34.7552 10.7146 34.9747C10.9526 35.1043 11.1699 35.1667 11.3664 35.1619L10.5705 33.5451L11.857 34.246L12.0191 34.5781C12.0571 34.4336 12.075 34.2714 12.0727 34.0917C12.0667 33.6087 11.9322 33.1451 11.6693 32.7007ZM17.7639 38.7512L17.7794 39.9988L14.1107 38.0001L14.0407 32.3657L15.2212 33.0089L15.2757 37.3956L17.7639 38.7512Z" fill="black"/>
<path d="M7.17696 29.3941L6.66404 30.2099C6.19592 29.6404 5.72153 29.2248 5.24085 28.9629C5.00759 28.8358 4.81964 28.7774 4.677 28.7876C4.53673 28.7992 4.46759 28.8854 4.46959 29.0464C4.47063 29.1296 4.49389 29.2129 4.5394 29.2963C4.5849 29.3797 4.66329 29.473 4.77457 29.5763C4.88817 29.6781 4.98516 29.7616 5.06553 29.8267C5.14588 29.8892 5.27581 29.9866 5.45532 30.119C5.46006 30.1243 5.46361 30.1276 5.46597 30.1288C5.47068 30.1314 5.47541 30.1353 5.48016 30.1406C5.48487 30.1431 5.48958 30.1457 5.49429 30.1483L5.69979 30.3002C6.19819 30.6703 6.58572 31.064 6.86238 31.4812C7.139 31.8957 7.2801 32.327 7.28567 32.7751C7.2889 33.0353 7.25297 33.2516 7.17788 33.4239C7.10512 33.5948 7.00484 33.7173 6.87704 33.7916C6.74925 33.8659 6.59643 33.9039 6.41859 33.9056C6.24311 33.9086 6.05551 33.8784 5.85579 33.8149C5.65844 33.7526 5.45137 33.6625 5.2346 33.5444C4.81518 33.3159 4.41385 33.036 4.03061 32.7046C3.64736 32.3732 3.32 32.019 3.04852 31.6419L3.62516 30.8688C4.13665 31.5392 4.67162 32.0265 5.23005 32.3307C5.46331 32.4578 5.65126 32.5162 5.79389 32.506C5.93885 32.4944 6.01028 32.404 6.00817 32.235C6.00621 32.0767 5.93055 31.9209 5.78121 31.7676C5.63422 31.6156 5.38127 31.4111 5.02235 31.1543L4.7744 30.9752C4.2525 30.5976 3.85906 30.1994 3.59409 29.7806C3.32907 29.3591 3.1982 28.9027 3.20145 28.4115C3.20415 27.8746 3.38726 27.544 3.7508 27.4196C4.11434 27.2952 4.58829 27.3922 5.17264 27.7106C5.52843 27.9044 5.86119 28.1283 6.17093 28.3823C6.48302 28.6376 6.81836 28.9749 7.17696 29.3941ZM9.26388 30.1553C9.58721 30.1849 9.9362 30.3017 10.3108 30.5058C10.6855 30.7099 11.0363 30.9744 11.3633 31.2991C11.6903 31.6238 11.9685 31.9765 12.1979 32.3573C12.4297 32.7394 12.6126 33.1469 12.7467 33.5797C12.8807 34.0098 12.9503 34.4328 12.9555 34.8487C12.963 35.4497 12.8236 35.9067 12.5373 36.2197L13.3334 37.8526L11.9443 37.0959L11.7211 36.6465C11.3194 36.7155 10.8736 36.6165 10.3835 36.3495C10.0088 36.1454 9.65799 35.8809 9.331 35.5562C9.004 35.2315 8.72462 34.8781 8.49287 34.496C8.26347 34.1152 8.08174 33.7098 7.94768 33.2796C7.81358 32.8468 7.74395 32.4225 7.73878 32.0066C7.73362 31.5908 7.79359 31.2384 7.91872 30.9494C8.04381 30.6578 8.21786 30.4449 8.44086 30.3105C8.66621 30.1775 8.94056 30.1257 9.26388 30.1553ZM11.3221 32.7876C11.0615 32.3445 10.7298 32.0132 10.3268 31.7937C9.92393 31.5742 9.59476 31.5454 9.33934 31.7074C9.08627 31.8707 8.96274 32.1938 8.96874 32.6767C8.97474 33.1596 9.10804 33.6227 9.36864 34.0658C9.6316 34.5102 9.96453 34.8421 10.3675 35.0616C10.6054 35.1913 10.8227 35.2537 11.0192 35.2488L10.2233 33.632L11.5098 34.3329L11.6719 34.665C11.7099 34.5205 11.7278 34.3584 11.7256 34.1786C11.7196 33.6957 11.5851 33.232 11.3221 32.7876ZM17.4167 38.8381L17.4322 40.0857L13.7636 38.087L13.6935 32.4526L14.874 33.0958L14.9285 37.4825L17.4167 38.8381Z" fill="#5335D5"/>
<path d="M65.9321 62.7158L65.2419 62.2797L65.1669 63.7133L64.3099 63.1718L64.5318 58.9284L66.0713 59.9012C66.5075 60.1768 66.8361 60.5159 67.0572 60.9186C67.2782 61.3213 67.3774 61.7398 67.3546 62.1743C67.3323 62.6007 67.1974 62.8661 66.9499 62.9706C66.7024 63.0731 66.3631 62.9882 65.9321 62.7158ZM66.0105 60.8115L65.3408 60.3883L65.2891 61.3764L65.9588 61.7996C66.1145 61.8979 66.2381 61.9322 66.3298 61.9025C66.4232 61.8738 66.474 61.7807 66.4822 61.6231C66.4906 61.4634 66.4525 61.3131 66.368 61.172C66.2853 61.03 66.1661 60.9098 66.0105 60.8115ZM71.0101 63.0218L69.5317 64.7836L69.4463 66.4173L68.5867 65.8742L68.6718 64.2465L67.4436 60.7682L68.4366 61.3957L69.1537 63.5991L70.0454 62.4122L71.0101 63.0218ZM74.1199 64.9867L74.0708 65.9263L73.0085 65.2551L72.8357 68.5589L71.9787 68.0174L72.1515 64.7136L71.0867 64.0408L71.1358 63.1012L74.1199 64.9867ZM75.3666 65.7744L75.2812 67.4082L76.7925 68.3631L76.8779 66.7294L77.7349 67.2709L77.513 71.5143L76.656 70.9728L76.7435 69.2997L75.2322 68.3447L75.1447 70.0179L74.2877 69.4764L74.5096 65.2329L75.3666 65.7744ZM79.3666 68.3927C79.6085 68.4307 79.8654 68.5356 80.1374 68.7075C80.4094 68.8793 80.6605 69.0954 80.8908 69.3557C81.121 69.616 81.3132 69.895 81.4673 70.1927C81.623 70.4916 81.7408 70.8071 81.8206 71.1393C81.9006 71.4696 81.9323 71.7913 81.916 72.1045C81.8996 72.4177 81.8372 72.681 81.7289 72.8943C81.6206 73.1056 81.4785 73.2559 81.3024 73.345C81.128 73.4352 80.9199 73.4613 80.6781 73.4233C80.4362 73.3853 80.1793 73.2804 79.9073 73.1085C79.6353 72.9367 79.3842 72.7206 79.1539 72.4603C78.9237 72.2 78.7307 71.9204 78.5749 71.6216C78.4208 71.3239 78.3038 71.0099 78.2239 70.6797C78.1441 70.3474 78.1124 70.0247 78.1287 69.7115C78.1451 69.3983 78.2074 69.136 78.3157 68.9247C78.424 68.7114 78.5654 68.5596 78.7397 68.4694C78.9158 68.3802 79.1248 68.3546 79.3666 68.3927ZM80.7872 70.4739C80.6127 70.1277 80.3792 69.8622 80.0867 69.6774C79.7942 69.4926 79.5479 69.4549 79.3478 69.5643C79.1494 69.6749 79.0407 69.912 79.0217 70.2757C79.0026 70.6394 79.0804 70.9944 79.2549 71.3405C79.4311 71.6877 79.6655 71.9538 79.958 72.1386C80.2505 72.3234 80.496 72.3606 80.6944 72.25C80.8945 72.1406 81.004 71.904 81.023 71.5403C81.0421 71.1766 80.9635 70.8211 80.7872 70.4739ZM85.8457 72.3956L85.6237 76.6391L84.8001 76.1186L83.2984 72.4958L83.1631 75.0843L82.3061 74.5428L82.528 70.2994L83.3491 70.8182L84.8507 74.441L84.9861 71.8525L85.8457 72.3956Z" fill="#8742F5"/>
<path d="M36.8998 19.4926L36.8143 21.1263L38.3256 22.0813L38.4111 20.4475L39.2681 20.989L39.0462 25.2325L38.1892 24.691L38.2767 23.0178L36.7654 22.0629L36.6779 23.736L35.8209 23.1945L36.0428 18.9511L36.8998 19.4926ZM42.6441 23.1222L42.5949 24.0618L41.5326 23.3906L41.3599 26.6944L40.5029 26.1529L40.6756 22.8491L39.6108 22.1762L39.6599 21.2366L42.6441 23.1222ZM47.0956 25.9349L46.8736 30.1783L46.0166 29.6368L46.1685 26.7331L45.3191 28.7827L44.4082 28.2072L43.8202 25.2587L43.6689 28.1533L42.8119 27.6118L43.0338 23.3684L44.2474 24.1353L44.925 27.347L45.8793 25.1664L47.0956 25.9349ZM50.2402 31.3348L50.191 32.2744L47.5277 30.5915L47.7496 26.3481L48.6066 26.8896L48.4338 30.1934L50.2402 31.3348Z" fill="black"/>
<path d="M36.553 19.4926L36.4675 21.1263L37.9788 22.0813L38.0643 20.4475L38.9213 20.989L38.6994 25.2325L37.8424 24.691L37.9299 23.0178L36.4186 22.0629L36.3311 23.736L35.4741 23.1945L35.696 18.9511L36.553 19.4926ZM42.2972 23.1222L42.2481 24.0618L41.1858 23.3906L41.0131 26.6944L40.1561 26.1529L40.3288 22.8491L39.264 22.1762L39.3131 21.2366L42.2972 23.1222ZM46.7488 25.9349L46.5268 30.1783L45.6698 29.6368L45.8217 26.7331L44.9723 28.7827L44.0614 28.2072L43.4734 25.2587L43.3221 28.1533L42.4651 27.6118L42.687 23.3684L43.9006 24.1353L44.5782 27.347L45.5325 25.1664L46.7488 25.9349ZM49.8934 31.3348L49.8442 32.2744L47.1809 30.5915L47.4028 26.3481L48.2598 26.8896L48.087 30.1934L49.8934 31.3348Z" fill="#8742F5"/>
<path d="M46.0053 35.8825L45.9198 37.5162L47.4311 38.4711L47.5166 36.8374L48.3736 37.3789L48.1516 41.6223L47.2946 41.0808L47.3821 39.4077L45.8708 38.4528L45.7833 40.1259L44.9263 39.5844L45.1483 35.341L46.0053 35.8825ZM51.7495 39.512L51.7004 40.4517L50.6381 39.7805L50.4653 43.0843L49.6083 42.5428L49.7811 39.239L48.7163 38.5661L48.7654 37.6265L51.7495 39.512ZM54.9118 41.5101L54.8626 42.4497L53.8003 41.7785L53.6276 45.0823L52.7706 44.5408L52.9433 41.237L51.8785 40.5642L51.9276 39.6246L54.9118 41.5101ZM56.7018 45.5437L56.0116 45.1076L55.9366 46.5413L55.0796 45.9998L55.3015 41.7564L56.841 42.7291C57.2772 43.0047 57.6058 43.3439 57.8269 43.7466C58.0479 44.1492 58.1471 44.5678 58.1243 45.0022C58.102 45.4286 57.9671 45.694 57.7196 45.7986C57.4721 45.901 57.1328 45.8161 56.7018 45.5437ZM56.7802 43.6394L56.1105 43.2163L56.0588 44.2044L56.7285 44.6275C56.8841 44.7259 57.0078 44.7602 57.0995 44.7304C57.1929 44.7018 57.2437 44.6086 57.2519 44.451C57.2603 44.2914 57.2222 44.141 57.1377 44C57.055 43.858 56.9358 43.7378 56.7802 43.6394Z" fill="black"/>
<path d="M45.7454 36.0556L45.6599 37.6893L47.1712 38.6442L47.2567 37.0105L48.1137 37.552L47.8918 41.7954L47.0348 41.2539L47.1222 39.5808L45.6109 38.6259L45.5235 40.299L44.6665 39.7575L44.8884 35.5141L45.7454 36.0556ZM51.4896 39.6851L51.4405 40.6248L50.3782 39.9536L50.2054 43.2574L49.3484 42.7159L49.5212 39.4121L48.4564 38.7392L48.5055 37.7996L51.4896 39.6851ZM54.6519 41.6832L54.6027 42.6228L53.5405 41.9516L53.3677 45.2554L52.5107 44.7139L52.6835 41.4101L51.6186 40.7373L51.6678 39.7977L54.6519 41.6832ZM56.4419 45.7168L55.7517 45.2807L55.6767 46.7144L54.8197 46.1729L55.0416 41.9295L56.5811 42.9022C57.0173 43.1778 57.3459 43.517 57.567 43.9197C57.788 44.3223 57.8872 44.7409 57.8644 45.1753C57.8422 45.6017 57.7072 45.8671 57.4597 45.9717C57.2122 46.0741 56.873 45.9892 56.4419 45.7168ZM56.5203 43.8125L55.8506 43.3894L55.7989 44.3775L56.4686 44.8006C56.6243 44.899 56.7479 44.9333 56.8396 44.9035C56.933 44.8749 56.9838 44.7817 56.9921 44.6241C57.0004 44.4645 56.9623 44.3141 56.8778 44.1731C56.7951 44.031 56.6759 43.9109 56.5203 43.8125Z" fill="#8742F5"/>
<path d="M53.2453 98.2957C53.2453 98.2957 51.164 98.9027 49.9066 98.0789C49.9066 98.0789 48.6925 97.5152 48.866 96.3879C48.866 96.3879 51.2073 89.0602 58.2749 91.4883L59.489 92.2254C59.489 92.2254 60.3562 93.1359 60.2261 93.9164C58.0148 93.266 56.1503 94.3933 56.1503 94.3933C53.5487 96.041 53.2453 98.2957 53.2453 98.2957Z" fill="#D9EAFA"/>
<path d="M56.8874 92.2254L58.2749 91.4883C58.8386 91.7051 59.489 92.2254 59.489 92.2254H56.8874Z" fill="#619DF5"/>
<path d="M53.2452 98.2957C59.8359 95.434 60.2261 93.9164 60.2261 93.9164C58.0147 93.266 56.1503 94.3934 56.1503 94.3934C53.5487 96.041 53.2452 98.2957 53.2452 98.2957Z" fill="#619DF5"/>
<path d="M27.3165 71.6294L33.6036 67.9438L48.3025 76.3989L41.972 80.1712L27.3165 71.6294Z" fill="url(#paint0_linear_1106_4074)"/>
<path d="M41.972 80.1714L27.3165 71.6296V72.6269L41.972 81.2121V80.1714Z" fill="#186DB0"/>
<path d="M48.3025 76.3989L41.972 80.1712V81.2118L48.3025 77.2661V76.3989Z" fill="#5E92E9"/>
<path d="M33.6906 71.9762V68.334L41.4519 72.8867V76.5289L33.6906 71.9762Z" fill="#11043C"/>
<path d="M41.4517 72.8867V76.5289L44.4001 74.7512V71.5859L41.4517 72.8867Z" fill="#1467A5"/>
<path d="M19.8589 60.7464V31.739L55.6304 51.9011V81.5156L19.8589 60.7464Z" fill="#00046B"/>
<path d="M55.6302 51.9009V81.5154L56.7576 80.5181V51.4674C44.8771 44.6599 21.0988 31.0538 21.0295 31.0884C20.9601 31.1231 20.2201 31.5365 19.8588 31.7388L55.6302 51.9009Z" fill="#093075"/>
<path d="M20.856 59.1855V33.6035L54.6763 53.1586V79.0008L20.856 59.1855Z" fill="#5632D1"/>
<path d="M23.8912 41.7551L39.403 50.6573M51.4678 59.5758L24.0213 43.9665M50.8608 63.3915L39.9572 57.1558M24.0213 48.0422L30.2594 51.6097M24.0213 50.3403L39.1185 58.9986M24.0213 56.5407L39.1185 65.199M39.6063 48.5815L32.6796 44.6033M38.2798 62.6801L31.5699 58.8319" stroke="#545BD6" stroke-width="0.520312" stroke-linecap="round"/>
<path d="M51.4677 57.581C51.4677 57.581 45.165 53.9639 41.1265 51.6462M24.0212 46.1775L29.9398 49.5541M51.0775 61.6134C46.785 59.1645 44.3784 57.7915 40.0859 55.3426M50.8607 67.6404L24.0212 52.4646M38.2797 56.1962L32.0416 52.6287M44.1508 66.0469L39.9572 63.6418" stroke="#F0EFF1" stroke-width="0.520312" stroke-linecap="round"/>
<path d="M24.0212 39.6301L30.0821 43.1111M51.7279 55.543L44.8012 51.5648L41.3379 49.5757M50.8607 65.7325L41.6346 60.4413M24.0212 54.5024L29.8924 57.8695M50.8607 71.9329L41.6346 66.6417M38.3949 54.3777L31.6308 50.5187" stroke="#C10E9B" stroke-width="0.520312" stroke-linecap="round"/>
<path d="M62.0908 80.518V67.9872L45.4841 58.4915V70.8489L62.0908 80.518Z" fill="#C6DBF6"/>
<path d="M62.0908 67.9872L45.4841 58.4915V60.486C50.8896 63.4922 61.7786 69.5915 62.0908 69.9383V67.9872Z" fill="#C81C8A"/>
<path d="M58.4243 71.101C55.4103 69.4047 51.2185 67.0419 48.9837 65.782C48.29 65.3909 47.4353 65.8941 47.4353 66.6905V67.565C47.4353 68.4968 47.9337 69.3575 48.7419 69.8213L58.1907 75.2444C58.8845 75.6426 59.7494 75.1418 59.7494 74.3419V73.3682C59.7494 72.4282 59.2435 71.562 58.4243 71.101Z" fill="#5928CF"/>
<path d="M49.9587 69.054L49.9384 69.0417C49.7034 68.8986 49.5599 68.6434 49.5599 68.3683C49.5599 68.0553 49.9072 67.8671 50.1694 68.0381L50.1998 68.058C50.4228 68.2033 50.5572 68.4515 50.5572 68.7176C50.5572 69.0249 50.2211 69.2138 49.9587 69.054Z" fill="#C6DBF6"/>
<path d="M51.6063 70.0513L51.586 70.039C51.351 69.8959 51.2076 69.6407 51.2076 69.3656C51.2076 69.0525 51.5549 68.8644 51.8171 69.0354L51.8475 69.0552C52.0704 69.2006 52.2049 69.4488 52.2049 69.7149C52.2049 70.0221 51.8687 70.211 51.6063 70.0513Z" fill="#C6DBF6"/>
<path d="M53.384 70.9618L53.3638 70.9495C53.1288 70.8064 52.9853 70.5512 52.9853 70.2761C52.9853 69.9631 53.3326 69.7749 53.5948 69.9459L53.6252 69.9658C53.8482 70.1112 53.9826 70.3593 53.9826 70.6255C53.9826 70.9327 53.6465 71.1216 53.384 70.9618Z" fill="#C6DBF6"/>
<path d="M55.1618 71.9157L55.1415 71.9034C54.9065 71.7604 54.7631 71.5051 54.7631 71.23C54.7631 70.917 55.1104 70.7288 55.3726 70.8998L55.403 70.9197C55.6259 71.0651 55.7603 71.3132 55.7603 71.5794C55.7603 71.8866 55.4242 72.0755 55.1618 71.9157Z" fill="#C6DBF6"/>
<path d="M56.9829 72.9564L56.9626 72.944C56.7276 72.801 56.5842 72.5458 56.5842 72.2706C56.5842 71.9576 56.9315 71.7695 57.1936 71.9405L57.2241 71.9603C57.447 72.1057 57.5814 72.3538 57.5814 72.62C57.5814 72.9272 57.2453 73.1161 56.9829 72.9564Z" fill="#C6DBF6"/>
<path d="M46.3081 60.0957L46.8718 60.4209M48.5628 61.3965L47.9991 61.0713M47.1536 60.5835L47.4354 60.7461L47.7173 60.9087" stroke="#C6DBF6" stroke-width="0.173437" stroke-linecap="round"/>
<path d="M71.1961 79.304L63.0012 84.854L83.6403 96.3008L92.0954 90.8809L71.1961 79.304Z" fill="black" fill-opacity="0.3"/>
<path d="M68.3779 71.3262L66.2966 84.7242L84.0306 94.8703L86.372 81.3855L68.3779 71.3262Z" fill="#E1F3FD"/>
<path d="M89.6671 91.5316L86.3718 81.3855L85.0166 89.1902L89.6671 91.5316Z" fill="#619DF5"/>
<path d="M84.0304 94.8703L85.0167 89.1902L89.6671 91.5316L84.0304 94.8703Z" fill="#4E49DB"/>
<path d="M86.3718 81.3855L68.3777 71.3262L67.9534 74.0578L85.8949 84.1324L86.3718 81.3855Z" fill="#C905A7"/>
<path d="M81.0387 83.2958L82.5563 84.1606L82.2723 85.6782L81.9478 87.4126L81.6233 89.147L81.2989 90.8813L79.8208 90.0142L78.0469 88.9734L76.3559 87.9812L74.5781 86.9382L72.8438 85.9206L71.1094 84.903L69.5485 83.9872L69.854 82.3396L70.1595 80.6919L70.5052 78.8274L70.7625 77.4399L72.3885 78.3665L74.0145 79.2931L75.7922 80.3061L77.5699 81.3192L79.3043 82.3075L81.0387 83.2958Z" fill="#ACB5EC"/>
<path d="M78.0469 88.9731L79.3043 82.3391L82.5562 84.1602L81.2988 90.9243L78.0469 88.9731Z" fill="#CB2E75"/>
<path d="M81.0387 83.2958L82.5563 84.1606L82.2723 85.6782M81.0387 83.2958L79.8208 90.0142M81.0387 83.2958L79.3043 82.3075M79.8208 90.0142L81.2989 90.8813L81.6233 89.147M79.8208 90.0142L78.0469 88.9734M79.3043 82.3075L78.0469 88.9734M79.3043 82.3075L77.5699 81.3192M78.0469 88.9734L76.3559 87.9812M77.5699 81.3192L76.3559 87.9812M77.5699 81.3192L75.7922 80.3061M76.3559 87.9812L74.5781 86.9382M75.7922 80.3061L74.5781 86.9382M75.7922 80.3061L74.0145 79.2931M74.5781 86.9382L72.8438 85.9206M74.0145 79.2931L72.8438 85.9206M74.0145 79.2931L72.3885 78.3665M72.8438 85.9206L71.1094 84.903M72.3885 78.3665L70.7625 77.4399L70.5052 78.8274M72.3885 78.3665L71.1094 84.903M71.1094 84.903L69.5485 83.9872L69.854 82.3396M70.5052 78.8274L82.2723 85.6782M70.5052 78.8274L70.1595 80.6919M82.2723 85.6782L81.9478 87.4126M81.9478 87.4126L70.1595 80.6919M81.9478 87.4126L81.6233 89.147M70.1595 80.6919L69.854 82.3396M69.854 82.3396L81.6233 89.147" stroke="#E1F3FD" stroke-width="0.260156" stroke-linecap="round"/>
<ellipse cx="84.4209" cy="82.2524" rx="0.346875" ry="0.433594" fill="#0A0B4C"/>
<path d="M84.4207 82.2091V81.4283C84.4207 81.003 84.5363 80.5856 84.7551 80.2209L84.8265 80.1019C84.8991 79.9808 85.0212 79.8977 85.1604 79.8745V79.8745C85.4541 79.8256 85.7214 80.052 85.7214 80.3498V80.9517" stroke="#FDD951" stroke-width="0.346875" stroke-linecap="round"/>
<ellipse cx="82.5996" cy="81.1682" rx="0.346875" ry="0.433594" fill="#0A0B4C"/>
<path d="M82.5996 81.1249V80.3441C82.5996 79.9187 82.7152 79.5014 82.9341 79.1366L83.0055 79.0176C83.0781 78.8966 83.2001 78.8135 83.3394 78.7903V78.7903C83.6331 78.7413 83.9004 78.9678 83.9004 79.2655V79.8675" stroke="#FDD951" stroke-width="0.346875" stroke-linecap="round"/>
<ellipse cx="80.692" cy="80.0415" rx="0.346875" ry="0.433594" fill="#0A0B4C"/>
<path d="M80.6918 79.9979V79.2171C80.6918 78.7918 80.8074 78.3744 81.0262 78.0097L81.0976 77.8907C81.1702 77.7696 81.2923 77.6865 81.4315 77.6633V77.6633C81.7252 77.6144 81.9926 77.8408 81.9926 78.1386V78.7405" stroke="#FDD951" stroke-width="0.346875" stroke-linecap="round"/>
<ellipse cx="78.8709" cy="79.0015" rx="0.346875" ry="0.433594" fill="#0A0B4C"/>
<path d="M78.871 78.9582V78.1773C78.871 77.752 78.9866 77.3346 79.2054 76.9699L79.2768 76.8509C79.3494 76.7298 79.4715 76.6467 79.6107 76.6235V76.6235C79.9044 76.5746 80.1718 76.8011 80.1718 77.0988V77.7007" stroke="#FDD951" stroke-width="0.346875" stroke-linecap="round"/>
<ellipse cx="76.963" cy="77.8733" rx="0.346875" ry="0.433594" fill="#0A0B4C"/>
<path d="M76.963 77.8295V77.0487C76.963 76.6233 77.0786 76.206 77.2975 75.8412L77.3689 75.7222C77.4415 75.6012 77.5635 75.5181 77.7028 75.4949V75.4949C77.9965 75.4459 78.2638 75.6724 78.2638 75.9701V76.5721" stroke="#FDD951" stroke-width="0.346875" stroke-linecap="round"/>
<ellipse cx="75.0553" cy="76.8328" rx="0.346875" ry="0.433594" fill="#0A0B4C"/>
<path d="M75.0552 76.7897V76.0089C75.0552 75.5835 75.1708 75.1662 75.3896 74.8014L75.461 74.6824C75.5336 74.5614 75.6557 74.4783 75.795 74.4551V74.4551C76.0886 74.4061 76.356 74.6326 76.356 74.9303V75.5323" stroke="#FDD951" stroke-width="0.346875" stroke-linecap="round"/>
<ellipse cx="73.2341" cy="75.7922" rx="0.346875" ry="0.433594" fill="#0A0B4C"/>
<path d="M73.2341 75.7489V74.9681C73.2341 74.5428 73.3497 74.1254 73.5686 73.7607L73.64 73.6417C73.7126 73.5206 73.8347 73.4375 73.9739 73.4143V73.4143C74.2676 73.3654 74.5349 73.5918 74.5349 73.8895V74.4915" stroke="#FDD951" stroke-width="0.346875" stroke-linecap="round"/>
<ellipse cx="71.3262" cy="74.5781" rx="0.346875" ry="0.433594" fill="#0A0B4C"/>
<path d="M71.3263 74.5348V73.754C71.3263 73.3286 71.4419 72.9113 71.6607 72.5465L71.7321 72.4276C71.8048 72.3065 71.9268 72.2234 72.0661 72.2002V72.2002C72.3597 72.1512 72.6271 72.3777 72.6271 72.6754V73.2774" stroke="#FDD951" stroke-width="0.346875" stroke-linecap="round"/>
<ellipse cx="69.5052" cy="73.6243" rx="0.346875" ry="0.433594" fill="#0A0B4C"/>
<path d="M69.5052 73.581V72.8001C69.5052 72.3748 69.6209 71.9574 69.8397 71.5927L69.9111 71.4737C69.9837 71.3526 70.1058 71.2695 70.245 71.2463V71.2463C70.5387 71.1974 70.806 71.4239 70.806 71.7216V72.3235" stroke="#FDD951" stroke-width="0.346875" stroke-linecap="round"/>
<path d="M69.2885 108.919L58.2318 102.588L73.2775 93.8728L84.2908 100.203L69.2885 108.919Z" fill="url(#paint1_linear_1106_4074)"/>
<path d="M69.2885 108.919L58.2318 102.588V104.626L69.2885 111V110.74L58.4052 104.453V102.849L69.2885 109.136L84.2908 100.42V100.204L69.2885 108.919Z" fill="url(#paint2_linear_1106_4074)"/>
<path d="M69.2885 110.74V111L84.4643 102.155L83.5971 101.591V101.981L69.2018 110.263L58.6221 104.323V102.974L58.4053 102.848V104.453L69.2885 110.74Z" fill="url(#paint3_linear_1106_4074)"/>
<path d="M58.6221 104.322V102.973L69.2885 109.135L83.5971 100.81V101.981L69.2018 110.263L58.6221 104.322Z" fill="#BDD9E7"/>
<path d="M66.9905 107.603L81.9495 98.8577L80.3452 97.9355L65.3862 106.684V108.745L66.9905 109.699V107.603Z" fill="#5335D5"/>
<path d="M15.6094 68.2473L0 77.5696L36.2918 98.4688L51.6844 89.45L15.6094 68.2473Z" fill="#C7DDF4"/>
<path d="M36.2918 98.469L51.6844 89.4503V90.6644L36.2918 99.6397L0 78.6972V77.5698L36.2918 98.469Z" fill="url(#paint4_linear_1106_4074)"/>
<path d="M15.3058 69.6782L2.2113 77.3095L36.0316 97.1681L49.473 89.4935L15.3058 69.6782Z" fill="url(#paint5_linear_1106_4074)"/>
<path d="M38.4415 95.8082L34.5575 93.5324M6.80747 74.5782L10.7965 76.9089M40.8446 94.4368L36.8555 92.1M9.23559 73.1907L11.4903 74.5183M43.2727 93.0926L39.804 91.0534M11.4903 71.8899L13.8557 73.2522M45.5707 91.7485L43.2727 90.4253M13.745 70.5891L47.8254 90.4911M14.3086 84.3774L18.818 81.585M18.818 81.585L20.2055 82.3939M18.818 81.585L17.8156 81.0007M26.6227 91.6618L29.0174 90.2864M4.55278 75.9657L6.72076 77.2224M28.4786 89.9707L30.8719 88.6119M28.4786 89.9707L30.8719 91.373M28.4786 89.9707L26.1594 88.6119M30.8719 88.6119L30.6985 88.5108L29.6579 87.9041M30.8719 88.6119L32.1293 89.3449M30.8719 91.373L33.2029 89.9707M30.8719 91.373L31.5657 91.7795M33.2029 89.9707L32.8665 89.7746L32.1293 89.3449M33.2029 89.9707L34.254 90.5834M33.3434 92.8211L35.7282 91.4428M33.3434 92.8211L34.5575 93.5324M33.3434 92.8211L31.5657 91.7795M35.7282 91.4428L36.8555 92.1M35.7282 91.4428L34.254 90.5834M34.5575 93.5324C34.4187 93.7356 32.9654 94.5379 32.256 94.9137M29.2676 93.1886L31.5657 91.7795M26.1594 88.6119L28.4786 87.2167M26.1594 88.6119L23.7782 87.2167M28.4786 87.2167L29.6579 87.9041M28.4786 87.2167L27.319 86.5407M26.1594 85.8647C25.975 85.8889 24.4951 86.7761 23.7782 87.2167M26.1594 85.8647L27.319 86.5407M26.1594 85.8647L24.845 85.0984M23.7782 87.2167L21.4707 85.8647M21.4707 85.8647L23.7782 84.4766M21.4707 85.8647L19.0348 84.4375M23.7782 84.4766L24.845 85.0984M23.7782 84.4766L22.7204 83.8599M19.0348 84.4375L21.3762 83.0763M19.0348 84.4375L14.3086 81.6683M21.3762 83.0763L22.7204 83.8599M21.3762 83.0763L20.2055 82.3939M14.3086 81.6683L16.6067 80.2959M14.3086 81.6683L13.7521 81.3422M16.6067 80.2959L17.8156 81.0007M16.6067 80.2959L15.501 79.6514M13.7521 81.3422L11.4469 82.7141M13.7521 81.3422L12.0973 80.3727M9.0188 81.3028L11.384 79.9547M11.384 79.9547L12.0973 80.3727M11.384 79.9547L9.66919 78.95M12.0973 80.3727L14.3954 79.0068M14.3954 79.0068L13.2002 78.3101M14.3954 79.0068L15.501 79.6514M6.80747 80.0175L9.10552 78.6197M9.10552 78.6197L6.72076 77.2224M9.10552 78.6197L9.66919 78.95M6.72076 77.2224L4.40259 78.6197M9.66919 78.95L12.005 77.6133M12.005 77.6133L10.7965 76.9089M12.005 77.6133L13.2002 78.3101M10.7965 76.9089L13.1813 75.5059M13.1813 75.5059L13.8751 75.911M13.1813 75.5059L11.4903 74.5183M13.2002 78.3101L15.5837 76.9089M15.5837 76.9089L13.8751 75.911M15.5837 76.9089L16.1297 77.2277M13.8751 75.911L16.2013 74.6215M16.2013 74.6215L14.6989 73.7445M16.2013 74.6215L17.1704 75.1873M11.4903 74.5183C11.5597 74.4621 13.0961 73.6509 13.8557 73.2522M13.8557 73.2522L14.6989 73.7445M14.6989 73.7445L18.4711 71.543M20.986 72.9739L17.1704 75.1873M17.1704 75.1873L18.4101 75.911M19.7664 76.7028L23.5876 74.4914M19.7664 76.7028L20.7692 77.2882M19.7664 76.7028L18.4101 75.911M22.0266 78.0222L25.7989 75.7922M22.0266 78.0222L23.154 78.6804M22.0266 78.0222L20.7692 77.2882M24.2813 79.3385L28.0536 77.093M24.2813 79.3385L25.5597 80.0848M24.2813 79.3385L23.154 78.6804M26.536 80.6547L30.3083 78.3938M26.536 80.6547L27.9668 81.49M26.536 80.6547L25.5597 80.0848M28.8774 82.0216L32.7364 79.7813M28.8774 82.0216L30.395 82.9075M28.8774 82.0216L27.9668 81.49M31.4356 83.515L35.2946 81.2122M31.4356 83.515L32.8665 84.3503M31.4356 83.515L30.395 82.9075M33.9504 84.9831L37.8094 82.7297M33.9504 84.9831L35.0344 85.6159M33.9504 84.9831L32.8665 84.3503M36.1184 86.2487L40.0208 84.0305M36.1184 86.2487L37.4626 87.0334M36.1184 86.2487L35.0344 85.6159M38.4598 87.6156L42.3188 85.3313M38.4598 87.6156L39.5872 88.2737M38.4598 87.6156L37.4626 87.0334M40.7145 88.9318L44.4868 86.6321M40.7145 88.9318L41.9936 89.6786M40.7145 88.9318L39.5872 88.2737M43.2727 90.4253C43.3074 90.3738 45.8887 88.8579 47.1751 88.1063M43.2727 90.4253L41.9936 89.6786M41.9936 89.6786L39.804 91.0534M39.804 91.0534L39.2123 90.7079M39.5872 88.2737L37.3325 89.61M37.3325 89.61L39.2123 90.7079M37.3325 89.61L36.5954 89.1796M39.2123 90.7079L36.8555 92.1M34.254 90.5834L36.5954 89.1796M36.5954 89.1796L35.1645 88.344M32.1293 89.3449L34.4708 87.9388M34.4708 87.9388L35.1645 88.344M34.4708 87.9388L32.7797 86.9513M35.1645 88.344L37.4626 87.0334M35.0344 85.6159L32.7797 86.9513M32.7797 86.9513L32.0104 86.502M32.0104 86.502L29.6579 87.9041M32.0104 86.502L30.6334 85.6978M27.319 86.5407L29.7446 85.1788M29.7446 85.1788L30.6334 85.6978M29.7446 85.1788L28.1403 84.2418M30.6334 85.6978L32.8665 84.3503M30.395 82.9075L28.1403 84.2418M28.1403 84.2418L27.2587 83.727M27.2587 83.727L24.845 85.0984M27.2587 83.727L25.7122 82.8238M25.1485 82.4947L22.7204 83.8599M25.1485 82.4947L25.7122 82.8238M25.1485 82.4947L23.2407 81.3805M25.7122 82.8238L27.9668 81.49M25.5597 80.0848L23.2407 81.3805M23.2407 81.3805L22.5903 81.0007M22.5903 81.0007C22.4862 81.0658 20.9571 81.9566 20.2055 82.3939M22.5903 81.0007L20.8559 79.9878M17.8156 81.0007L20.2055 79.608M20.2055 79.608L20.8559 79.9878M20.2055 79.608L18.5145 78.6204M20.8559 79.9878L23.154 78.6804M20.7692 77.2882L18.5145 78.6204M18.5145 78.6204L17.9075 78.2659M17.9075 78.2659L15.501 79.6514M17.9075 78.2659L16.1297 77.2277M16.1297 77.2277L18.4101 75.911" stroke="#C7DDF4" stroke-width="0.173437" stroke-linecap="round"/>
<defs>
<linearGradient id="paint0_linear_1106_4074" x1="25.2353" y1="69.895" x2="37.8095" y2="80.1712" gradientUnits="userSpaceOnUse">
<stop stop-color="#255891"/>
<stop offset="1" stop-color="#030550"/>
</linearGradient>
<linearGradient id="paint1_linear_1106_4074" x1="83.467" y1="100.55" x2="58.2318" y2="102.892" gradientUnits="userSpaceOnUse">
<stop stop-color="#5496E4"/>
<stop offset="0.852376" stop-color="#976BD2"/>
</linearGradient>
<linearGradient id="paint2_linear_1106_4074" x1="58.2318" y1="105.58" x2="86.1119" y2="101.158" gradientUnits="userSpaceOnUse">
<stop stop-color="#F2D7F8"/>
<stop offset="1" stop-color="#5F7CD8"/>
</linearGradient>
<linearGradient id="paint3_linear_1106_4074" x1="60.183" y1="106.274" x2="85.158" y2="101.027" gradientUnits="userSpaceOnUse">
<stop stop-color="#5F3CA1"/>
<stop offset="1" stop-color="#927DFA"/>
</linearGradient>
<linearGradient id="paint4_linear_1106_4074" x1="0.043361" y1="77.5698" x2="54.2859" y2="91.3147" gradientUnits="userSpaceOnUse">
<stop stop-color="#6458CF"/>
<stop offset="1" stop-color="#669AFB"/>
</linearGradient>
<linearGradient id="paint5_linear_1106_4074" x1="1.12732" y1="77.613" x2="48.6058" y2="90.0571" gradientUnits="userSpaceOnUse">
<stop stop-color="#6256BD"/>
<stop offset="1" stop-color="#4EA7E1"/>
</linearGradient>
</defs>
</svg>
